<svg width="14" height="14" viewBox="0 0 14 14" fill="none" xmlns="http://www.w3.org/2000/svg">
<path d="M7 13L6.64645 13.3536L7 13.7071L7.35355 13.3536L7 13ZM7 7L6.64645 7.35355L7 7.70711L7.35355 7.35355L7 7ZM12.6464 6.64645L6.64645 12.6464L7.35355 13.3536L13.3536 7.35355L12.6464 6.64645ZM7.35355 12.6464L1.35355 6.64645L0.646447 7.35355L6.64645 13.3536L7.35355 12.6464ZM12.6464 0.646447L6.64645 6.64645L7.35355 7.35355L13.3536 1.35355L12.6464 0.646447ZM7.35355 6.64645L1.35355 0.646447L0.646447 1.35355L6.64645 7.35355L7.35355 6.64645Z" fill="#222222"/>
</svg>
