<svg xmlns="http://www.w3.org/2000/svg" xmlns:xlink="http://www.w3.org/1999/xlink" width="800" zoomAndPan="magnify" viewBox="0 0 600 599.999999" height="800" preserveAspectRatio="xMidYMid meet" version="1.0"><defs><g/></defs><g fill="#000000" fill-opacity="1"><g transform="translate(46.536725, 296.389856)"><g><path d="M -0.890625 -10.671875 C -0.847656 -12.140625 -1.179688 -13.113281 -1.890625 -13.59375 C -2.597656 -14.070312 -3.734375 -14.367188 -5.296875 -14.484375 L -6.875 -14.609375 L -32.59375 -16.5625 L -32.9375 -11.328125 C -33.09375 -9.234375 -32.503906 -7.679688 -31.171875 -6.671875 C -29.835938 -5.671875 -27.648438 -5.0625 -24.609375 -4.84375 L -24.75 -2.984375 L -35.421875 -4.078125 L -33.21875 -33.65625 L -22.484375 -33.171875 L -22.640625 -31.25 C -24.765625 -31.375 -26.472656 -31.285156 -27.765625 -30.984375 C -29.054688 -30.691406 -30.050781 -30.101562 -30.75 -29.21875 C -31.457031 -28.332031 -31.875 -27.023438 -32 -25.296875 L -32.328125 -21 L -4.671875 -18.875 C -2.867188 -18.738281 -1.535156 -18.59375 -0.671875 -18.4375 L -0.5625 -22.65625 L 1.671875 -22.484375 L 0.78125 -10.546875 Z M -0.890625 -10.671875 "/></g></g></g><g fill="#000000" fill-opacity="1"><g transform="translate(48.774471, 265.753173)"><g><path d="M -1.171875 -2 C -0.984375 -2.957031 -1.085938 -3.703125 -1.484375 -4.234375 C -1.878906 -4.765625 -2.453125 -5.140625 -3.203125 -5.359375 C -3.960938 -5.585938 -5.125 -5.851562 -6.6875 -6.15625 L -30.328125 -10.75 C -31.578125 -10.988281 -32.644531 -11.25 -33.53125 -11.53125 L -34.015625 -7.9375 L -36.125 -8.34375 C -35.738281 -10.34375 -35.578125 -11.789062 -35.640625 -12.6875 C -35.710938 -13.582031 -35.914062 -14.304688 -36.25 -14.859375 L -35.96875 -16.296875 L -20.734375 -13.34375 C -21.472656 -14.695312 -22.007812 -16.164062 -22.34375 -17.75 C -22.675781 -19.34375 -22.710938 -20.816406 -22.453125 -22.171875 C -21.890625 -25.046875 -20.582031 -26.957031 -18.53125 -27.90625 C -16.488281 -28.863281 -13.53125 -28.984375 -9.65625 -28.265625 L -0.359375 -26.515625 C 1.140625 -26.222656 2.257812 -25.9375 3 -25.65625 L 3.453125 -28.828125 L 5.515625 -28.421875 L 3.53125 -18.234375 L 2.03125 -18.53125 C 2.21875 -19.5 2.113281 -20.238281 1.71875 -20.75 C 1.320312 -21.257812 0.753906 -21.628906 0.015625 -21.859375 C -0.722656 -22.085938 -1.890625 -22.351562 -3.484375 -22.65625 L -10.484375 -24.015625 C -13.335938 -24.566406 -15.5625 -24.53125 -17.15625 -23.90625 C -18.75 -23.28125 -19.734375 -22 -20.109375 -20.0625 C -20.335938 -18.84375 -20.28125 -17.566406 -19.9375 -16.234375 C -19.59375 -14.898438 -19.039062 -13.78125 -18.28125 -12.875 L -3.546875 -10.015625 C -2.242188 -9.765625 -1.128906 -9.46875 -0.203125 -9.125 L 0.25 -12.296875 L 2.3125 -11.890625 L 0.328125 -1.703125 Z M -1.171875 -2 "/></g></g></g><g fill="#000000" fill-opacity="1"><g transform="translate(54.239663, 237.491164)"><g><path d="M 5.078125 -13.6875 C 4.390625 -11.445312 3.238281 -9.585938 1.625 -8.109375 C 0.0078125 -6.628906 -1.9375 -5.671875 -4.21875 -5.234375 C -6.5 -4.804688 -8.921875 -4.988281 -11.484375 -5.78125 C -13.753906 -6.476562 -15.722656 -7.65625 -17.390625 -9.3125 C -19.066406 -10.96875 -20.21875 -12.910156 -20.84375 -15.140625 C -21.46875 -17.378906 -21.410156 -19.679688 -20.671875 -22.046875 C -20.109375 -23.890625 -19.1875 -25.429688 -17.90625 -26.671875 C -16.632812 -27.921875 -15.0625 -28.734375 -13.1875 -29.109375 C -11.3125 -29.484375 -9.207031 -29.3125 -6.875 -28.59375 L -11.875 -11.390625 C -8 -10.148438 -4.769531 -9.851562 -2.1875 -10.5 C 0.382812 -11.144531 2.097656 -12.847656 2.953125 -15.609375 C 3.410156 -17.085938 3.492188 -18.734375 3.203125 -20.546875 C 2.910156 -22.359375 2.328125 -23.863281 1.453125 -25.0625 L 2.78125 -25.921875 C 4.289062 -24.117188 5.191406 -22.09375 5.484375 -19.84375 C 5.785156 -17.601562 5.648438 -15.550781 5.078125 -13.6875 Z M -10.046875 -24.578125 C -11.984375 -25.171875 -13.785156 -25.242188 -15.453125 -24.796875 C -17.128906 -24.347656 -18.238281 -23.25 -18.78125 -21.5 C -20.019531 -17.476562 -18.382812 -14.367188 -13.875 -12.171875 Z M -10.046875 -24.578125 "/></g></g></g><g fill="#000000" fill-opacity="1"><g transform="translate(62.228887, 212.359184)"><g/></g></g><g fill="#000000" fill-opacity="1"><g transform="translate(66.445056, 200.904238)"><g><path d="M 4.796875 -8.078125 C 3.722656 -5.847656 2.394531 -4.390625 0.8125 -3.703125 C -0.757812 -3.015625 -2.351562 -3.054688 -3.96875 -3.828125 C -5.738281 -4.679688 -6.890625 -6.113281 -7.421875 -8.125 C -7.960938 -10.144531 -8.015625 -12.375 -7.578125 -14.8125 C -7.140625 -17.25 -6.382812 -19.550781 -5.3125 -21.71875 L -8.15625 -23.078125 C -10.132812 -24.035156 -11.820312 -24.488281 -13.21875 -24.4375 C -14.613281 -24.394531 -15.765625 -23.425781 -16.671875 -21.53125 C -17.128906 -20.582031 -17.363281 -19.582031 -17.375 -18.53125 C -17.394531 -17.488281 -17.101562 -16.582031 -16.5 -15.8125 C -15.882812 -16 -15.207031 -15.914062 -14.46875 -15.5625 C -14.007812 -15.34375 -13.65625 -14.960938 -13.40625 -14.421875 C -13.15625 -13.890625 -13.1875 -13.304688 -13.5 -12.671875 C -13.800781 -12.035156 -14.25 -11.628906 -14.84375 -11.453125 C -15.4375 -11.273438 -16.070312 -11.347656 -16.75 -11.671875 C -17.75 -12.148438 -18.476562 -12.984375 -18.9375 -14.171875 C -19.40625 -15.367188 -19.550781 -16.78125 -19.375 -18.40625 C -19.195312 -20.03125 -18.695312 -21.695312 -17.875 -23.40625 C -16.632812 -25.976562 -15.039062 -27.546875 -13.09375 -28.109375 C -11.144531 -28.671875 -8.707031 -28.234375 -5.78125 -26.796875 L 4.515625 -21.78125 C 5.492188 -21.3125 6.5 -20.75 7.53125 -20.09375 L 8.921875 -23.421875 L 10.84375 -22.5 L 7.6875 -15.953125 C 7.1875 -16.085938 6.257812 -16.40625 4.90625 -16.90625 C 6.070312 -13.582031 6.035156 -10.640625 4.796875 -8.078125 Z M 2.6875 -10.390625 C 3.238281 -11.554688 3.523438 -12.71875 3.546875 -13.875 C 3.566406 -15.039062 3.347656 -16.335938 2.890625 -17.765625 C 2.421875 -17.953125 1.640625 -18.3125 0.546875 -18.84375 L -3.75 -20.953125 C -4.863281 -18.398438 -5.425781 -15.921875 -5.4375 -13.515625 C -5.457031 -11.109375 -4.5 -9.441406 -2.5625 -8.515625 C -1.4375 -7.972656 -0.410156 -7.890625 0.515625 -8.265625 C 1.453125 -8.640625 2.175781 -9.347656 2.6875 -10.390625 Z M 2.6875 -10.390625 "/></g></g></g><g fill="#000000" fill-opacity="1"><g transform="translate(77.245676, 178.567505)"><g><path d="M -0.171875 -2.703125 C 0.335938 -3.546875 0.488281 -4.273438 0.28125 -4.890625 C 0.0820312 -5.515625 -0.320312 -6.054688 -0.9375 -6.515625 C -1.550781 -6.984375 -2.554688 -7.632812 -3.953125 -8.46875 L -13.921875 -14.421875 C -15.128906 -15.148438 -16.035156 -15.769531 -16.640625 -16.28125 L -18.375 -13.109375 L -20.15625 -14.171875 L -19.34375 -15.53125 C -18.6875 -16.644531 -18.300781 -17.503906 -18.1875 -18.109375 C -18.082031 -18.722656 -18.101562 -19.367188 -18.25 -20.046875 L -17.5 -21.3125 C -16.300781 -20.75 -14.816406 -19.957031 -13.046875 -18.9375 C -13.796875 -20.382812 -14.234375 -22.0625 -14.359375 -23.96875 C -14.484375 -25.882812 -14.113281 -27.566406 -13.25 -29.015625 C -12.726562 -29.890625 -12.054688 -30.476562 -11.234375 -30.78125 C -10.421875 -31.09375 -9.5625 -30.976562 -8.65625 -30.4375 C -8.1875 -30.15625 -7.828125 -29.691406 -7.578125 -29.046875 C -7.335938 -28.410156 -7.414062 -27.757812 -7.8125 -27.09375 C -8.195312 -26.445312 -8.753906 -26.0625 -9.484375 -25.9375 C -10.210938 -25.820312 -10.878906 -26.003906 -11.484375 -26.484375 C -12.191406 -25.398438 -12.441406 -24.035156 -12.234375 -22.390625 C -12.023438 -20.753906 -11.425781 -19.109375 -10.4375 -17.453125 L 0.34375 -11.0625 C 1.644531 -10.28125 2.597656 -9.632812 3.203125 -9.125 L 4.703125 -11.953125 L 6.5 -10.875 L 1.140625 -1.921875 Z M -0.171875 -2.703125 "/></g></g></g><g fill="#000000" fill-opacity="1"><g transform="translate(87.914865, 160.705548)"><g><path d="M 7.484375 -9.171875 C 4.796875 -5.367188 0.921875 -5.285156 -4.140625 -8.921875 L -16.15625 -17.53125 L -18.359375 -14.296875 L -20.15625 -15.5625 C -19.238281 -16.925781 -19.039062 -18.488281 -19.5625 -20.25 C -20.082031 -22.007812 -20.929688 -23.632812 -22.109375 -25.125 L -21.109375 -26.546875 L -15.296875 -22.4375 L -10.359375 -29.40625 L -8.734375 -28.265625 L -13.59375 -21.234375 C -9.375 -18.203125 -6.453125 -16.097656 -4.828125 -14.921875 C -3.203125 -13.753906 -2.296875 -13.101562 -2.109375 -12.96875 C -0.140625 -11.570312 1.484375 -10.769531 2.765625 -10.5625 C 4.054688 -10.351562 5.117188 -10.832031 5.953125 -12 C 6.460938 -12.726562 6.742188 -13.601562 6.796875 -14.625 C 6.859375 -15.644531 6.6875 -16.6875 6.28125 -17.75 L 7.984375 -18.234375 C 8.828125 -16.003906 9.128906 -14.179688 8.890625 -12.765625 C 8.660156 -11.359375 8.191406 -10.160156 7.484375 -9.171875 Z M 7.484375 -9.171875 "/></g></g></g><g fill="#000000" fill-opacity="1"><g transform="translate(98.785768, 145.462447)"><g/></g></g><g fill="#000000" fill-opacity="1"><g transform="translate(106.185691, 135.797741)"><g><path d="M 10.609375 -10.140625 C 9.035156 -8.453125 7.207031 -7.269531 5.125 -6.59375 C 3.050781 -5.914062 0.914062 -5.84375 -1.28125 -6.375 C -3.476562 -6.90625 -5.554688 -8.085938 -7.515625 -9.921875 C -9.242188 -11.546875 -10.503906 -13.507812 -11.296875 -15.8125 C -12.097656 -18.113281 -12.296875 -20.445312 -11.890625 -22.8125 C -11.484375 -25.1875 -10.40625 -27.304688 -8.65625 -29.171875 C -7.414062 -30.503906 -6.09375 -31.492188 -4.6875 -32.140625 C -3.289062 -32.785156 -1.972656 -33.070312 -0.734375 -33 C 0.503906 -32.925781 1.53125 -32.507812 2.34375 -31.75 C 2.914062 -31.21875 3.234375 -30.613281 3.296875 -29.9375 C 3.367188 -29.269531 3.144531 -28.65625 2.625 -28.09375 C 2.101562 -27.550781 1.535156 -27.3125 0.921875 -27.375 C 0.304688 -27.4375 -0.195312 -27.648438 -0.59375 -28.015625 C -1.207031 -28.597656 -1.523438 -29.25 -1.546875 -29.96875 C -2.578125 -30.414062 -3.597656 -30.382812 -4.609375 -29.875 C -5.617188 -29.363281 -6.484375 -28.722656 -7.203125 -27.953125 C -8.273438 -26.816406 -8.925781 -25.503906 -9.15625 -24.015625 C -9.382812 -22.535156 -9.144531 -20.976562 -8.4375 -19.34375 C -7.738281 -17.71875 -6.554688 -16.125 -4.890625 -14.5625 C -3.234375 -13.007812 -1.515625 -11.894531 0.265625 -11.21875 C 2.046875 -10.539062 3.753906 -10.34375 5.390625 -10.625 C 7.035156 -10.914062 8.445312 -11.691406 9.625 -12.953125 C 10.675781 -14.066406 11.398438 -15.445312 11.796875 -17.09375 C 12.191406 -18.738281 12.222656 -20.296875 11.890625 -21.765625 L 13.546875 -22.046875 C 14.117188 -19.773438 14.097656 -17.566406 13.484375 -15.421875 C 12.867188 -13.273438 11.910156 -11.515625 10.609375 -10.140625 Z M 10.609375 -10.140625 "/></g></g></g><g fill="#000000" fill-opacity="1"><g transform="translate(123.405785, 117.149188)"><g><path d="M 0.3125 -2.28125 C 1.050781 -2.925781 1.429688 -3.578125 1.453125 -4.234375 C 1.472656 -4.890625 1.257812 -5.539062 0.8125 -6.1875 C 0.363281 -6.84375 -0.378906 -7.773438 -1.421875 -8.984375 L -17.140625 -27.21875 C -17.972656 -28.195312 -18.65625 -29.0625 -19.1875 -29.8125 L -21.78125 -27.296875 L -23.1875 -28.921875 C -21.644531 -30.253906 -20.625 -31.289062 -20.125 -32.03125 C -19.625 -32.78125 -19.332031 -33.476562 -19.25 -34.125 L -18.140625 -35.078125 L -8.015625 -23.328125 C -7.753906 -24.847656 -7.257812 -26.332031 -6.53125 -27.78125 C -5.8125 -29.238281 -4.925781 -30.421875 -3.875 -31.328125 C -1.664062 -33.234375 0.535156 -33.921875 2.734375 -33.390625 C 4.941406 -32.867188 7.335938 -31.125 9.921875 -28.15625 L 16.140625 -21.015625 C 17.128906 -19.867188 17.832031 -18.957031 18.25 -18.28125 L 20.578125 -20.484375 L 21.9375 -18.890625 L 14.078125 -12.125 L 13.078125 -13.28125 C 13.816406 -13.914062 14.1875 -14.554688 14.1875 -15.203125 C 14.195312 -15.859375 13.984375 -16.503906 13.546875 -17.140625 C 13.109375 -17.773438 12.359375 -18.707031 11.296875 -19.9375 L 6.640625 -25.328125 C 4.742188 -27.546875 2.976562 -28.898438 1.34375 -29.390625 C -0.289062 -29.890625 -1.851562 -29.492188 -3.34375 -28.203125 C -4.289062 -27.390625 -5.039062 -26.351562 -5.59375 -25.09375 C -6.144531 -23.832031 -6.40625 -22.609375 -6.375 -21.421875 L 3.421875 -10.046875 C 4.285156 -9.046875 4.972656 -8.125 5.484375 -7.28125 L 7.8125 -9.5 L 9.171875 -7.90625 L 1.3125 -1.125 Z M 0.3125 -2.28125 "/></g></g></g><g fill="#000000" fill-opacity="1"><g transform="translate(145.25089, 98.349558)"><g><path d="M 8.15625 -4.65625 C 6.132812 -3.25 4.265625 -2.632812 2.546875 -2.8125 C 0.828125 -2.988281 -0.539062 -3.8125 -1.5625 -5.28125 C -2.675781 -6.90625 -2.972656 -8.722656 -2.453125 -10.734375 C -1.929688 -12.753906 -0.875 -14.71875 0.71875 -16.625 C 2.3125 -18.53125 4.101562 -20.15625 6.09375 -21.5 L 4.296875 -24.09375 C 3.046875 -25.90625 1.800781 -27.132812 0.5625 -27.78125 C -0.664062 -28.425781 -2.144531 -28.148438 -3.875 -26.953125 C -4.738281 -26.347656 -5.4375 -25.597656 -5.96875 -24.703125 C -6.5 -23.804688 -6.695312 -22.867188 -6.5625 -21.890625 C -5.925781 -21.753906 -5.375 -21.351562 -4.90625 -20.6875 C -4.625 -20.257812 -4.503906 -19.75 -4.546875 -19.15625 C -4.585938 -18.570312 -4.898438 -18.078125 -5.484375 -17.671875 C -6.066406 -17.265625 -6.660156 -17.128906 -7.265625 -17.265625 C -7.867188 -17.410156 -8.382812 -17.789062 -8.8125 -18.40625 C -9.4375 -19.320312 -9.65625 -20.414062 -9.46875 -21.6875 C -9.289062 -22.957031 -8.722656 -24.253906 -7.765625 -25.578125 C -6.804688 -26.898438 -5.550781 -28.101562 -4 -29.1875 C -1.65625 -30.8125 0.5 -31.382812 2.46875 -30.90625 C 4.445312 -30.4375 6.351562 -28.851562 8.1875 -26.15625 L 14.671875 -16.71875 C 15.285156 -15.820312 15.882812 -14.835938 16.46875 -13.765625 L 19.3125 -15.984375 L 20.53125 -14.21875 L 14.546875 -10.078125 C 14.179688 -10.441406 13.535156 -11.175781 12.609375 -12.28125 C 11.992188 -8.820312 10.507812 -6.28125 8.15625 -4.65625 Z M 7.46875 -7.71875 C 8.53125 -8.445312 9.351562 -9.3125 9.9375 -10.3125 C 10.519531 -11.3125 10.96875 -12.546875 11.28125 -14.015625 C 10.957031 -14.410156 10.453125 -15.109375 9.765625 -16.109375 L 7.09375 -20.078125 C 4.851562 -18.410156 3.132812 -16.53125 1.9375 -14.4375 C 0.738281 -12.351562 0.75 -10.429688 1.96875 -8.671875 C 2.6875 -7.640625 3.546875 -7.054688 4.546875 -6.921875 C 5.546875 -6.796875 6.519531 -7.0625 7.46875 -7.71875 Z M 7.46875 -7.71875 "/></g></g></g><g fill="#000000" fill-opacity="1"><g transform="translate(165.959864, 84.22775)"><g><path d="M 0.71875 -2.1875 C 1.5625 -2.6875 2.039062 -3.253906 2.15625 -3.890625 C 2.28125 -4.535156 2.179688 -5.207031 1.859375 -5.90625 C 1.546875 -6.613281 0.976562 -7.671875 0.15625 -9.078125 L -12.046875 -29.828125 C -12.691406 -30.929688 -13.203125 -31.90625 -13.578125 -32.75 L -16.59375 -30.734375 L -17.671875 -32.578125 C -15.910156 -33.609375 -14.71875 -34.445312 -14.09375 -35.09375 C -13.476562 -35.738281 -13.070312 -36.375 -12.875 -37 L -11.609375 -37.734375 L 5.15625 -9.28125 C 5.832031 -8.144531 6.34375 -7.113281 6.6875 -6.1875 L 9.375 -7.953125 L 10.4375 -6.140625 L 1.5 -0.875 Z M 0.71875 -2.1875 "/></g></g></g><g fill="#000000" fill-opacity="1"><g transform="translate(177.170637, 77.614114)"><g><path d="M 0.828125 -2.15625 C 1.703125 -2.613281 2.210938 -3.15625 2.359375 -3.78125 C 2.515625 -4.414062 2.453125 -5.09375 2.171875 -5.8125 C 1.890625 -6.53125 1.375 -7.609375 0.625 -9.046875 L -10.484375 -30.40625 C -11.078125 -31.539062 -11.535156 -32.539062 -11.859375 -33.40625 L -14.984375 -31.546875 L -15.984375 -33.4375 C -14.171875 -34.382812 -12.9375 -35.164062 -12.28125 -35.78125 C -11.625 -36.394531 -11.179688 -37.003906 -10.953125 -37.609375 L -9.65625 -38.28125 L 5.640625 -9.015625 C 6.242188 -7.835938 6.703125 -6.773438 7.015625 -5.828125 L 9.765625 -7.453125 L 10.734375 -5.59375 L 1.53125 -0.796875 Z M 0.828125 -2.15625 "/></g></g></g><g fill="#000000" fill-opacity="1"><g transform="translate(188.219547, 71.515896)"><g><path d="M 13.703125 -4.96875 C 11.546875 -4.039062 9.382812 -3.710938 7.21875 -3.984375 C 5.050781 -4.265625 3.066406 -5.140625 1.265625 -6.609375 C -0.523438 -8.078125 -1.945312 -10.039062 -3 -12.5 C -3.925781 -14.6875 -4.300781 -16.953125 -4.125 -19.296875 C -3.957031 -21.640625 -3.21875 -23.769531 -1.90625 -25.6875 C -0.601562 -27.601562 1.1875 -29.050781 3.46875 -30.03125 C 5.238281 -30.78125 7.007812 -31.070312 8.78125 -30.90625 C 10.550781 -30.738281 12.1875 -30.0625 13.6875 -28.875 C 15.1875 -27.6875 16.414062 -25.972656 17.375 -23.734375 L 1.015625 -16.421875 C 2.578125 -12.660156 4.4375 -10.003906 6.59375 -8.453125 C 8.75 -6.898438 11.15625 -6.691406 13.8125 -7.828125 C 15.238281 -8.441406 16.550781 -9.441406 17.75 -10.828125 C 18.945312 -12.210938 19.71875 -13.628906 20.0625 -15.078125 L 21.59375 -14.609375 C 21.1875 -12.304688 20.21875 -10.3125 18.6875 -8.625 C 17.164062 -6.945312 15.503906 -5.726562 13.703125 -4.96875 Z M 12.265625 -23.546875 C 11.472656 -25.410156 10.367188 -26.832031 8.953125 -27.8125 C 7.535156 -28.800781 5.984375 -28.9375 4.296875 -28.21875 C 0.421875 -26.5625 -0.90625 -23.304688 0.3125 -18.453125 Z M 12.265625 -23.546875 "/></g></g></g><g fill="#000000" fill-opacity="1"><g transform="translate(211.940236, 61.204765)"><g><path d="M 1.703125 -2.109375 C 2.648438 -2.398438 3.25 -2.84375 3.5 -3.4375 C 3.757812 -4.03125 3.816406 -4.679688 3.671875 -5.390625 C 3.535156 -6.109375 3.234375 -7.285156 2.765625 -8.921875 L -0.546875 -20.046875 C -0.960938 -21.398438 -1.21875 -22.472656 -1.3125 -23.265625 L -4.703125 -22.015625 L -5.3125 -24.0625 C -3.394531 -24.644531 -2.113281 -25.144531 -1.46875 -25.5625 C -0.832031 -25.988281 -0.335938 -26.515625 0.015625 -27.140625 L 1.421875 -27.5625 C 1.679688 -26.957031 2.050781 -25.984375 2.53125 -24.640625 C 3.332031 -25.953125 4.347656 -27.125 5.578125 -28.15625 C 6.804688 -29.1875 8.101562 -29.910156 9.46875 -30.328125 C 12.300781 -31.179688 14.628906 -30.921875 16.453125 -29.546875 C 18.285156 -28.171875 19.769531 -25.613281 20.90625 -21.875 L 23.65625 -12.8125 C 24.09375 -11.351562 24.363281 -10.234375 24.46875 -9.453125 L 27.484375 -10.515625 L 28.09375 -8.515625 L 18.171875 -5.515625 L 17.734375 -6.984375 C 18.671875 -7.265625 19.269531 -7.703125 19.53125 -8.296875 C 19.789062 -8.890625 19.847656 -9.5625 19.703125 -10.3125 C 19.566406 -11.0625 19.257812 -12.21875 18.78125 -13.78125 L 16.71875 -20.59375 C 15.851562 -23.375 14.765625 -25.335938 13.453125 -26.484375 C 12.140625 -27.640625 10.539062 -27.9375 8.65625 -27.375 C 7.488281 -27.019531 6.414062 -26.367188 5.4375 -25.421875 C 4.46875 -24.484375 3.753906 -23.4375 3.296875 -22.28125 C 3.429688 -21.925781 3.640625 -21.296875 3.921875 -20.390625 L 7.640625 -7.953125 C 8.078125 -6.492188 8.347656 -5.375 8.453125 -4.59375 L 11.46875 -5.65625 L 12.078125 -3.65625 L 2.140625 -0.640625 Z M 1.703125 -2.109375 "/></g></g></g><g fill="#000000" fill-opacity="1"><g transform="translate(239.831097, 52.723386)"><g><path d="M 16.78125 10.890625 C 13.914062 11.429688 11.488281 11.554688 9.5 11.265625 C 7.507812 10.984375 5.984375 10.40625 4.921875 9.53125 C 3.867188 8.664062 3.234375 7.644531 3.015625 6.46875 C 2.753906 5.070312 2.992188 3.757812 3.734375 2.53125 C 4.472656 1.3125 5.398438 0.335938 6.515625 -0.390625 C 5.304688 -0.546875 4.347656 -0.882812 3.640625 -1.40625 C 2.941406 -1.925781 2.5 -2.691406 2.3125 -3.703125 C 2.09375 -4.898438 2.363281 -6.085938 3.125 -7.265625 C 3.894531 -8.441406 4.972656 -9.285156 6.359375 -9.796875 C 4.660156 -10.234375 3.234375 -11.023438 2.078125 -12.171875 C 0.929688 -13.316406 0.203125 -14.738281 -0.109375 -16.4375 C -0.472656 -18.375 -0.289062 -20.1875 0.4375 -21.875 C 1.164062 -23.570312 2.257812 -24.988281 3.71875 -26.125 C 5.1875 -27.257812 6.804688 -27.988281 8.578125 -28.3125 C 10.835938 -28.738281 13.070312 -28.519531 15.28125 -27.65625 C 15.507812 -29.175781 16.097656 -30.492188 17.046875 -31.609375 C 18.003906 -32.722656 19.128906 -33.398438 20.421875 -33.640625 C 21.253906 -33.796875 21.941406 -33.691406 22.484375 -33.328125 C 23.035156 -32.972656 23.382812 -32.410156 23.53125 -31.640625 C 23.613281 -31.179688 23.523438 -30.691406 23.265625 -30.171875 C 23.015625 -29.648438 22.554688 -29.328125 21.890625 -29.203125 C 21.316406 -29.097656 20.796875 -29.171875 20.328125 -29.421875 C 19.867188 -29.679688 19.539062 -30.054688 19.34375 -30.546875 C 18.550781 -30.285156 17.984375 -29.800781 17.640625 -29.09375 C 17.296875 -28.394531 17.097656 -27.597656 17.046875 -26.703125 C 18.035156 -26.085938 18.859375 -25.304688 19.515625 -24.359375 C 20.171875 -23.421875 20.601562 -22.378906 20.8125 -21.234375 C 21.15625 -19.398438 20.984375 -17.65625 20.296875 -16 C 19.609375 -14.351562 18.53125 -12.960938 17.0625 -11.828125 C 15.601562 -10.691406 13.941406 -9.945312 12.078125 -9.59375 C 11.648438 -9.519531 11.09375 -9.457031 10.40625 -9.40625 C 9.894531 -9.414062 9.320312 -9.359375 8.6875 -9.234375 C 7.582031 -9.035156 6.695312 -8.617188 6.03125 -7.984375 C 5.375 -7.359375 5.113281 -6.703125 5.25 -6.015625 C 5.425781 -5.035156 6.148438 -4.5 7.421875 -4.40625 C 8.703125 -4.320312 10.816406 -4.503906 13.765625 -4.953125 C 17.910156 -5.523438 21.113281 -5.441406 23.375 -4.703125 C 25.632812 -3.960938 27.003906 -2.3125 27.484375 0.25 C 27.804688 1.945312 27.492188 3.535156 26.546875 5.015625 C 25.597656 6.503906 24.242188 7.757812 22.484375 8.78125 C 20.722656 9.8125 18.820312 10.515625 16.78125 10.890625 Z M 11.890625 -11.4375 C 13.691406 -11.78125 14.945312 -12.671875 15.65625 -14.109375 C 16.375 -15.554688 16.539062 -17.300781 16.15625 -19.34375 C 15.726562 -21.675781 14.851562 -23.546875 13.53125 -24.953125 C 12.207031 -26.359375 10.628906 -26.890625 8.796875 -26.546875 C 7.035156 -26.222656 5.773438 -25.304688 5.015625 -23.796875 C 4.265625 -22.296875 4.085938 -20.507812 4.484375 -18.4375 C 4.929688 -16.007812 5.816406 -14.148438 7.140625 -12.859375 C 8.472656 -11.566406 10.054688 -11.09375 11.890625 -11.4375 Z M 16.375 8.953125 C 18.207031 8.609375 19.769531 8.0625 21.0625 7.3125 C 22.351562 6.570312 23.289062 5.722656 23.875 4.765625 C 24.457031 3.816406 24.660156 2.859375 24.484375 1.890625 C 24.160156 0.191406 23.132812 -0.820312 21.40625 -1.15625 C 19.675781 -1.488281 17.210938 -1.410156 14.015625 -0.921875 C 11.898438 -0.585938 10.160156 -0.394531 8.796875 -0.34375 C 8.003906 0.425781 7.4375 1.289062 7.09375 2.25 C 6.757812 3.207031 6.679688 4.171875 6.859375 5.140625 C 7.160156 6.765625 8.179688 7.925781 9.921875 8.625 C 11.660156 9.320312 13.8125 9.429688 16.375 8.953125 Z M 16.375 8.953125 "/></g></g></g><g fill="#000000" fill-opacity="1"><g transform="translate(265.868152, 47.780715)"><g><path d="M 14.578125 -0.375 C 12.242188 -0.175781 10.09375 -0.550781 8.125 -1.5 C 6.15625 -2.445312 4.546875 -3.898438 3.296875 -5.859375 C 2.054688 -7.816406 1.328125 -10.128906 1.109375 -12.796875 C 0.921875 -15.171875 1.28125 -17.441406 2.1875 -19.609375 C 3.09375 -21.773438 4.46875 -23.5625 6.3125 -24.96875 C 8.15625 -26.382812 10.3125 -27.191406 12.78125 -27.390625 C 14.695312 -27.546875 16.46875 -27.265625 18.09375 -26.546875 C 19.726562 -25.828125 21.070312 -24.664062 22.125 -23.0625 C 23.175781 -21.46875 23.800781 -19.457031 24 -17.03125 L 6.15625 -15.25 C 6.445312 -11.1875 7.375 -8.082031 8.9375 -5.9375 C 10.5 -3.789062 12.71875 -2.832031 15.59375 -3.0625 C 17.132812 -3.1875 18.691406 -3.71875 20.265625 -4.65625 C 21.835938 -5.601562 23.019531 -6.707031 23.8125 -7.96875 L 25.109375 -7.046875 C 23.984375 -4.984375 22.429688 -3.394531 20.453125 -2.28125 C 18.484375 -1.164062 16.523438 -0.53125 14.578125 -0.375 Z M 19.078125 -18.453125 C 18.921875 -20.484375 18.320312 -22.1875 17.28125 -23.5625 C 16.25 -24.945312 14.820312 -25.566406 13 -25.421875 C 8.800781 -25.078125 6.507812 -22.398438 6.125 -17.390625 Z M 19.078125 -18.453125 "/></g></g></g><g fill="#000000" fill-opacity="1"><g transform="translate(291.845217, 45.690129)"><g><path d="M 12.65625 0.984375 C 11.0625 0.960938 9.601562 0.726562 8.28125 0.28125 C 6.96875 -0.15625 5.84375 -0.703125 4.90625 -1.359375 L 5.09375 0.421875 L 2.953125 0.40625 L 2.75 -8.359375 L 4.328125 -8.328125 C 4.378906 -6.941406 4.742188 -5.695312 5.421875 -4.59375 C 6.109375 -3.5 7.015625 -2.628906 8.140625 -1.984375 C 9.273438 -1.347656 10.484375 -1.023438 11.765625 -1.015625 C 13.222656 -0.992188 14.523438 -1.320312 15.671875 -2 C 16.828125 -2.675781 17.414062 -3.660156 17.4375 -4.953125 C 17.445312 -5.898438 17.171875 -6.695312 16.609375 -7.34375 C 16.054688 -8 15.367188 -8.546875 14.546875 -8.984375 C 13.734375 -9.429688 12.578125 -9.945312 11.078125 -10.53125 C 9.296875 -11.238281 7.863281 -11.894531 6.78125 -12.5 C 5.707031 -13.113281 4.785156 -13.9375 4.015625 -14.96875 C 3.242188 -16 2.867188 -17.289062 2.890625 -18.84375 C 2.910156 -19.96875 3.203125 -21.082031 3.765625 -22.1875 C 4.328125 -23.300781 5.253906 -24.238281 6.546875 -25 C 7.847656 -25.769531 9.566406 -26.140625 11.703125 -26.109375 C 12.753906 -26.097656 13.828125 -25.910156 14.921875 -25.546875 C 16.023438 -25.191406 17.046875 -24.625 17.984375 -23.84375 L 17.921875 -25.765625 L 20.046875 -25.734375 L 19.921875 -16.828125 L 18.296875 -16.84375 C 18.210938 -18.8125 17.628906 -20.523438 16.546875 -21.984375 C 15.472656 -23.441406 13.9375 -24.1875 11.9375 -24.21875 C 10.40625 -24.238281 9.179688 -23.875 8.265625 -23.125 C 7.359375 -22.375 6.898438 -21.472656 6.890625 -20.421875 C 6.878906 -19.429688 7.164062 -18.59375 7.75 -17.90625 C 8.332031 -17.226562 9.0625 -16.644531 9.9375 -16.15625 C 10.820312 -15.664062 12.003906 -15.117188 13.484375 -14.515625 C 15.234375 -13.785156 16.644531 -13.109375 17.71875 -12.484375 C 18.800781 -11.859375 19.71875 -11.035156 20.46875 -10.015625 C 21.21875 -9.003906 21.582031 -7.789062 21.5625 -6.375 C 21.539062 -4.738281 21.109375 -3.363281 20.265625 -2.25 C 19.421875 -1.144531 18.320312 -0.328125 16.96875 0.203125 C 15.625 0.742188 14.1875 1.003906 12.65625 0.984375 Z M 12.65625 0.984375 "/></g></g></g><g fill="#000000" fill-opacity="1"><g transform="translate(314.311671, 46.118838)"><g/></g></g><g fill="#000000" fill-opacity="1"><g transform="translate(326.673609, 47.017927)"><g><path d="M 11.578125 2.484375 C 6.972656 1.816406 5.132812 -1.59375 6.0625 -7.75 L 8.28125 -22.359375 L 4.375 -22.859375 L 4.6875 -25.03125 C 6.320312 -24.832031 7.800781 -25.363281 9.125 -26.625 C 10.445312 -27.894531 11.507812 -29.394531 12.3125 -31.125 L 14.03125 -30.875 L 13.015625 -23.828125 L 21.46875 -22.609375 L 21.1875 -20.640625 L 12.71875 -21.765625 C 11.945312 -16.640625 11.40625 -13.082031 11.09375 -11.09375 C 10.789062 -9.113281 10.617188 -8.007812 10.578125 -7.78125 C 10.234375 -5.382812 10.265625 -3.566406 10.671875 -2.328125 C 11.078125 -1.097656 11.984375 -0.382812 13.390625 -0.1875 C 14.265625 -0.0625 15.171875 -0.203125 16.109375 -0.609375 C 17.046875 -1.023438 17.894531 -1.65625 18.65625 -2.5 L 19.859375 -1.1875 C 18.265625 0.570312 16.785156 1.664062 15.421875 2.09375 C 14.066406 2.53125 12.785156 2.660156 11.578125 2.484375 Z M 11.578125 2.484375 "/></g></g></g><g fill="#000000" fill-opacity="1"><g transform="translate(344.749642, 49.313085)"><g><path d="M 2.046875 -1.078125 C 2.992188 -0.847656 3.738281 -0.921875 4.28125 -1.296875 C 4.832031 -1.671875 5.238281 -2.222656 5.5 -2.953125 C 5.757812 -3.691406 6.078125 -4.835938 6.453125 -6.390625 L 12.109375 -29.796875 C 12.398438 -31.046875 12.707031 -32.101562 13.03125 -32.96875 L 9.484375 -33.625 L 9.984375 -35.703125 C 11.953125 -35.222656 13.382812 -35 14.28125 -35.03125 C 15.1875 -35.0625 15.921875 -35.234375 16.484375 -35.546875 L 17.921875 -35.203125 L 14.28125 -20.125 C 15.65625 -20.789062 17.140625 -21.253906 18.734375 -21.515625 C 20.335938 -21.773438 21.816406 -21.742188 23.171875 -21.421875 C 26.015625 -20.734375 27.863281 -19.34375 28.71875 -17.25 C 29.582031 -15.164062 29.566406 -12.203125 28.671875 -8.359375 L 26.5 0.859375 C 26.144531 2.335938 25.804688 3.4375 25.484375 4.15625 L 28.625 4.765625 L 28.140625 6.796875 L 18.0625 4.359375 L 18.421875 2.875 C 19.367188 3.101562 20.109375 3.023438 20.640625 2.640625 C 21.171875 2.265625 21.566406 1.710938 21.828125 0.984375 C 22.085938 0.265625 22.40625 -0.878906 22.78125 -2.453125 L 24.453125 -9.375 C 25.140625 -12.21875 25.207031 -14.445312 24.65625 -16.0625 C 24.101562 -17.675781 22.875 -18.71875 20.96875 -19.1875 C 19.75 -19.476562 18.46875 -19.476562 17.125 -19.1875 C 15.78125 -18.90625 14.632812 -18.410156 13.6875 -17.703125 L 10.171875 -3.09375 C 9.859375 -1.8125 9.503906 -0.710938 9.109375 0.203125 L 12.25 0.8125 L 11.765625 2.84375 L 1.6875 0.40625 Z M 2.046875 -1.078125 "/></g></g></g><g fill="#000000" fill-opacity="1"><g transform="translate(372.728484, 56.041585)"><g><path d="M 13.421875 5.6875 C 11.210938 4.894531 9.410156 3.660156 8.015625 1.984375 C 6.617188 0.304688 5.753906 -1.675781 5.421875 -3.96875 C 5.097656 -6.269531 5.390625 -8.679688 6.296875 -11.203125 C 7.097656 -13.441406 8.359375 -15.359375 10.078125 -16.953125 C 11.804688 -18.546875 13.800781 -19.601562 16.0625 -20.125 C 18.332031 -20.65625 20.632812 -20.5 22.96875 -19.65625 C 24.78125 -19.007812 26.273438 -18.023438 27.453125 -16.703125 C 28.640625 -15.378906 29.378906 -13.769531 29.671875 -11.875 C 29.972656 -9.976562 29.710938 -7.882812 28.890625 -5.59375 L 11.90625 -11.359375 C 10.5 -7.535156 10.0625 -4.316406 10.59375 -1.703125 C 11.125 0.898438 12.75 2.6875 15.46875 3.65625 C 16.925781 4.1875 18.5625 4.34375 20.375 4.125 C 22.195312 3.914062 23.726562 3.40625 24.96875 2.59375 L 25.78125 3.953125 C 23.90625 5.378906 21.835938 6.1875 19.578125 6.375 C 17.316406 6.570312 15.265625 6.34375 13.421875 5.6875 Z M 25 -8.921875 C 25.6875 -10.828125 25.84375 -12.625 25.46875 -14.3125 C 25.101562 -16.007812 24.0625 -17.164062 22.34375 -17.78125 C 18.375 -19.207031 15.1875 -17.71875 12.78125 -13.3125 Z M 25 -8.921875 "/></g></g></g><g fill="#000000" fill-opacity="1"><g transform="translate(397.466377, 65.150011)"><g/></g></g><g fill="#000000" fill-opacity="1"><g transform="translate(408.831344, 70.103262)"><g><path d="M 10.09375 6.1875 C 5.96875 4.03125 5.367188 0.195312 8.296875 -5.3125 L 15.234375 -18.34375 L 11.71875 -20.09375 L 12.734375 -22.046875 C 14.203125 -21.328125 15.773438 -21.34375 17.453125 -22.09375 C 19.128906 -22.84375 20.628906 -23.898438 21.953125 -25.265625 L 23.484375 -24.453125 L 20.1875 -18.15625 L 27.765625 -14.1875 L 26.84375 -12.421875 L 19.21875 -16.3125 C 16.78125 -11.71875 15.085938 -8.535156 14.140625 -6.765625 C 13.203125 -5.003906 12.679688 -4.023438 12.578125 -3.828125 C 11.453125 -1.679688 10.875 0.0351562 10.84375 1.328125 C 10.8125 2.628906 11.425781 3.613281 12.6875 4.28125 C 13.476562 4.6875 14.378906 4.847656 15.390625 4.765625 C 16.410156 4.691406 17.425781 4.378906 18.4375 3.828125 L 19.125 5.46875 C 17.039062 6.601562 15.285156 7.148438 13.859375 7.109375 C 12.429688 7.066406 11.175781 6.757812 10.09375 6.1875 Z M 10.09375 6.1875 "/></g></g></g><g fill="#000000" fill-opacity="1"><g transform="translate(425.158606, 78.37993)"><g><path d="M 11.828125 8.546875 C 9.847656 7.273438 8.359375 5.664062 7.359375 3.71875 C 6.367188 1.769531 5.972656 -0.351562 6.171875 -2.65625 C 6.367188 -4.96875 7.191406 -7.253906 8.640625 -9.515625 C 9.921875 -11.515625 11.578125 -13.097656 13.609375 -14.265625 C 15.648438 -15.441406 17.832031 -16.03125 20.15625 -16.03125 C 22.476562 -16.039062 24.6875 -15.375 26.78125 -14.03125 C 28.394531 -12.988281 29.628906 -11.6875 30.484375 -10.125 C 31.347656 -8.570312 31.710938 -6.84375 31.578125 -4.9375 C 31.441406 -3.03125 30.710938 -1.050781 29.390625 1 L 14.140625 -8.390625 C 11.921875 -4.984375 10.773438 -1.957031 10.703125 0.6875 C 10.640625 3.34375 11.820312 5.453125 14.25 7.015625 C 15.5625 7.847656 17.128906 8.367188 18.953125 8.578125 C 20.773438 8.785156 22.375 8.628906 23.75 8.109375 L 24.234375 9.609375 C 22.097656 10.578125 19.90625 10.90625 17.65625 10.59375 C 15.414062 10.28125 13.472656 9.597656 11.828125 8.546875 Z M 26.359375 -3.125 C 27.453125 -4.832031 28.003906 -6.546875 28.015625 -8.265625 C 28.035156 -9.992188 27.273438 -11.351562 25.734375 -12.34375 C 22.191406 -14.601562 18.757812 -13.863281 15.4375 -10.125 Z M 26.359375 -3.125 "/></g></g></g><g fill="#000000" fill-opacity="1"><g transform="translate(447.058271, 92.334952)"><g><path d="M 10.96875 9.75 C 9.164062 8.320312 7.835938 6.597656 6.984375 4.578125 C 6.128906 2.554688 5.878906 0.429688 6.234375 -1.796875 C 6.585938 -4.035156 7.597656 -6.207031 9.265625 -8.3125 C 10.742188 -10.164062 12.597656 -11.582031 14.828125 -12.5625 C 17.066406 -13.539062 19.382812 -13.921875 21.78125 -13.703125 C 24.1875 -13.484375 26.382812 -12.582031 28.375 -11 C 29.800781 -9.863281 30.894531 -8.625 31.65625 -7.28125 C 32.414062 -5.945312 32.8125 -4.65625 32.84375 -3.40625 C 32.875 -2.164062 32.539062 -1.109375 31.84375 -0.234375 C 31.363281 0.367188 30.789062 0.734375 30.125 0.859375 C 29.457031 0.984375 28.820312 0.804688 28.21875 0.328125 C 27.632812 -0.140625 27.347656 -0.679688 27.359375 -1.296875 C 27.378906 -1.921875 27.554688 -2.445312 27.890625 -2.875 C 28.410156 -3.53125 29.03125 -3.898438 29.75 -3.984375 C 30.113281 -5.046875 29.992188 -6.054688 29.390625 -7.015625 C 28.796875 -7.984375 28.085938 -8.796875 27.265625 -9.453125 C 26.046875 -10.421875 24.6875 -10.957031 23.1875 -11.0625 C 21.695312 -11.175781 20.164062 -10.816406 18.59375 -9.984375 C 17.03125 -9.160156 15.539062 -7.851562 14.125 -6.0625 C 12.707031 -4.28125 11.734375 -2.472656 11.203125 -0.640625 C 10.671875 1.191406 10.613281 2.910156 11.03125 4.515625 C 11.445312 6.117188 12.332031 7.457031 13.6875 8.53125 C 14.882812 9.488281 16.316406 10.097656 17.984375 10.359375 C 19.660156 10.628906 21.21875 10.535156 22.65625 10.078125 L 23.078125 11.703125 C 20.859375 12.460938 18.65625 12.625 16.46875 12.1875 C 14.289062 11.75 12.457031 10.9375 10.96875 9.75 Z M 10.96875 9.75 "/></g></g></g><g fill="#000000" fill-opacity="1"><g transform="translate(467.047189, 107.982448)"><g><path d="M 2.3125 0.125 C 3.007812 0.8125 3.6875 1.132812 4.34375 1.09375 C 5.007812 1.0625 5.644531 0.796875 6.25 0.296875 C 6.851562 -0.203125 7.710938 -1.019531 8.828125 -2.15625 L 25.734375 -19.296875 C 26.640625 -20.210938 27.445312 -20.957031 28.15625 -21.53125 L 25.453125 -23.921875 L 26.953125 -25.453125 C 28.390625 -24.023438 29.503906 -23.09375 30.296875 -22.65625 C 31.085938 -22.21875 31.800781 -21.988281 32.4375 -21.96875 L 33.484375 -20.9375 L 22.59375 -9.890625 C 24.132812 -9.753906 25.65625 -9.382812 27.15625 -8.78125 C 28.664062 -8.175781 29.914062 -7.390625 30.90625 -6.421875 C 32.988281 -4.367188 33.859375 -2.222656 33.515625 0.015625 C 33.171875 2.253906 31.628906 4.785156 28.890625 7.609375 L 22.265625 14.375 C 21.203125 15.457031 20.347656 16.234375 19.703125 16.703125 L 22.09375 18.84375 L 20.625 20.328125 L 13.234375 13.046875 L 14.3125 11.953125 C 15.007812 12.640625 15.679688 12.957031 16.328125 12.90625 C 16.972656 12.851562 17.59375 12.582031 18.1875 12.09375 C 18.789062 11.613281 19.660156 10.789062 20.796875 9.625 L 25.8125 4.5625 C 27.851562 2.476562 29.050781 0.601562 29.40625 -1.0625 C 29.769531 -2.726562 29.253906 -4.253906 27.859375 -5.640625 C 26.960938 -6.515625 25.863281 -7.175781 24.5625 -7.625 C 23.269531 -8.070312 22.03125 -8.234375 20.84375 -8.109375 L 10.296875 2.578125 C 9.367188 3.523438 8.503906 4.289062 7.703125 4.875 L 10.09375 7.015625 L 8.625 8.5 L 1.234375 1.21875 Z M 2.3125 0.125 "/></g></g></g><g fill="#000000" fill-opacity="1"><g transform="translate(487.558561, 128.033963)"><g><path d="M 2.59375 0.765625 C 3.207031 1.535156 3.835938 1.929688 4.484375 1.953125 C 5.128906 1.972656 5.753906 1.78125 6.359375 1.375 C 6.972656 0.976562 7.953125 0.257812 9.296875 -0.78125 L 18.390625 -8.015625 C 19.492188 -8.898438 20.390625 -9.539062 21.078125 -9.9375 L 18.65625 -12.609375 L 20.3125 -13.953125 C 21.5625 -12.390625 22.503906 -11.390625 23.140625 -10.953125 C 23.785156 -10.515625 24.457031 -10.25 25.15625 -10.15625 L 26.078125 -9.015625 C 25.617188 -8.546875 24.851562 -7.84375 23.78125 -6.90625 C 25.300781 -6.632812 26.769531 -6.125 28.1875 -5.375 C 29.601562 -4.625 30.757812 -3.691406 31.65625 -2.578125 C 33.519531 -0.273438 34.15625 1.976562 33.5625 4.1875 C 32.96875 6.40625 31.148438 8.738281 28.109375 11.1875 L 20.75 17.125 C 19.5625 18.082031 18.625 18.753906 17.9375 19.140625 L 20.046875 21.546875 L 18.421875 22.859375 L 11.921875 14.78125 L 13.109375 13.8125 C 13.722656 14.570312 14.351562 14.960938 15 14.984375 C 15.644531 15.015625 16.289062 14.820312 16.9375 14.40625 C 17.59375 13.988281 18.550781 13.269531 19.8125 12.25 L 25.359375 7.78125 C 27.609375 5.925781 29.019531 4.175781 29.59375 2.53125 C 30.175781 0.894531 29.847656 -0.6875 28.609375 -2.21875 C 27.847656 -3.164062 26.847656 -3.914062 25.609375 -4.46875 C 24.367188 -5.03125 23.128906 -5.300781 21.890625 -5.28125 C 21.617188 -5.019531 21.113281 -4.59375 20.375 -4 L 10.25 4.109375 C 9.0625 5.066406 8.125 5.734375 7.4375 6.109375 L 9.546875 8.515625 L 7.921875 9.828125 L 1.40625 1.734375 Z M 2.59375 0.765625 "/></g></g></g><g fill="#000000" fill-opacity="1"><g transform="translate(505.886377, 150.647363)"><g><path d="M 7.28125 12.984375 C 6.019531 11.003906 5.332031 8.894531 5.21875 6.65625 C 5.113281 4.414062 5.582031 2.289062 6.625 0.28125 C 7.675781 -1.726562 9.25 -3.398438 11.34375 -4.734375 C 13.582031 -6.148438 15.910156 -6.960938 18.328125 -7.171875 C 20.742188 -7.390625 23 -7.003906 25.09375 -6.015625 C 27.1875 -5.035156 28.867188 -3.539062 30.140625 -1.53125 C 31.398438 0.445312 32.070312 2.570312 32.15625 4.84375 C 32.25 7.113281 31.769531 9.253906 30.71875 11.265625 C 29.675781 13.273438 28.132812 14.929688 26.09375 16.234375 C 23.914062 17.609375 21.609375 18.398438 19.171875 18.609375 C 16.734375 18.816406 14.457031 18.429688 12.34375 17.453125 C 10.238281 16.472656 8.550781 14.984375 7.28125 12.984375 Z M 9.21875 12.234375 C 10.550781 14.328125 12.390625 15.316406 14.734375 15.203125 C 17.078125 15.097656 19.523438 14.238281 22.078125 12.625 C 24.960938 10.789062 27.09375 8.679688 28.46875 6.296875 C 29.851562 3.910156 29.863281 1.644531 28.5 -0.5 C 27.15625 -2.625 25.265625 -3.664062 22.828125 -3.625 C 20.398438 -3.59375 17.914062 -2.769531 15.375 -1.15625 C 13.539062 0.0195312 11.988281 1.363281 10.71875 2.875 C 9.445312 4.382812 8.644531 5.957031 8.3125 7.59375 C 7.988281 9.226562 8.289062 10.773438 9.21875 12.234375 Z M 9.21875 12.234375 "/></g></g></g><g fill="#000000" fill-opacity="1"><g transform="translate(520.925129, 174.816362)"><g><path d="M 2.171875 0.8125 C 2.628906 1.675781 3.171875 2.179688 3.796875 2.328125 C 4.429688 2.484375 5.101562 2.421875 5.8125 2.140625 C 6.53125 1.859375 7.609375 1.335938 9.046875 0.578125 L 30.34375 -10.640625 C 31.476562 -11.242188 32.476562 -11.710938 33.34375 -12.046875 L 31.46875 -15.15625 L 33.375 -16.140625 C 34.320312 -14.335938 35.101562 -13.109375 35.71875 -12.453125 C 36.332031 -11.804688 36.941406 -11.367188 37.546875 -11.140625 L 38.234375 -9.84375 L 9.03125 5.578125 C 7.863281 6.191406 6.8125 6.65625 5.875 6.96875 L 7.5 9.75 L 5.640625 10.71875 L 0.8125 1.53125 Z M 2.171875 0.8125 "/></g></g></g><g fill="#000000" fill-opacity="1"><g transform="translate(527.112058, 185.755544)"><g><path d="M 5.09375 13.96875 C 4.164062 11.820312 3.828125 9.632812 4.078125 7.40625 C 4.328125 5.1875 5.132812 3.164062 6.5 1.34375 C 7.863281 -0.46875 9.6875 -1.863281 11.96875 -2.84375 C 14.394531 -3.882812 16.816406 -4.3125 19.234375 -4.125 C 21.660156 -3.945312 23.828125 -3.203125 25.734375 -1.890625 C 27.640625 -0.585938 29.0625 1.148438 30 3.328125 C 30.914062 5.484375 31.234375 7.691406 30.953125 9.953125 C 30.679688 12.210938 29.867188 14.25 28.515625 16.0625 C 27.160156 17.875 25.367188 19.257812 23.140625 20.21875 C 20.773438 21.226562 18.367188 21.640625 15.921875 21.453125 C 13.484375 21.265625 11.300781 20.515625 9.375 19.203125 C 7.445312 17.898438 6.019531 16.15625 5.09375 13.96875 Z M 7.125 13.546875 C 8.101562 15.828125 9.753906 17.109375 12.078125 17.390625 C 14.410156 17.671875 16.96875 17.21875 19.75 16.03125 C 22.894531 14.675781 25.34375 12.929688 27.09375 10.796875 C 28.84375 8.671875 29.21875 6.4375 28.21875 4.09375 C 27.226562 1.789062 25.53125 0.457031 23.125 0.09375 C 20.71875 -0.257812 18.128906 0.15625 15.359375 1.34375 C 13.359375 2.195312 11.609375 3.265625 10.109375 4.546875 C 8.617188 5.835938 7.578125 7.265625 6.984375 8.828125 C 6.398438 10.390625 6.445312 11.960938 7.125 13.546875 Z M 7.125 13.546875 "/></g></g></g><g fill="#000000" fill-opacity="1"><g transform="translate(538.189387, 211.541358)"><g><path d="M -8.953125 17.90625 C -9.804688 15.113281 -10.203125 12.710938 -10.140625 10.703125 C -10.078125 8.703125 -9.671875 7.125 -8.921875 5.96875 C -8.179688 4.820312 -7.242188 4.070312 -6.109375 3.71875 C -4.742188 3.300781 -3.410156 3.390625 -2.109375 3.984375 C -0.816406 4.585938 0.253906 5.398438 1.109375 6.421875 C 1.140625 5.210938 1.367188 4.226562 1.796875 3.46875 C 2.234375 2.71875 2.941406 2.191406 3.921875 1.890625 C 5.085938 1.535156 6.300781 1.671875 7.5625 2.296875 C 8.820312 2.929688 9.773438 3.910156 10.421875 5.234375 C 10.671875 3.484375 11.300781 1.972656 12.3125 0.703125 C 13.332031 -0.554688 14.671875 -1.441406 16.328125 -1.953125 C 18.210938 -2.523438 20.035156 -2.539062 21.796875 -2 C 23.554688 -1.46875 25.082031 -0.539062 26.375 0.78125 C 27.675781 2.113281 28.585938 3.644531 29.109375 5.375 C 29.785156 7.570312 29.8125 9.816406 29.1875 12.109375 C 30.726562 12.160156 32.101562 12.597656 33.3125 13.421875 C 34.519531 14.242188 35.316406 15.289062 35.703125 16.5625 C 35.953125 17.363281 35.925781 18.054688 35.625 18.640625 C 35.320312 19.234375 34.796875 19.644531 34.046875 19.875 C 33.597656 20.007812 33.101562 19.972656 32.5625 19.765625 C 32.03125 19.554688 31.664062 19.128906 31.46875 18.484375 C 31.289062 17.921875 31.300781 17.394531 31.5 16.90625 C 31.707031 16.425781 32.039062 16.0625 32.5 15.8125 C 32.175781 15.070312 31.640625 14.566406 30.890625 14.296875 C 30.148438 14.023438 29.328125 13.914062 28.421875 13.96875 C 27.929688 15.019531 27.253906 15.925781 26.390625 16.6875 C 25.523438 17.445312 24.535156 17.992188 23.421875 18.328125 C 21.640625 18.878906 19.890625 18.898438 18.171875 18.390625 C 16.460938 17.878906 14.957031 16.960938 13.65625 15.640625 C 12.363281 14.316406 11.441406 12.75 10.890625 10.9375 C 10.765625 10.519531 10.640625 9.972656 10.515625 9.296875 C 10.453125 8.785156 10.328125 8.21875 10.140625 7.59375 C 9.816406 6.519531 9.304688 5.691406 8.609375 5.109375 C 7.910156 4.535156 7.222656 4.351562 6.546875 4.5625 C 5.597656 4.84375 5.148438 5.617188 5.203125 6.890625 C 5.265625 8.160156 5.679688 10.242188 6.453125 13.140625 C 7.472656 17.191406 7.742188 20.378906 7.265625 22.703125 C 6.796875 25.035156 5.3125 26.582031 2.8125 27.34375 C 1.15625 27.851562 -0.457031 27.71875 -2.03125 26.9375 C -3.613281 26.164062 -5.007812 24.960938 -6.21875 23.328125 C -7.4375 21.691406 -8.347656 19.882812 -8.953125 17.90625 Z M 12.703125 10.546875 C 13.234375 12.304688 14.253906 13.457031 15.765625 14 C 17.273438 14.539062 19.019531 14.507812 21 13.90625 C 23.269531 13.21875 25.035156 12.132812 26.296875 10.65625 C 27.554688 9.1875 27.914062 7.5625 27.375 5.78125 C 26.851562 4.070312 25.800781 2.925781 24.21875 2.34375 C 22.632812 1.757812 20.835938 1.773438 18.828125 2.390625 C 16.460938 3.109375 14.710938 4.203125 13.578125 5.671875 C 12.453125 7.140625 12.160156 8.765625 12.703125 10.546875 Z M -7.078125 17.28125 C -6.523438 19.0625 -5.804688 20.550781 -4.921875 21.75 C -4.046875 22.945312 -3.097656 23.785156 -2.078125 24.265625 C -1.066406 24.742188 -0.0859375 24.835938 0.859375 24.546875 C 2.515625 24.035156 3.40625 22.898438 3.53125 21.140625 C 3.664062 19.378906 3.316406 16.9375 2.484375 13.8125 C 1.910156 11.757812 1.53125 10.054688 1.34375 8.703125 C 0.476562 8.003906 -0.445312 7.535156 -1.4375 7.296875 C -2.4375 7.066406 -3.40625 7.097656 -4.34375 7.390625 C -5.925781 7.867188 -6.96875 9.007812 -7.46875 10.8125 C -7.96875 12.625 -7.835938 14.78125 -7.078125 17.28125 Z M -7.078125 17.28125 "/></g></g></g><g fill="#000000" fill-opacity="1"><g transform="translate(545.985807, 236.888481)"><g><path d="M -12.34375 8.71875 C -12.5625 7.625 -12.46875 6.671875 -12.0625 5.859375 C -11.664062 5.046875 -10.988281 4.546875 -10.03125 4.359375 C -9.394531 4.234375 -8.796875 4.332031 -8.234375 4.65625 C -7.671875 4.976562 -7.328125 5.46875 -7.203125 6.125 C -7.066406 6.800781 -7.195312 7.34375 -7.59375 7.75 C -8 8.15625 -8.453125 8.40625 -8.953125 8.5 C -9.253906 8.5625 -9.492188 8.59375 -9.671875 8.59375 C -9.710938 8.707031 -9.707031 8.894531 -9.65625 9.15625 C -9.570312 9.59375 -9.320312 10.003906 -8.90625 10.390625 C -8.488281 10.773438 -7.925781 11.085938 -7.21875 11.328125 C -5.789062 11.847656 -2.710938 12.453125 2.015625 13.140625 L 17.15625 2.078125 C 19.882812 0.078125 22.007812 -1.257812 23.53125 -1.9375 L 22.96875 -4.3125 L 25.015625 -4.71875 L 27.046875 5.609375 L 25.546875 5.90625 L 25.5 5.703125 C 25.09375 4.160156 24.28125 3.507812 23.0625 3.75 C 22.21875 3.914062 20.988281 4.578125 19.375 5.734375 L 8 14.03125 C 11.03125 14.476562 15.484375 15.085938 21.359375 15.859375 C 24.890625 16.335938 26.90625 16.789062 27.40625 17.21875 L 26.53125 13.796875 L 28.578125 13.390625 L 30.125 21.25 L 28.625 21.546875 C 27.957031 20.503906 27.085938 19.765625 26.015625 19.328125 C 24.953125 18.890625 23.347656 18.507812 21.203125 18.1875 L 2.578125 15.375 C -1.023438 14.820312 -3.765625 14.320312 -5.640625 13.875 C -7.515625 13.4375 -9.03125 12.820312 -10.1875 12.03125 C -11.34375 11.25 -12.0625 10.144531 -12.34375 8.71875 Z M -12.34375 8.71875 "/></g></g></g><g fill="#000000" fill-opacity="1"><g transform="translate(550.737685, 262.125521)"><g><path d="M -7.46875 5.5625 C -6.664062 6.050781 -5.5625 6.460938 -4.15625 6.796875 C -2.75 7.140625 -1.390625 7.234375 -0.078125 7.078125 C 0.328125 7.023438 0.632812 6.972656 0.84375 6.921875 C 0.582031 6.503906 0.425781 6.09375 0.375 5.6875 C 0.289062 5.019531 0.457031 4.4375 0.875 3.9375 C 1.300781 3.4375 1.867188 3.144531 2.578125 3.0625 C 3.484375 2.957031 4.226562 3.140625 4.8125 3.609375 C 5.40625 4.085938 5.75 4.710938 5.84375 5.484375 C 5.976562 6.597656 5.65625 7.523438 4.875 8.265625 C 4.09375 9.003906 3.03125 9.457031 1.6875 9.625 C 0.300781 9.789062 -1.410156 9.628906 -3.453125 9.140625 C -5.503906 8.660156 -7.128906 7.960938 -8.328125 7.046875 Z M -7.46875 5.5625 "/></g></g></g><g fill="#000000" fill-opacity="1"><g transform="translate(552.217917, 274.126256)"><g/></g></g><g fill="#000000" fill-opacity="1"><g transform="translate(553.373751, 286.290287)"><g><path d="M -0.828125 9.359375 C -0.828125 6.890625 -0.265625 5 0.859375 3.6875 C 1.984375 2.382812 3.441406 1.738281 5.234375 1.75 C 7.203125 1.75 8.863281 2.535156 10.21875 4.109375 C 11.570312 5.691406 12.578125 7.679688 13.234375 10.078125 C 13.890625 12.472656 14.203125 14.875 14.171875 17.28125 L 17.328125 17.28125 C 19.523438 17.28125 21.242188 16.957031 22.484375 16.3125 C 23.722656 15.675781 24.347656 14.304688 24.359375 12.203125 C 24.359375 11.148438 24.132812 10.148438 23.6875 9.203125 C 23.25 8.253906 22.59375 7.554688 21.71875 7.109375 C 21.238281 7.546875 20.59375 7.765625 19.78125 7.765625 C 19.269531 7.765625 18.785156 7.578125 18.328125 7.203125 C 17.867188 6.828125 17.640625 6.285156 17.640625 5.578125 C 17.640625 4.867188 17.867188 4.304688 18.328125 3.890625 C 18.796875 3.484375 19.40625 3.28125 20.15625 3.28125 C 21.269531 3.28125 22.289062 3.71875 23.21875 4.59375 C 24.144531 5.46875 24.878906 6.675781 25.421875 8.21875 C 25.972656 9.757812 26.242188 11.476562 26.234375 13.375 C 26.234375 16.226562 25.476562 18.328125 23.96875 19.671875 C 22.457031 21.023438 20.070312 21.6875 16.8125 21.65625 L 5.359375 21.59375 C 4.273438 21.582031 3.125 21.507812 1.90625 21.375 L 2.09375 24.984375 L -0.046875 24.984375 L -0.03125 17.703125 C 0.476562 17.609375 1.445312 17.492188 2.875 17.359375 C 0.394531 14.878906 -0.835938 12.210938 -0.828125 9.359375 Z M 2.078125 10.53125 C 2.078125 11.820312 2.316406 12.992188 2.796875 14.046875 C 3.285156 15.097656 4.039062 16.171875 5.0625 17.265625 C 5.570312 17.234375 6.4375 17.21875 7.65625 17.21875 L 12.4375 17.265625 C 12.34375 14.484375 11.78125 12.003906 10.75 9.828125 C 9.71875 7.660156 8.128906 6.578125 5.984375 6.578125 C 4.734375 6.566406 3.769531 6.929688 3.09375 7.671875 C 2.414062 8.421875 2.078125 9.375 2.078125 10.53125 Z M 2.078125 10.53125 "/></g></g></g><g fill="#000000" fill-opacity="1"><g transform="translate(553.542633, 310.874539)"><g><path d="M 1.28125 2.390625 C 1.164062 3.378906 1.332031 4.109375 1.78125 4.578125 C 2.226562 5.046875 2.804688 5.351562 3.515625 5.5 C 4.234375 5.644531 5.4375 5.820312 7.125 6.03125 L 18.65625 7.34375 C 20.0625 7.5 21.148438 7.6875 21.921875 7.90625 L 22.109375 4.296875 L 24.234375 4.515625 C 24.015625 6.503906 23.972656 7.878906 24.109375 8.640625 C 24.253906 9.410156 24.535156 10.078125 24.953125 10.640625 L 24.78125 12.109375 C 24.144531 12.097656 23.109375 12.046875 21.671875 11.953125 C 22.566406 13.222656 23.25 14.625 23.71875 16.15625 C 24.1875 17.6875 24.34375 19.160156 24.1875 20.578125 C 23.863281 23.523438 22.707031 25.570312 20.71875 26.71875 C 18.738281 27.863281 15.804688 28.222656 11.921875 27.796875 L 2.515625 26.78125 C 1.003906 26.613281 -0.128906 26.421875 -0.890625 26.203125 L -1.078125 29.40625 L -3.15625 29.1875 L -2.046875 18.875 L -0.53125 19.046875 C -0.632812 20.015625 -0.460938 20.738281 -0.015625 21.21875 C 0.421875 21.695312 1.015625 22.019531 1.765625 22.1875 C 2.515625 22.351562 3.695312 22.519531 5.3125 22.6875 L 12.390625 23.453125 C 15.304688 23.742188 17.546875 23.507812 19.109375 22.75 C 20.679688 22 21.570312 20.644531 21.78125 18.6875 C 21.914062 17.476562 21.742188 16.238281 21.265625 14.96875 C 20.785156 13.695312 20.097656 12.625 19.203125 11.75 C 18.828125 11.738281 18.164062 11.6875 17.21875 11.59375 L 4.328125 10.140625 C 2.816406 9.972656 1.675781 9.78125 0.90625 9.5625 L 0.71875 12.765625 L -1.359375 12.546875 L -0.234375 2.21875 Z M 1.28125 2.390625 "/></g></g></g><g fill="#000000" fill-opacity="1"><g transform="translate(550.499235, 339.804633)"><g><path d="M -3.6875 12.625 C -3.21875 10.570312 -2.285156 8.847656 -0.890625 7.453125 C 0.492188 6.066406 2.234375 5.125 4.328125 4.625 C 6.421875 4.132812 8.726562 4.171875 11.25 4.734375 C 13.894531 5.328125 16.15625 6.40625 18.03125 7.96875 C 19.90625 9.539062 21.21875 11.429688 21.96875 13.640625 C 22.726562 15.847656 22.832031 18.175781 22.28125 20.625 C 22.050781 21.65625 21.671875 22.671875 21.140625 23.671875 C 20.609375 24.679688 20.082031 25.5 19.5625 26.125 L 26.375 27.65625 C 27.625 27.9375 28.6875 28.226562 29.5625 28.53125 L 30.15625 24.9375 L 32.25 25.421875 C 31.800781 27.390625 31.597656 28.816406 31.640625 29.703125 C 31.691406 30.597656 31.878906 31.320312 32.203125 31.875 L 31.875 33.328125 L -0.34375 26.0625 C -1.40625 25.820312 -2.515625 25.5 -3.671875 25.09375 L -4.265625 28.671875 L -6.359375 28.203125 L -4.75 21.09375 C -3.820312 21.125 -2.9375 21.203125 -2.09375 21.328125 C -2.945312 20.128906 -3.515625 18.78125 -3.796875 17.28125 C -4.078125 15.78125 -4.039062 14.226562 -3.6875 12.625 Z M -1.671875 14.984375 C -1.910156 16.035156 -1.847656 17.179688 -1.484375 18.421875 C -1.117188 19.671875 -0.539062 20.785156 0.25 21.765625 C 0.800781 21.847656 1.722656 22.035156 3.015625 22.328125 L 17.296875 25.609375 C 18.804688 24.316406 19.800781 22.609375 20.28125 20.484375 C 20.8125 18.097656 20.253906 15.953125 18.609375 14.046875 C 16.960938 12.140625 14.519531 10.820312 11.28125 10.09375 C 7.90625 9.332031 5.035156 9.363281 2.671875 10.1875 C 0.304688 11.019531 -1.140625 12.617188 -1.671875 14.984375 Z M -1.671875 14.984375 "/></g></g></g><g fill="#000000" fill-opacity="1"><g transform="translate(543.806489, 368.145312)"><g/></g></g><g fill="#000000" fill-opacity="1"><g transform="translate(540.228817, 380.020532)"><g><path d="M -4.984375 10.734375 C -3.316406 6.390625 0.421875 5.347656 6.234375 7.609375 L 20 12.96875 L 21.34375 9.296875 L 23.40625 10.078125 C 22.851562 11.609375 23.046875 13.160156 23.984375 14.734375 C 24.929688 16.316406 26.160156 17.679688 27.671875 18.828125 L 27.046875 20.453125 L 20.40625 17.921875 L 17.359375 25.90625 L 15.484375 25.1875 L 18.453125 17.171875 C 13.609375 15.285156 10.253906 13.976562 8.390625 13.25 C 6.523438 12.519531 5.484375 12.113281 5.265625 12.03125 C 3.003906 11.175781 1.226562 10.804688 -0.0625 10.921875 C -1.351562 11.046875 -2.253906 11.773438 -2.765625 13.109375 C -3.078125 13.941406 -3.132812 14.859375 -2.9375 15.859375 C -2.738281 16.859375 -2.3125 17.820312 -1.65625 18.75 L -3.203125 19.640625 C -4.554688 17.691406 -5.296875 16.003906 -5.421875 14.578125 C -5.554688 13.160156 -5.410156 11.878906 -4.984375 10.734375 Z M -4.984375 10.734375 "/></g></g></g><g fill="#000000" fill-opacity="1"><g transform="translate(534.034137, 397.161645)"><g><path d="M 0.609375 2.234375 C 0.171875 3.109375 0.0703125 3.851562 0.3125 4.46875 C 0.5625 5.082031 1.019531 5.597656 1.6875 6.015625 C 2.351562 6.441406 3.398438 7.007812 4.828125 7.71875 L 26.421875 18.359375 C 27.578125 18.921875 28.539062 19.445312 29.3125 19.9375 L 30.71875 16.609375 L 32.640625 17.5625 C 31.742188 19.382812 31.210938 20.734375 31.046875 21.609375 C 30.878906 22.492188 30.890625 23.25 31.078125 23.875 L 30.421875 25.203125 L 16.5 18.34375 C 16.851562 19.832031 16.984375 21.382812 16.890625 23 C 16.796875 24.625 16.441406 26.0625 15.828125 27.3125 C 14.535156 29.9375 12.773438 31.4375 10.546875 31.8125 C 8.316406 32.1875 5.425781 31.515625 1.875 29.796875 L -6.640625 25.65625 C -7.992188 24.988281 -8.992188 24.421875 -9.640625 23.953125 L -10.921875 26.890625 L -12.796875 25.96875 L -8.203125 16.671875 L -6.828125 17.34375 C -7.265625 18.21875 -7.359375 18.953125 -7.109375 19.546875 C -6.859375 20.148438 -6.40625 20.660156 -5.75 21.078125 C -5.101562 21.492188 -4.050781 22.0625 -2.59375 22.78125 L 3.796875 25.921875 C 6.410156 27.210938 8.566406 27.765625 10.265625 27.578125 C 11.972656 27.390625 13.257812 26.410156 14.125 24.640625 C 14.675781 23.523438 14.957031 22.28125 14.96875 20.90625 C 14.988281 19.53125 14.753906 18.304688 14.265625 17.234375 L 0.78125 10.59375 C -0.394531 10.007812 -1.390625 9.425781 -2.203125 8.84375 L -3.46875 11.78125 L -5.34375 10.859375 L -0.765625 1.5625 Z M 0.609375 2.234375 "/></g></g></g><g fill="#000000" fill-opacity="1"><g transform="translate(521.330419, 422.976802)"><g><path d="M -8.484375 11.859375 C -7.234375 9.878906 -5.632812 8.390625 -3.6875 7.390625 C -1.75 6.390625 0.375 5.984375 2.6875 6.171875 C 5.007812 6.359375 7.300781 7.171875 9.5625 8.609375 C 11.5625 9.878906 13.148438 11.53125 14.328125 13.5625 C 15.515625 15.59375 16.113281 17.769531 16.125 20.09375 C 16.132812 22.414062 15.476562 24.625 14.15625 26.71875 C 13.125 28.34375 11.832031 29.582031 10.28125 30.4375 C 8.726562 31.300781 6.992188 31.671875 5.078125 31.546875 C 3.160156 31.421875 1.171875 30.707031 -0.890625 29.40625 L 8.453125 14.109375 C 5.035156 11.898438 2 10.765625 -0.65625 10.703125 C -3.3125 10.648438 -5.410156 11.84375 -6.953125 14.28125 C -7.785156 15.59375 -8.296875 17.160156 -8.484375 18.984375 C -8.679688 20.804688 -8.519531 22.410156 -8 23.796875 L -9.515625 24.28125 C -10.484375 22.144531 -10.816406 19.953125 -10.515625 17.703125 C -10.210938 15.460938 -9.535156 13.515625 -8.484375 11.859375 Z M 3.21875 26.359375 C 4.9375 27.441406 6.660156 27.988281 8.390625 28 C 10.117188 28.007812 11.472656 27.238281 12.453125 25.6875 C 14.710938 22.132812 13.957031 18.703125 10.1875 15.390625 Z M 3.21875 26.359375 "/></g></g></g><g fill="#000000" fill-opacity="1"><g transform="translate(507.014776, 445.108021)"><g/></g></g><g fill="#000000" fill-opacity="1"><g transform="translate(499.699994, 455.122029)"><g><path d="M -8.265625 8.484375 C -5.253906 4.929688 -1.378906 5.191406 3.359375 9.265625 L 14.5625 18.875 L 17.046875 15.84375 L 18.734375 17.265625 C 17.703125 18.535156 17.367188 20.066406 17.734375 21.859375 C 18.097656 23.660156 18.800781 25.359375 19.84375 26.953125 L 18.71875 28.265625 L 13.296875 23.671875 L 7.78125 30.203125 L 6.25 28.90625 L 11.703125 22.328125 C 7.765625 18.953125 5.035156 16.609375 3.515625 15.296875 C 2.003906 13.984375 1.160156 13.25 0.984375 13.09375 C -0.859375 11.53125 -2.410156 10.59375 -3.671875 10.28125 C -4.941406 9.976562 -6.039062 10.367188 -6.96875 11.453125 C -7.539062 12.128906 -7.894531 12.972656 -8.03125 13.984375 C -8.175781 14.992188 -8.09375 16.046875 -7.78125 17.140625 L -9.53125 17.453125 C -10.175781 15.171875 -10.320312 13.335938 -9.96875 11.953125 C -9.613281 10.566406 -9.046875 9.410156 -8.265625 8.484375 Z M -8.265625 8.484375 "/></g></g></g><g fill="#000000" fill-opacity="1"><g transform="translate(488.045132, 469.237043)"><g><path d="M -10.9375 9.65625 C -9.269531 8.007812 -7.375 6.914062 -5.25 6.375 C -3.125 5.84375 -0.957031 5.921875 1.25 6.609375 C 3.46875 7.304688 5.515625 8.609375 7.390625 10.515625 C 9.066406 12.203125 10.253906 14.171875 10.953125 16.421875 C 11.648438 18.671875 11.742188 20.925781 11.234375 23.1875 C 10.722656 25.445312 9.585938 27.453125 7.828125 29.203125 C 6.453125 30.554688 4.910156 31.476562 3.203125 31.96875 C 1.503906 32.46875 -0.257812 32.441406 -2.09375 31.890625 C -3.9375 31.347656 -5.710938 30.207031 -7.421875 28.46875 L 5.09375 15.640625 C 2.257812 12.722656 -0.441406 10.941406 -3.015625 10.296875 C -5.597656 9.648438 -7.914062 10.335938 -9.96875 12.359375 C -11.070312 13.453125 -11.921875 14.863281 -12.515625 16.59375 C -13.117188 18.332031 -13.316406 19.9375 -13.109375 21.40625 L -14.6875 21.546875 C -15.164062 19.234375 -15.003906 17.019531 -14.203125 14.90625 C -13.410156 12.789062 -12.320312 11.039062 -10.9375 9.65625 Z M -2.734375 26.390625 C -1.304688 27.835938 0.242188 28.757812 1.921875 29.15625 C 3.609375 29.5625 5.101562 29.117188 6.40625 27.828125 C 9.394531 24.867188 9.421875 21.347656 6.484375 17.265625 Z M -2.734375 26.390625 "/></g></g></g><g fill="#000000" fill-opacity="1"><g transform="translate(469.635881, 487.55345)"><g><path d="M -11.921875 8.578125 C -10.128906 7.128906 -8.15625 6.207031 -6 5.8125 C -3.84375 5.425781 -1.710938 5.648438 0.390625 6.484375 C 2.492188 7.316406 4.390625 8.773438 6.078125 10.859375 C 7.566406 12.710938 8.546875 14.832031 9.015625 17.21875 C 9.484375 19.613281 9.347656 21.957031 8.609375 24.25 C 7.867188 26.550781 6.503906 28.503906 4.515625 30.109375 C 3.097656 31.242188 1.648438 32.03125 0.171875 32.46875 C -1.304688 32.914062 -2.648438 33.019531 -3.859375 32.78125 C -5.078125 32.539062 -6.039062 31.984375 -6.75 31.109375 C -7.238281 30.503906 -7.46875 29.863281 -7.4375 29.1875 C -7.414062 28.519531 -7.101562 27.945312 -6.5 27.46875 C -5.914062 26.988281 -5.320312 26.820312 -4.71875 26.96875 C -4.125 27.125 -3.65625 27.410156 -3.3125 27.828125 C -2.78125 28.484375 -2.550781 29.171875 -2.625 29.890625 C -1.675781 30.472656 -0.664062 30.582031 0.40625 30.21875 C 1.488281 29.851562 2.4375 29.335938 3.25 28.671875 C 4.46875 27.691406 5.289062 26.484375 5.71875 25.046875 C 6.15625 23.617188 6.140625 22.046875 5.671875 20.328125 C 5.203125 18.617188 4.253906 16.875 2.828125 15.09375 C 1.398438 13.320312 -0.148438 11.976562 -1.828125 11.0625 C -3.503906 10.15625 -5.171875 9.726562 -6.828125 9.78125 C -8.492188 9.832031 -10 10.398438 -11.34375 11.484375 C -12.53125 12.441406 -13.4375 13.707031 -14.0625 15.28125 C -14.6875 16.863281 -14.9375 18.40625 -14.8125 19.90625 L -16.484375 19.9375 C -16.734375 17.613281 -16.40625 15.4375 -15.5 13.40625 C -14.59375 11.375 -13.398438 9.765625 -11.921875 8.578125 Z M -11.921875 8.578125 "/></g></g></g><g fill="#000000" fill-opacity="1"><g transform="translate(449.989697, 503.629087)"><g><path d="M -0.625 2.21875 C -1.445312 2.75 -1.910156 3.335938 -2.015625 3.984375 C -2.128906 4.640625 -2.007812 5.320312 -1.65625 6.03125 C -1.300781 6.738281 -0.691406 7.757812 0.171875 9.09375 L 13.203125 29.34375 C 13.890625 30.425781 14.4375 31.378906 14.84375 32.203125 L 17.78125 30.078125 L 18.9375 31.875 C 17.226562 32.96875 16.070312 33.847656 15.46875 34.515625 C 14.875 35.191406 14.488281 35.84375 14.3125 36.46875 L 13.078125 37.265625 L 4.6875 24.21875 C 4.21875 25.6875 3.523438 27.085938 2.609375 28.421875 C 1.691406 29.765625 0.648438 30.8125 -0.515625 31.5625 C -2.972656 33.144531 -5.253906 33.519531 -7.359375 32.6875 C -9.460938 31.863281 -11.585938 29.804688 -13.734375 26.515625 L -18.90625 18.578125 C -19.726562 17.296875 -20.296875 16.289062 -20.609375 15.5625 L -23.21875 17.4375 L -24.34375 15.671875 L -15.625 10.046875 L -14.796875 11.328125 C -15.617188 11.859375 -16.078125 12.441406 -16.171875 13.078125 C -16.265625 13.722656 -16.140625 14.390625 -15.796875 15.078125 C -15.453125 15.773438 -14.835938 16.804688 -13.953125 18.171875 L -10.09375 24.171875 C -8.519531 26.617188 -6.957031 28.203125 -5.40625 28.921875 C -3.851562 29.640625 -2.25 29.46875 -0.59375 28.40625 C 0.445312 27.726562 1.328125 26.800781 2.046875 25.625 C 2.773438 24.457031 3.207031 23.285156 3.34375 22.109375 L -4.78125 9.484375 C -5.5 8.367188 -6.050781 7.351562 -6.4375 6.4375 L -9.0625 8.3125 L -10.1875 6.546875 L -1.453125 0.9375 Z M -0.625 2.21875 "/></g></g></g><g fill="#000000" fill-opacity="1"><g transform="translate(425.925905, 519.241804)"><g><path d="M -1.328125 2.359375 C -2.222656 2.796875 -2.75 3.328125 -2.90625 3.953125 C -3.0625 4.578125 -3.007812 5.234375 -2.75 5.921875 C -2.488281 6.609375 -2 7.71875 -1.28125 9.25 L 3.796875 19.703125 C 4.421875 20.972656 4.84375 21.988281 5.0625 22.75 L 8.21875 20.953125 L 9.15625 22.875 C 7.363281 23.757812 6.179688 24.460938 5.609375 24.984375 C 5.046875 25.515625 4.640625 26.109375 4.390625 26.765625 L 3.078125 27.421875 C 2.722656 26.867188 2.203125 25.96875 1.515625 24.71875 C 0.921875 26.132812 0.109375 27.453125 -0.921875 28.671875 C -1.960938 29.898438 -3.125 30.828125 -4.40625 31.453125 C -7.0625 32.765625 -9.40625 32.890625 -11.4375 31.828125 C -13.46875 30.765625 -15.347656 28.476562 -17.078125 24.96875 L -21.265625 16.46875 C -21.929688 15.113281 -22.378906 14.054688 -22.609375 13.296875 L -25.421875 14.84375 L -26.34375 12.96875 L -17.03125 8.390625 L -16.359375 9.765625 C -17.234375 10.191406 -17.753906 10.71875 -17.921875 11.34375 C -18.085938 11.976562 -18.035156 12.65625 -17.765625 13.375 C -17.503906 14.101562 -17.015625 15.195312 -16.296875 16.65625 L -13.15625 23.046875 C -11.832031 25.640625 -10.4375 27.398438 -8.96875 28.328125 C -7.5 29.253906 -5.878906 29.28125 -4.109375 28.40625 C -3.015625 27.863281 -2.0625 27.050781 -1.25 25.96875 C -0.4375 24.882812 0.0976562 23.734375 0.359375 22.515625 C 0.171875 22.203125 -0.128906 21.617188 -0.546875 20.765625 L -6.265625 9.078125 C -6.929688 7.722656 -7.375 6.660156 -7.59375 5.890625 L -10.40625 7.453125 L -11.328125 5.578125 L -2 0.984375 Z M -1.328125 2.359375 "/></g></g></g><g fill="#000000" fill-opacity="1"><g transform="translate(399.842357, 532.164282)"><g><path d="M -14.265625 4.265625 C -12.054688 3.472656 -9.847656 3.265625 -7.640625 3.640625 C -5.429688 4.023438 -3.457031 4.945312 -1.71875 6.40625 C 0.0078125 7.863281 1.289062 9.757812 2.125 12.09375 C 3.019531 14.582031 3.304688 17.03125 2.984375 19.4375 C 2.671875 21.851562 1.804688 23.972656 0.390625 25.796875 C -1.023438 27.628906 -2.851562 28.945312 -5.09375 29.75 C -7.300781 30.539062 -9.519531 30.734375 -11.75 30.328125 C -13.988281 29.921875 -15.976562 28.984375 -17.71875 27.515625 C -19.457031 26.046875 -20.734375 24.175781 -21.546875 21.90625 C -22.421875 19.476562 -22.6875 17.050781 -22.34375 14.625 C -22.007812 12.207031 -21.132812 10.078125 -19.71875 8.234375 C -18.3125 6.390625 -16.492188 5.066406 -14.265625 4.265625 Z M -13.953125 6.296875 C -16.285156 7.140625 -17.65625 8.71875 -18.0625 11.03125 C -18.476562 13.34375 -18.175781 15.921875 -17.15625 18.765625 C -16 21.992188 -14.40625 24.539062 -12.375 26.40625 C -10.351562 28.269531 -8.144531 28.773438 -5.75 27.921875 C -3.382812 27.066406 -1.957031 25.453125 -1.46875 23.078125 C -0.976562 20.703125 -1.242188 18.097656 -2.265625 15.265625 C -2.992188 13.210938 -3.957031 11.398438 -5.15625 9.828125 C -6.351562 8.253906 -7.710938 7.125 -9.234375 6.4375 C -10.753906 5.757812 -12.328125 5.710938 -13.953125 6.296875 Z M -13.953125 6.296875 "/></g></g></g><g fill="#000000" fill-opacity="1"><g transform="translate(372.96139, 541.536093)"><g><path d="M -1.265625 1.9375 C -2.210938 2.195312 -2.828125 2.613281 -3.109375 3.1875 C -3.398438 3.769531 -3.484375 4.441406 -3.359375 5.203125 C -3.242188 5.960938 -2.972656 7.128906 -2.546875 8.703125 L 3.734375 31.9375 C 4.078125 33.175781 4.316406 34.253906 4.453125 35.171875 L 7.890625 34.03125 L 8.453125 36.09375 C 6.484375 36.625 5.109375 37.117188 4.328125 37.578125 C 3.554688 38.035156 3 38.539062 2.65625 39.09375 L 1.234375 39.46875 L -7.4375 7.59375 C -7.78125 6.3125 -8 5.179688 -8.09375 4.203125 L -11.140625 5.171875 L -11.6875 3.15625 L -1.671875 0.453125 Z M -1.265625 1.9375 "/></g></g></g><g fill="#000000" fill-opacity="1"><g transform="translate(360.936007, 545.180074)"><g><path d="M -14.75 1.90625 C -12.445312 1.476562 -10.238281 1.628906 -8.125 2.359375 C -6.007812 3.085938 -4.210938 4.3125 -2.734375 6.03125 C -1.265625 7.757812 -0.304688 9.84375 0.140625 12.28125 C 0.617188 14.882812 0.507812 17.347656 -0.1875 19.671875 C -0.882812 21.992188 -2.082031 23.941406 -3.78125 25.515625 C -5.476562 27.097656 -7.492188 28.101562 -9.828125 28.53125 C -12.128906 28.957031 -14.351562 28.789062 -16.5 28.03125 C -18.644531 27.269531 -20.453125 26.023438 -21.921875 24.296875 C -23.390625 22.578125 -24.347656 20.53125 -24.796875 18.15625 C -25.265625 15.625 -25.140625 13.1875 -24.421875 10.84375 C -23.703125 8.5 -22.492188 6.53125 -20.796875 4.9375 C -19.097656 3.351562 -17.082031 2.34375 -14.75 1.90625 Z M -14.796875 3.984375 C -17.234375 4.429688 -18.84375 5.757812 -19.625 7.96875 C -20.40625 10.1875 -20.519531 12.78125 -19.96875 15.75 C -19.34375 19.125 -18.179688 21.894531 -16.484375 24.0625 C -14.785156 26.238281 -12.6875 27.09375 -10.1875 26.625 C -7.71875 26.164062 -6.046875 24.800781 -5.171875 22.53125 C -4.296875 20.269531 -4.132812 17.65625 -4.6875 14.6875 C -5.082031 12.550781 -5.738281 10.613281 -6.65625 8.875 C -7.582031 7.132812 -8.742188 5.804688 -10.140625 4.890625 C -11.535156 3.972656 -13.085938 3.671875 -14.796875 3.984375 Z M -14.796875 3.984375 "/></g></g></g><g fill="#000000" fill-opacity="1"><g transform="translate(333.351905, 550.340319)"><g><path d="M -15.5 -12.65625 C -12.59375 -12.875 -10.164062 -12.734375 -8.21875 -12.234375 C -6.269531 -11.742188 -4.816406 -11.003906 -3.859375 -10.015625 C -2.910156 -9.023438 -2.390625 -7.941406 -2.296875 -6.765625 C -2.191406 -5.335938 -2.570312 -4.054688 -3.4375 -2.921875 C -4.300781 -1.796875 -5.328125 -0.929688 -6.515625 -0.328125 C -5.328125 -0.0351562 -4.410156 0.40625 -3.765625 1 C -3.128906 1.59375 -2.773438 2.394531 -2.703125 3.40625 C -2.609375 4.625 -3.003906 5.78125 -3.890625 6.875 C -4.785156 7.96875 -5.953125 8.6875 -7.390625 9.03125 C -5.742188 9.644531 -4.410156 10.585938 -3.390625 11.859375 C -2.367188 13.140625 -1.796875 14.640625 -1.671875 16.359375 C -1.523438 18.316406 -1.90625 20.097656 -2.8125 21.703125 C -3.726562 23.304688 -4.972656 24.59375 -6.546875 25.5625 C -8.128906 26.53125 -9.816406 27.082031 -11.609375 27.21875 C -13.910156 27.394531 -16.109375 26.929688 -18.203125 25.828125 C -18.597656 27.316406 -19.328125 28.5625 -20.390625 29.5625 C -21.460938 30.5625 -22.65625 31.113281 -23.96875 31.21875 C -24.8125 31.28125 -25.488281 31.097656 -26 30.671875 C -26.507812 30.253906 -26.796875 29.65625 -26.859375 28.875 C -26.890625 28.40625 -26.742188 27.925781 -26.421875 27.4375 C -26.109375 26.957031 -25.613281 26.691406 -24.9375 26.640625 C -24.351562 26.597656 -23.84375 26.726562 -23.40625 27.03125 C -22.976562 27.34375 -22.691406 27.75 -22.546875 28.25 C -21.753906 28.082031 -21.144531 27.664062 -20.71875 27 C -20.289062 26.34375 -20.003906 25.570312 -19.859375 24.6875 C -20.773438 23.96875 -21.507812 23.101562 -22.0625 22.09375 C -22.613281 21.082031 -22.9375 20 -23.03125 18.84375 C -23.164062 16.976562 -22.796875 15.257812 -21.921875 13.6875 C -21.054688 12.125 -19.832031 10.859375 -18.25 9.890625 C -16.675781 8.929688 -14.941406 8.378906 -13.046875 8.234375 C -12.617188 8.203125 -12.0625 8.195312 -11.375 8.21875 C -10.863281 8.28125 -10.285156 8.285156 -9.640625 8.234375 C -8.515625 8.148438 -7.59375 7.832031 -6.875 7.28125 C -6.15625 6.726562 -5.820312 6.097656 -5.875 5.390625 C -5.945312 4.398438 -6.609375 3.796875 -7.859375 3.578125 C -9.117188 3.359375 -11.242188 3.3125 -14.234375 3.4375 C -18.410156 3.539062 -21.582031 3.101562 -23.75 2.125 C -25.914062 1.144531 -27.097656 -0.644531 -27.296875 -3.25 C -27.421875 -4.976562 -26.929688 -6.523438 -25.828125 -7.890625 C -24.734375 -9.265625 -23.253906 -10.363281 -21.390625 -11.1875 C -19.535156 -12.007812 -17.570312 -12.5 -15.5 -12.65625 Z M -13.0625 10.078125 C -14.894531 10.210938 -16.242188 10.957031 -17.109375 12.3125 C -17.972656 13.675781 -18.328125 15.390625 -18.171875 17.453125 C -17.984375 19.816406 -17.3125 21.773438 -16.15625 23.328125 C -15.007812 24.878906 -13.507812 25.582031 -11.65625 25.4375 C -9.863281 25.300781 -8.507812 24.523438 -7.59375 23.109375 C -6.675781 21.691406 -6.296875 19.9375 -6.453125 17.84375 C -6.640625 15.382812 -7.320312 13.4375 -8.5 12 C -9.6875 10.570312 -11.207031 9.929688 -13.0625 10.078125 Z M -15.296875 -10.6875 C -17.160156 -10.550781 -18.773438 -10.179688 -20.140625 -9.578125 C -21.503906 -8.972656 -22.53125 -8.226562 -23.21875 -7.34375 C -23.90625 -6.46875 -24.210938 -5.535156 -24.140625 -4.546875 C -24.003906 -2.816406 -23.09375 -1.691406 -21.40625 -1.171875 C -19.71875 -0.660156 -17.253906 -0.476562 -14.015625 -0.625 C -11.890625 -0.71875 -10.140625 -0.710938 -8.765625 -0.609375 C -7.910156 -1.296875 -7.257812 -2.09375 -6.8125 -3 C -6.363281 -3.914062 -6.175781 -4.867188 -6.25 -5.859375 C -6.375 -7.503906 -7.257812 -8.769531 -8.90625 -9.65625 C -10.5625 -10.539062 -12.691406 -10.882812 -15.296875 -10.6875 Z M -15.296875 -10.6875 "/></g></g></g><g fill="#000000" fill-opacity="1"><g transform="translate(306.918842, 552.400521)"><g><path d="M -5.796875 -13.953125 C -4.679688 -13.929688 -3.769531 -13.632812 -3.0625 -13.0625 C -2.363281 -12.5 -2.03125 -11.726562 -2.0625 -10.75 C -2.070312 -10.101562 -2.296875 -9.539062 -2.734375 -9.0625 C -3.171875 -8.582031 -3.726562 -8.351562 -4.40625 -8.375 C -5.09375 -8.394531 -5.585938 -8.644531 -5.890625 -9.125 C -6.203125 -9.601562 -6.347656 -10.097656 -6.328125 -10.609375 C -6.316406 -10.910156 -6.296875 -11.144531 -6.265625 -11.3125 C -6.367188 -11.382812 -6.554688 -11.425781 -6.828125 -11.4375 C -7.265625 -11.445312 -7.71875 -11.289062 -8.1875 -10.96875 C -8.65625 -10.644531 -9.082031 -10.164062 -9.46875 -9.53125 C -10.289062 -8.257812 -11.554688 -5.390625 -13.265625 -0.921875 L -5.78125 16.296875 C -4.4375 19.390625 -3.597656 21.75 -3.265625 23.375 L -0.828125 23.34375 L -0.875 25.4375 L -11.40625 25.15625 L -11.375 23.625 L -11.171875 23.625 C -9.566406 23.5625 -8.75 22.90625 -8.71875 21.65625 C -8.695312 20.8125 -9.066406 19.476562 -9.828125 17.65625 L -15.453125 4.734375 C -16.546875 7.585938 -18.113281 11.804688 -20.15625 17.390625 C -21.394531 20.710938 -22.273438 22.566406 -22.796875 22.953125 L -19.296875 22.84375 L -19.34375 24.9375 L -27.328125 24.734375 L -27.296875 23.203125 C -26.128906 22.785156 -25.21875 22.101562 -24.5625 21.15625 C -23.90625 20.21875 -23.175781 18.738281 -22.375 16.71875 L -15.5625 -0.859375 C -14.238281 -4.253906 -13.15625 -6.816406 -12.3125 -8.546875 C -11.476562 -10.273438 -10.546875 -11.617188 -9.515625 -12.578125 C -8.492188 -13.535156 -7.253906 -13.992188 -5.796875 -13.953125 Z M -5.796875 -13.953125 "/></g></g></g><g fill="#000000" fill-opacity="1"><g transform="translate(281.252727, 551.495329)"><g/></g></g><g fill="#000000" fill-opacity="1"><g transform="translate(268.761088, 550.264695)"><g><path d="M -11.921875 29.53125 C -11.203125 29.644531 -10.617188 30.035156 -10.171875 30.703125 C -9.734375 31.367188 -9.578125 32.101562 -9.703125 32.90625 C -9.828125 33.707031 -10.210938 34.363281 -10.859375 34.875 C -11.503906 35.394531 -12.179688 35.601562 -12.890625 35.5 C -13.660156 35.375 -14.253906 34.976562 -14.671875 34.3125 C -15.097656 33.65625 -15.25 32.910156 -15.125 32.078125 C -15 31.273438 -14.613281 30.617188 -13.96875 30.109375 C -13.332031 29.609375 -12.648438 29.414062 -11.921875 29.53125 Z M -2.4375 1.171875 C -3.414062 1.023438 -4.148438 1.160156 -4.640625 1.578125 C -5.128906 1.992188 -5.472656 2.570312 -5.671875 3.3125 C -5.878906 4.0625 -6.101562 5.238281 -6.34375 6.84375 L -8.109375 18.328125 C -8.265625 19.285156 -8.5 20.359375 -8.8125 21.546875 L -5.21875 21.890625 L -5.546875 24.015625 C -7.515625 23.710938 -8.945312 23.613281 -9.84375 23.71875 C -10.738281 23.820312 -11.457031 24.054688 -12 24.421875 L -13.46875 24.1875 L -10.328125 3.859375 C -10.097656 2.359375 -9.859375 1.234375 -9.609375 0.484375 L -12.796875 0.140625 L -12.484375 -1.921875 L -2.203125 -0.34375 Z M -2.4375 1.171875 "/></g></g></g><g fill="#000000" fill-opacity="1"><g transform="translate(255.878616, 548.695633)"><g><path d="M -2.53125 0.953125 C -3.488281 0.722656 -4.226562 0.796875 -4.75 1.171875 C -5.28125 1.554688 -5.664062 2.09375 -5.90625 2.78125 C -6.144531 3.476562 -6.476562 4.644531 -6.90625 6.28125 L -9.6875 17.5625 C -10.019531 18.945312 -10.34375 20 -10.65625 20.71875 L -7.109375 21.375 L -7.609375 23.453125 C -9.546875 22.984375 -10.898438 22.765625 -11.671875 22.796875 C -12.453125 22.835938 -13.144531 23.035156 -13.75 23.390625 L -15.171875 23.046875 C -15.097656 22.390625 -14.925781 21.363281 -14.65625 19.96875 C -16.019531 20.695312 -17.488281 21.191406 -19.0625 21.453125 C -20.644531 21.710938 -22.128906 21.675781 -23.515625 21.34375 C -26.390625 20.644531 -28.269531 19.238281 -29.15625 17.125 C -30.039062 15.019531 -30.023438 12.066406 -29.109375 8.265625 L -26.890625 -0.9375 C -26.535156 -2.414062 -26.195312 -3.515625 -25.875 -4.234375 L -29.03125 -4.84375 L -28.546875 -6.875 L -18.453125 -4.453125 L -18.8125 -2.96875 C -19.769531 -3.195312 -20.507812 -3.117188 -21.03125 -2.734375 C -21.5625 -2.359375 -21.957031 -1.804688 -22.21875 -1.078125 C -22.476562 -0.359375 -22.800781 0.785156 -23.1875 2.359375 L -24.859375 9.28125 C -25.515625 12.132812 -25.566406 14.382812 -25.015625 16.03125 C -24.472656 17.6875 -23.242188 18.742188 -21.328125 19.203125 C -20.140625 19.492188 -18.882812 19.476562 -17.5625 19.15625 C -16.25 18.84375 -15.101562 18.304688 -14.125 17.546875 C -14.070312 17.171875 -13.9375 16.519531 -13.71875 15.59375 L -10.625 2.984375 C -10.269531 1.503906 -9.929688 0.40625 -9.609375 -0.3125 L -12.75 -0.921875 L -12.265625 -2.953125 L -2.171875 -0.53125 Z M -2.53125 0.953125 "/></g></g></g><g fill="#000000" fill-opacity="1"><g transform="translate(227.445871, 541.736977)"><g><path d="M -11.6875 -4.96875 C -10.1875 -4.4375 -8.878906 -3.753906 -7.765625 -2.921875 C -6.660156 -2.085938 -5.765625 -1.207031 -5.078125 -0.28125 L -4.6875 -2.03125 L -2.65625 -1.328125 L -5.265625 7.046875 L -6.765625 6.53125 C -6.367188 5.1875 -6.316406 3.882812 -6.609375 2.625 C -6.910156 1.375 -7.492188 0.269531 -8.359375 -0.6875 C -9.222656 -1.65625 -10.265625 -2.351562 -11.484375 -2.78125 C -12.859375 -3.269531 -14.195312 -3.375 -15.5 -3.09375 C -16.800781 -2.820312 -17.664062 -2.078125 -18.09375 -0.859375 C -18.40625 0.0351562 -18.398438 0.878906 -18.078125 1.671875 C -17.765625 2.472656 -17.285156 3.207031 -16.640625 3.875 C -16.003906 4.550781 -15.078125 5.410156 -13.859375 6.453125 C -12.390625 7.691406 -11.238281 8.769531 -10.40625 9.6875 C -9.582031 10.601562 -8.96875 11.671875 -8.5625 12.890625 C -8.164062 14.117188 -8.222656 15.46875 -8.734375 16.9375 C -9.109375 18 -9.738281 18.960938 -10.625 19.828125 C -11.519531 20.703125 -12.703125 21.296875 -14.171875 21.609375 C -15.648438 21.921875 -17.394531 21.722656 -19.40625 21.015625 C -20.394531 20.671875 -21.351562 20.15625 -22.28125 19.46875 C -23.207031 18.78125 -23.992188 17.914062 -24.640625 16.875 L -25.171875 18.71875 L -27.1875 18.015625 L -24.234375 9.609375 L -22.703125 10.140625 C -23.253906 12.035156 -23.25 13.84375 -22.6875 15.5625 C -22.132812 17.289062 -20.914062 18.488281 -19.03125 19.15625 C -17.582031 19.664062 -16.304688 19.707031 -15.203125 19.28125 C -14.109375 18.863281 -13.382812 18.160156 -13.03125 17.171875 C -12.707031 16.234375 -12.710938 15.347656 -13.046875 14.515625 C -13.390625 13.679688 -13.894531 12.894531 -14.5625 12.15625 C -15.238281 11.414062 -16.1875 10.519531 -17.40625 9.46875 C -18.820312 8.21875 -19.941406 7.125 -20.765625 6.1875 C -21.597656 5.25 -22.207031 4.179688 -22.59375 2.984375 C -22.976562 1.785156 -22.929688 0.519531 -22.453125 -0.8125 C -21.910156 -2.351562 -21.0625 -3.515625 -19.90625 -4.296875 C -18.757812 -5.085938 -17.460938 -5.519531 -16.015625 -5.59375 C -14.578125 -5.675781 -13.132812 -5.46875 -11.6875 -4.96875 Z M -11.6875 -4.96875 "/></g></g></g><g fill="#000000" fill-opacity="1"><g transform="translate(206.611764, 534.671812)"><g><path d="M 3.25 -11.125 C 2.363281 -11.539062 1.617188 -11.613281 1.015625 -11.34375 C 0.421875 -11.082031 -0.0546875 -10.632812 -0.421875 -10 C -0.796875 -9.363281 -1.359375 -8.285156 -2.109375 -6.765625 L -12.625 15.4375 C -13.226562 16.71875 -13.753906 17.6875 -14.203125 18.34375 L -10.84375 19.6875 L -11.75 21.640625 C -13.570312 20.785156 -14.863281 20.300781 -15.625 20.1875 C -16.394531 20.070312 -17.097656 20.125 -17.734375 20.34375 L -19.109375 19.703125 C -18.523438 18.140625 -18.203125 17.285156 -18.140625 17.140625 C -19.441406 17.535156 -20.859375 17.679688 -22.390625 17.578125 C -23.929688 17.484375 -25.328125 17.140625 -26.578125 16.546875 C -28.390625 15.703125 -29.84375 14.453125 -30.9375 12.796875 C -32.03125 11.140625 -32.640625 9.222656 -32.765625 7.046875 C -32.890625 4.867188 -32.421875 2.644531 -31.359375 0.375 C -30.171875 -2.175781 -28.570312 -4.191406 -26.5625 -5.671875 C -24.5625 -7.148438 -22.40625 -8.019531 -20.09375 -8.28125 C -17.78125 -8.539062 -15.578125 -8.179688 -13.484375 -7.203125 C -11.359375 -6.210938 -9.75 -4.84375 -8.65625 -3.09375 L -5.078125 -10.734375 C -4.429688 -12.117188 -3.878906 -13.140625 -3.421875 -13.796875 L -6.390625 -15.015625 L -5.515625 -16.921875 L 3.890625 -12.515625 Z M -14.25 -5.328125 C -15.695312 -6.003906 -17.15625 -6.144531 -18.625 -5.75 C -20.101562 -5.351562 -21.507812 -4.488281 -22.84375 -3.15625 C -24.175781 -1.832031 -25.316406 -0.15625 -26.265625 1.875 C -27.554688 4.632812 -28.0625 7.25 -27.78125 9.71875 C -27.5 12.1875 -26.191406 13.96875 -23.859375 15.0625 C -22.835938 15.539062 -21.734375 15.753906 -20.546875 15.703125 C -19.367188 15.660156 -18.257812 15.441406 -17.21875 15.046875 C -17.144531 14.816406 -16.71875 13.867188 -15.9375 12.203125 L -9.703125 -1 C -10.710938 -2.9375 -12.226562 -4.378906 -14.25 -5.328125 Z M -14.25 -5.328125 "/></g></g></g><g fill="#000000" fill-opacity="1"><g transform="translate(180.432518, 522.114045)"><g><path d="M -21.734375 23.265625 C -21.109375 23.617188 -20.707031 24.1875 -20.53125 24.96875 C -20.363281 25.757812 -20.484375 26.503906 -20.890625 27.203125 C -21.296875 27.910156 -21.894531 28.390625 -22.6875 28.640625 C -23.476562 28.890625 -24.179688 28.84375 -24.796875 28.5 C -25.472656 28.101562 -25.890625 27.515625 -26.046875 26.734375 C -26.203125 25.960938 -26.070312 25.207031 -25.65625 24.46875 C -25.25 23.769531 -24.65625 23.300781 -23.875 23.0625 C -23.09375 22.832031 -22.378906 22.898438 -21.734375 23.265625 Z M -2.703125 0.21875 C -3.554688 -0.269531 -4.289062 -0.40625 -4.90625 -0.1875 C -5.519531 0.0195312 -6.050781 0.429688 -6.5 1.046875 C -6.957031 1.671875 -7.585938 2.6875 -8.390625 4.09375 L -14.171875 14.171875 C -14.660156 15.015625 -15.265625 15.9375 -15.984375 16.9375 L -12.75 18.5625 L -13.8125 20.40625 C -15.550781 19.40625 -16.859375 18.789062 -17.734375 18.5625 C -18.609375 18.34375 -19.359375 18.3125 -19.984375 18.46875 L -21.265625 17.71875 L -11.03125 -0.125 C -10.269531 -1.4375 -9.640625 -2.394531 -9.140625 -3 L -12 -4.46875 L -10.953125 -6.28125 L -1.9375 -1.109375 Z M -2.703125 0.21875 "/></g></g></g><g fill="#000000" fill-opacity="1"><g transform="translate(168.886222, 515.692151)"><g><path d="M -2.703125 0.046875 C -3.523438 -0.503906 -4.25 -0.691406 -4.875 -0.515625 C -5.5 -0.347656 -6.054688 0.0234375 -6.546875 0.609375 C -7.046875 1.203125 -7.75 2.175781 -8.65625 3.53125 L -15.09375 13.1875 C -15.882812 14.363281 -16.546875 15.238281 -17.078125 15.8125 L -14 17.703125 L -15.15625 19.4375 L -16.46875 18.5625 C -17.539062 17.84375 -18.378906 17.410156 -18.984375 17.265625 C -19.585938 17.128906 -20.238281 17.117188 -20.9375 17.234375 L -22.15625 16.421875 C -21.53125 15.242188 -20.664062 13.800781 -19.5625 12.09375 C -21.039062 12.78125 -22.738281 13.132812 -24.65625 13.15625 C -26.570312 13.1875 -28.234375 12.734375 -29.640625 11.796875 C -30.492188 11.222656 -31.050781 10.519531 -31.3125 9.6875 C -31.570312 8.863281 -31.410156 8.015625 -30.828125 7.140625 C -30.523438 6.691406 -30.046875 6.359375 -29.390625 6.140625 C -28.734375 5.921875 -28.082031 6.03125 -27.4375 6.46875 C -26.8125 6.882812 -26.457031 7.457031 -26.375 8.1875 C -26.289062 8.914062 -26.507812 9.578125 -27.03125 10.171875 C -25.976562 10.921875 -24.625 11.226562 -22.96875 11.09375 C -21.320312 10.96875 -19.644531 10.453125 -17.9375 9.546875 L -11.03125 -0.890625 C -10.1875 -2.148438 -9.492188 -3.066406 -8.953125 -3.640625 L -11.703125 -5.296875 L -10.546875 -7.03125 L -1.859375 -1.234375 Z M -2.703125 0.046875 "/></g></g></g><g fill="#000000" fill-opacity="1"><g transform="translate(151.656138, 504.425934)"><g><path d="M -10.796875 -9.78125 C -8.984375 -8.3125 -7.691406 -6.554688 -6.921875 -4.515625 C -6.148438 -2.472656 -5.988281 -0.3125 -6.4375 1.96875 C -6.882812 4.25 -7.945312 6.425781 -9.625 8.5 C -11.125 10.351562 -12.953125 11.75 -15.109375 12.6875 C -17.265625 13.625 -19.5 13.96875 -21.8125 13.71875 C -24.125 13.46875 -26.242188 12.5625 -28.171875 11 C -29.660156 9.789062 -30.742188 8.363281 -31.421875 6.71875 C -32.109375 5.070312 -32.273438 3.304688 -31.921875 1.421875 C -31.578125 -0.460938 -30.640625 -2.351562 -29.109375 -4.25 L -14.984375 6.78125 C -12.398438 3.644531 -10.925781 0.765625 -10.5625 -1.859375 C -10.207031 -4.492188 -11.148438 -6.71875 -13.390625 -8.53125 C -14.597656 -9.507812 -16.09375 -10.203125 -17.875 -10.609375 C -19.664062 -11.015625 -21.285156 -11.035156 -22.734375 -10.671875 L -23.03125 -12.234375 C -20.800781 -12.953125 -18.585938 -13.03125 -16.390625 -12.46875 C -14.191406 -11.914062 -12.328125 -11.019531 -10.796875 -9.78125 Z M -26.546875 0.1875 C -27.828125 1.757812 -28.570312 3.40625 -28.78125 5.125 C -28.988281 6.84375 -28.378906 8.273438 -26.953125 9.421875 C -23.679688 12.078125 -20.179688 11.722656 -16.453125 8.359375 Z M -26.546875 0.1875 "/></g></g></g><g fill="#000000" fill-opacity="1"><g transform="translate(131.412829, 488.017882)"><g><path d="M -8.484375 -9.453125 C -7.347656 -8.335938 -6.453125 -7.164062 -5.796875 -5.9375 C -5.148438 -4.707031 -4.71875 -3.53125 -4.5 -2.40625 L -3.390625 -3.8125 L -1.859375 -2.3125 L -7.765625 4.140625 L -8.890625 3.03125 C -7.972656 2 -7.378906 0.851562 -7.109375 -0.40625 C -6.835938 -1.675781 -6.890625 -2.929688 -7.265625 -4.171875 C -7.640625 -5.410156 -8.285156 -6.476562 -9.203125 -7.375 C -10.242188 -8.394531 -11.414062 -9.054688 -12.71875 -9.359375 C -14.019531 -9.671875 -15.117188 -9.367188 -16.015625 -8.453125 C -16.679688 -7.773438 -17.039062 -7.003906 -17.09375 -6.140625 C -17.144531 -5.285156 -17.023438 -4.414062 -16.734375 -3.53125 C -16.441406 -2.65625 -15.960938 -1.488281 -15.296875 -0.03125 C -14.484375 1.707031 -13.894531 3.171875 -13.53125 4.359375 C -13.175781 5.546875 -13.078125 6.773438 -13.234375 8.046875 C -13.390625 9.328125 -14.015625 10.523438 -15.109375 11.640625 C -15.890625 12.441406 -16.867188 13.046875 -18.046875 13.453125 C -19.222656 13.867188 -20.539062 13.90625 -22 13.5625 C -23.46875 13.21875 -24.960938 12.300781 -26.484375 10.8125 C -27.242188 10.070312 -27.894531 9.191406 -28.4375 8.171875 C -28.976562 7.160156 -29.320312 6.046875 -29.46875 4.828125 L -30.75 6.265625 L -32.265625 4.78125 L -26.03125 -1.578125 L -24.875 -0.4375 C -26.164062 1.039062 -26.925781 2.679688 -27.15625 4.484375 C -27.382812 6.285156 -26.785156 7.882812 -25.359375 9.28125 C -24.265625 10.351562 -23.128906 10.929688 -21.953125 11.015625 C -20.773438 11.109375 -19.816406 10.78125 -19.078125 10.03125 C -18.390625 9.320312 -18.019531 8.515625 -17.96875 7.609375 C -17.914062 6.710938 -18.039062 5.785156 -18.34375 4.828125 C -18.644531 3.867188 -19.125 2.660156 -19.78125 1.203125 C -20.539062 -0.535156 -21.09375 -2.003906 -21.4375 -3.203125 C -21.789062 -4.398438 -21.882812 -5.625 -21.71875 -6.875 C -21.5625 -8.125 -20.988281 -9.253906 -20 -10.265625 C -18.851562 -11.429688 -17.59375 -12.125 -16.21875 -12.34375 C -14.84375 -12.5625 -13.484375 -12.398438 -12.140625 -11.859375 C -10.796875 -11.328125 -9.578125 -10.523438 -8.484375 -9.453125 Z M -8.484375 -9.453125 "/></g></g></g><g fill="#000000" fill-opacity="1"><g transform="translate(115.461707, 472.17751)"><g/></g></g><g fill="#000000" fill-opacity="1"><g transform="translate(107.131399, 463.009523)"><g><path d="M -6.65625 -9.796875 C -3.78125 -6.128906 -4.804688 -2.382812 -9.734375 1.4375 L -21.421875 10.46875 L -18.953125 13.53125 L -20.6875 14.890625 C -21.71875 13.609375 -23.148438 12.96875 -24.984375 12.96875 C -26.816406 12.96875 -28.617188 13.320312 -30.390625 14.03125 L -31.453125 12.65625 L -25.875 8.265625 L -31.15625 1.546875 L -29.578125 0.3125 L -24.21875 6.96875 C -20.113281 3.789062 -17.265625 1.59375 -15.671875 0.375 C -14.085938 -0.84375 -13.207031 -1.523438 -13.03125 -1.671875 C -11.132812 -3.160156 -9.898438 -4.492188 -9.328125 -5.671875 C -8.765625 -6.847656 -8.925781 -7.992188 -9.8125 -9.109375 C -10.351562 -9.804688 -11.101562 -10.328125 -12.0625 -10.671875 C -13.03125 -11.023438 -14.082031 -11.160156 -15.21875 -11.078125 L -15.1875 -12.84375 C -12.8125 -13.019531 -10.984375 -12.796875 -9.703125 -12.171875 C -8.421875 -11.546875 -7.40625 -10.753906 -6.65625 -9.796875 Z M -6.65625 -9.796875 "/></g></g></g><g fill="#000000" fill-opacity="1"><g transform="translate(95.632016, 448.882443)"><g><path d="M -2.21875 -0.625 C -2.75 -1.445312 -3.335938 -1.910156 -3.984375 -2.015625 C -4.640625 -2.128906 -5.320312 -2.007812 -6.03125 -1.65625 C -6.738281 -1.300781 -7.757812 -0.691406 -9.09375 0.171875 L -29.34375 13.203125 C -30.414062 13.898438 -31.363281 14.453125 -32.1875 14.859375 L -30.0625 17.796875 L -31.859375 18.953125 C -32.960938 17.242188 -33.847656 16.085938 -34.515625 15.484375 C -35.179688 14.890625 -35.828125 14.503906 -36.453125 14.328125 L -37.25 13.09375 L -24.203125 4.703125 C -25.679688 4.242188 -27.085938 3.550781 -28.421875 2.625 C -29.753906 1.707031 -30.796875 0.664062 -31.546875 -0.5 C -33.140625 -2.957031 -33.519531 -5.234375 -32.6875 -7.328125 C -31.863281 -9.429688 -29.8125 -11.566406 -26.53125 -13.734375 L -18.578125 -18.890625 C -17.296875 -19.710938 -16.289062 -20.28125 -15.5625 -20.59375 L -17.4375 -23.203125 L -15.671875 -24.34375 L -10.0625 -15.625 L -11.34375 -14.796875 C -11.875 -15.617188 -12.457031 -16.078125 -13.09375 -16.171875 C -13.738281 -16.265625 -14.40625 -16.132812 -15.09375 -15.78125 C -15.789062 -15.4375 -16.820312 -14.828125 -18.1875 -13.953125 L -24.1875 -10.09375 C -26.632812 -8.507812 -28.210938 -6.941406 -28.921875 -5.390625 C -29.640625 -3.835938 -29.46875 -2.234375 -28.40625 -0.578125 C -27.726562 0.472656 -26.800781 1.359375 -25.625 2.078125 C -24.457031 2.796875 -23.285156 3.21875 -22.109375 3.34375 L -9.484375 -4.78125 C -8.367188 -5.5 -7.359375 -6.050781 -6.453125 -6.4375 L -8.328125 -9.046875 L -6.5625 -10.1875 L -0.9375 -1.453125 Z M -2.21875 -0.625 "/></g></g></g><g fill="#000000" fill-opacity="1"><g transform="translate(80.036641, 424.688758)"><g><path d="M -5.796875 -13.375 C -4.753906 -11.28125 -4.300781 -9.140625 -4.4375 -6.953125 C -4.582031 -4.773438 -5.328125 -2.742188 -6.671875 -0.859375 C -8.015625 1.023438 -9.882812 2.566406 -12.28125 3.765625 C -14.40625 4.828125 -16.644531 5.34375 -19 5.3125 C -21.351562 5.28125 -23.523438 4.671875 -25.515625 3.484375 C -27.515625 2.296875 -29.070312 0.59375 -30.1875 -1.625 C -31.050781 -3.34375 -31.453125 -5.085938 -31.390625 -6.859375 C -31.328125 -8.640625 -30.75 -10.316406 -29.65625 -11.890625 C -28.5625 -13.472656 -26.925781 -14.8125 -24.75 -15.90625 L -16.4375 -0.015625 C -12.789062 -1.804688 -10.257812 -3.820312 -8.84375 -6.0625 C -7.425781 -8.3125 -7.363281 -10.726562 -8.65625 -13.3125 C -9.351562 -14.695312 -10.429688 -15.941406 -11.890625 -17.046875 C -13.359375 -18.160156 -14.820312 -18.847656 -16.28125 -19.109375 L -15.921875 -20.65625 C -13.585938 -20.394531 -11.535156 -19.550781 -9.765625 -18.125 C -8.003906 -16.707031 -6.679688 -15.125 -5.796875 -13.375 Z M -24.25 -10.796875 C -26.0625 -9.890625 -27.414062 -8.695312 -28.3125 -7.21875 C -29.207031 -5.75 -29.242188 -4.191406 -28.421875 -2.546875 C -26.535156 1.210938 -23.207031 2.332031 -18.4375 0.8125 Z M -24.25 -10.796875 "/></g></g></g><g fill="#000000" fill-opacity="1"><g transform="translate(68.429184, 401.009873)"><g/></g></g><g fill="#000000" fill-opacity="1"><g transform="translate(63.5468, 389.822521)"><g><path d="M -2.125 -9.15625 C -1.363281 -6.800781 -1.3125 -4.832031 -1.96875 -3.25 C -2.625 -1.664062 -3.804688 -0.59375 -5.515625 -0.03125 C -7.378906 0.570312 -9.203125 0.335938 -10.984375 -0.734375 C -12.765625 -1.816406 -14.335938 -3.390625 -15.703125 -5.453125 C -17.078125 -7.523438 -18.125 -9.710938 -18.84375 -12.015625 L -21.84375 -11.03125 C -23.9375 -10.351562 -25.46875 -9.515625 -26.4375 -8.515625 C -27.414062 -7.515625 -27.582031 -6.015625 -26.9375 -4.015625 C -26.613281 -3.015625 -26.09375 -2.128906 -25.375 -1.359375 C -24.664062 -0.597656 -23.828125 -0.144531 -22.859375 0 C -22.535156 -0.570312 -21.988281 -0.984375 -21.21875 -1.234375 C -20.726562 -1.390625 -20.207031 -1.359375 -19.65625 -1.140625 C -19.101562 -0.921875 -18.71875 -0.476562 -18.5 0.1875 C -18.28125 0.863281 -18.320312 1.46875 -18.625 2 C -18.9375 2.53125 -19.453125 2.910156 -20.171875 3.140625 C -21.222656 3.484375 -22.328125 3.382812 -23.484375 2.84375 C -24.648438 2.3125 -25.726562 1.394531 -26.71875 0.09375 C -27.71875 -1.195312 -28.507812 -2.742188 -29.09375 -4.546875 C -29.976562 -7.265625 -29.910156 -9.5 -28.890625 -11.25 C -27.878906 -13 -25.816406 -14.363281 -22.703125 -15.34375 L -11.796875 -18.84375 C -10.765625 -19.175781 -9.648438 -19.472656 -8.453125 -19.734375 L -9.765625 -23.09375 L -7.734375 -23.75 L -5.484375 -16.828125 C -5.941406 -16.585938 -6.828125 -16.175781 -8.140625 -15.59375 C -5.015625 -14.007812 -3.007812 -11.863281 -2.125 -9.15625 Z M -5.25 -9.375 C -5.644531 -10.601562 -6.238281 -11.640625 -7.03125 -12.484375 C -7.832031 -13.328125 -8.882812 -14.109375 -10.1875 -14.828125 C -10.664062 -14.640625 -11.484375 -14.359375 -12.640625 -13.984375 L -17.203125 -12.546875 C -16.234375 -9.929688 -14.921875 -7.75 -13.265625 -6 C -11.617188 -4.25 -9.773438 -3.707031 -7.734375 -4.375 C -6.546875 -4.757812 -5.742188 -5.410156 -5.328125 -6.328125 C -4.910156 -7.253906 -4.882812 -8.269531 -5.25 -9.375 Z M -5.25 -9.375 "/></g></g></g><g fill="#000000" fill-opacity="1"><g transform="translate(55.892367, 366.22224)"><g><path d="M -2 -1.828125 C -2.21875 -2.796875 -2.609375 -3.429688 -3.171875 -3.734375 C -3.742188 -4.035156 -4.410156 -4.140625 -5.171875 -4.046875 C -5.941406 -3.960938 -7.125 -3.742188 -8.71875 -3.390625 L -20.03125 -0.796875 C -21.40625 -0.472656 -22.488281 -0.289062 -23.28125 -0.25 L -22.34375 3.234375 L -24.359375 3.703125 L -24.71875 2.15625 C -25 0.90625 -25.3125 0.0195312 -25.65625 -0.5 C -26 -1.019531 -26.460938 -1.46875 -27.046875 -1.84375 L -27.375 -3.28125 C -26.113281 -3.71875 -24.5 -4.175781 -22.53125 -4.65625 C -24.070312 -5.175781 -25.546875 -6.082031 -26.953125 -7.375 C -28.367188 -8.675781 -29.269531 -10.148438 -29.65625 -11.796875 C -29.875 -12.785156 -29.789062 -13.671875 -29.40625 -14.453125 C -29.019531 -15.234375 -28.316406 -15.742188 -27.296875 -15.984375 C -26.765625 -16.097656 -26.1875 -16.007812 -25.5625 -15.71875 C -24.945312 -15.4375 -24.554688 -14.914062 -24.390625 -14.15625 C -24.222656 -13.425781 -24.359375 -12.765625 -24.796875 -12.171875 C -25.234375 -11.585938 -25.84375 -11.257812 -26.625 -11.1875 C -26.375 -9.914062 -25.601562 -8.757812 -24.3125 -7.71875 C -23.03125 -6.675781 -21.457031 -5.894531 -19.59375 -5.375 L -7.40625 -8.21875 C -5.925781 -8.5625 -4.789062 -8.753906 -4 -8.796875 L -4.875 -11.890625 L -2.828125 -12.359375 L -0.5 -2.171875 Z M -2 -1.828125 "/></g></g></g><g fill="#000000" fill-opacity="1"><g transform="translate(51.247515, 345.940889)"><g><path d="M -0.9375 -11.8125 C -0.25 -7.207031 -2.992188 -4.46875 -9.171875 -3.59375 L -23.796875 -1.515625 L -23.15625 2.375 L -25.328125 2.6875 C -25.597656 1.070312 -26.53125 -0.1875 -28.125 -1.09375 C -29.71875 -2 -31.457031 -2.59375 -33.34375 -2.875 L -33.59375 -4.578125 L -26.5625 -5.625 L -27.8125 -14.078125 L -25.84375 -14.359375 L -24.5 -5.921875 C -19.363281 -6.648438 -15.800781 -7.148438 -13.8125 -7.421875 C -11.820312 -7.703125 -10.71875 -7.859375 -10.5 -7.890625 C -8.101562 -8.242188 -6.367188 -8.789062 -5.296875 -9.53125 C -4.234375 -10.28125 -3.8125 -11.363281 -4.03125 -12.78125 C -4.15625 -13.65625 -4.546875 -14.476562 -5.203125 -15.25 C -5.859375 -16.03125 -6.703125 -16.664062 -7.734375 -17.15625 L -6.828125 -18.671875 C -4.691406 -17.660156 -3.21875 -16.566406 -2.40625 -15.390625 C -1.601562 -14.210938 -1.113281 -13.019531 -0.9375 -11.8125 Z M -0.9375 -11.8125 "/></g></g></g><g fill="#000000" fill-opacity="1"><g transform="translate(48.561927, 327.410516)"><g/></g></g><g fill="#000000" fill-opacity="1"><g transform="translate(47.466692, 314.852463)"><g><path d="M -13.65625 -5.859375 C -13.625 -5.046875 -13.910156 -4.335938 -14.515625 -3.734375 C -15.117188 -3.128906 -15.878906 -2.8125 -16.796875 -2.78125 C -17.710938 -2.738281 -18.503906 -3.003906 -19.171875 -3.578125 C -19.835938 -4.148438 -20.1875 -4.84375 -20.21875 -5.65625 C -20.257812 -6.507812 -19.96875 -7.222656 -19.34375 -7.796875 C -18.71875 -8.378906 -17.945312 -8.691406 -17.03125 -8.734375 C -16.113281 -8.765625 -15.328125 -8.492188 -14.671875 -7.921875 C -14.023438 -7.359375 -13.6875 -6.671875 -13.65625 -5.859375 Z M -13.65625 -5.859375 "/></g></g></g></svg>