<svg xmlns="http://www.w3.org/2000/svg" xmlns:xlink="http://www.w3.org/1999/xlink" width="800" zoomAndPan="magnify" viewBox="0 0 600 599.999999" height="800" preserveAspectRatio="xMidYMid meet" version="1.0"><defs><g/></defs><g fill="#000000" fill-opacity="1"><g transform="translate(67.529707, 294.72985)"><g><path d="M -36.78125 -14.96875 L -39.828125 -14.546875 C -43.703125 -14.078125 -46.207031 -13.828125 -47.34375 -13.796875 L -47.96875 -9.640625 L -51.1875 -10.25 L -47.796875 -28.0625 L -45.390625 -27.609375 C -45.660156 -25.585938 -45.59375 -24.109375 -45.1875 -23.171875 C -44.789062 -22.234375 -43.957031 -21.640625 -42.6875 -21.390625 C -41.519531 -21.171875 -40.054688 -21.148438 -38.296875 -21.328125 C -34.867188 -21.585938 -30.984375 -22.0625 -26.640625 -22.75 C -25.867188 -22.863281 -24.945312 -22.992188 -23.875 -23.140625 C -22.800781 -23.296875 -21.566406 -23.46875 -20.171875 -23.65625 C -19.085938 -23.75 -17.894531 -23.894531 -16.59375 -24.09375 C -15.289062 -24.300781 -14.351562 -24.457031 -13.78125 -24.5625 C -10.945312 -25.039062 -8.703125 -25.375 -7.046875 -25.5625 L -7.03125 -25.703125 C -10.164062 -27.316406 -13.195312 -28.9375 -16.125 -30.5625 C -21.457031 -33.394531 -27.078125 -36.457031 -32.984375 -39.75 C -39.148438 -43.207031 -43 -45.304688 -44.53125 -46.046875 L -44.09375 -48.390625 C -41.96875 -48.609375 -38.632812 -49.015625 -34.09375 -49.609375 C -29.5625 -50.210938 -26.28125 -50.65625 -24.25 -50.9375 C -19.769531 -51.59375 -16.597656 -52.019531 -14.734375 -52.21875 C -13.335938 -52.363281 -11.238281 -52.625 -8.4375 -53 C -5.414062 -53.4375 -2.851562 -53.753906 -0.75 -53.953125 L -0.703125 -54.171875 C -4.285156 -56.078125 -7.242188 -57.679688 -9.578125 -58.984375 C -16.191406 -62.816406 -21.910156 -66.003906 -26.734375 -68.546875 C -28.441406 -69.429688 -29.863281 -70.210938 -31 -70.890625 C -33.3125 -72.273438 -34.953125 -73.367188 -35.921875 -74.171875 L -36.8125 -68.265625 L -40.03125 -68.875 L -37.203125 -83.75 L -34.796875 -83.296875 C -34.921875 -81.492188 -34.800781 -80.085938 -34.4375 -79.078125 C -34.070312 -78.078125 -33.257812 -77.09375 -32 -76.125 C -30.75 -75.15625 -28.640625 -73.828125 -25.671875 -72.140625 L -15.25 -66.28125 C -4.132812 -60.125 4.472656 -55.226562 10.578125 -51.59375 L 10.15625 -49.390625 L -31.65625 -43.140625 L 5.09375 -22.796875 L 4.6875 -20.671875 Z M -36.78125 -14.96875 "/></g></g></g><g fill="#000000" fill-opacity="1"><g transform="translate(81.461358, 227.353143)"><g><path d="M -1 -3.234375 C -0.40625 -4.554688 -0.304688 -5.65625 -0.703125 -6.53125 C -1.097656 -7.414062 -1.789062 -8.148438 -2.78125 -8.734375 C -3.769531 -9.316406 -5.332031 -10.085938 -7.46875 -11.046875 L -39.65625 -25.46875 C -41.375 -26.238281 -42.820312 -26.960938 -44 -27.640625 L -45.875 -22.6875 L -48.75 -23.984375 C -47.53125 -26.703125 -46.816406 -28.710938 -46.609375 -30.015625 C -46.410156 -31.316406 -46.46875 -32.414062 -46.78125 -33.3125 L -45.90625 -35.28125 L -25.140625 -25.984375 C -25.734375 -28.148438 -26 -30.421875 -25.9375 -32.796875 C -25.882812 -35.171875 -25.441406 -37.289062 -24.609375 -39.15625 C -22.859375 -43.050781 -20.363281 -45.335938 -17.125 -46.015625 C -13.882812 -46.691406 -9.625 -45.863281 -4.34375 -43.53125 L 8.34375 -37.9375 C 10.382812 -37.019531 11.890625 -36.238281 12.859375 -35.59375 L 14.5625 -39.96875 L 17.359375 -38.71875 L 11.140625 -24.84375 L 9.109375 -25.765625 C 9.703125 -27.078125 9.789062 -28.160156 9.375 -29.015625 C 8.96875 -29.878906 8.28125 -30.597656 7.3125 -31.171875 C 6.34375 -31.742188 4.769531 -32.519531 2.59375 -33.5 L -6.9375 -37.765625 C -10.832031 -39.515625 -14.019531 -40.207031 -16.5 -39.84375 C -18.976562 -39.476562 -20.8125 -37.984375 -22 -35.359375 C -22.75 -33.679688 -23.097656 -31.835938 -23.046875 -29.828125 C -22.992188 -27.816406 -22.578125 -26.035156 -21.796875 -24.484375 L -1.734375 -15.484375 C 0.0351562 -14.691406 1.535156 -13.882812 2.765625 -13.0625 L 4.46875 -17.453125 L 7.265625 -16.203125 L 1.03125 -2.3125 Z M -1 -3.234375 "/></g></g></g><g fill="#000000" fill-opacity="1"><g transform="translate(98.148131, 189.984275)"><g><path d="M 8.5625 -10.78125 C 6.5625 -7.757812 4.347656 -5.898438 1.921875 -5.203125 C -0.503906 -4.515625 -2.816406 -4.898438 -5.015625 -6.359375 C -7.410156 -7.941406 -8.796875 -10.242188 -9.171875 -13.265625 C -9.554688 -16.296875 -9.1875 -19.539062 -8.0625 -23 C -6.9375 -26.457031 -5.382812 -29.644531 -3.40625 -32.5625 L -7.25 -35.125 C -9.945312 -36.90625 -12.3125 -37.898438 -14.34375 -38.109375 C -16.375 -38.328125 -18.238281 -37.148438 -19.9375 -34.578125 C -20.789062 -33.296875 -21.332031 -31.894531 -21.5625 -30.375 C -21.800781 -28.863281 -21.554688 -27.476562 -20.828125 -26.21875 C -19.890625 -26.375 -18.925781 -26.125 -17.9375 -25.46875 C -17.3125 -25.050781 -16.867188 -24.425781 -16.609375 -23.59375 C -16.359375 -22.769531 -16.519531 -21.925781 -17.09375 -21.0625 C -17.664062 -20.1875 -18.394531 -19.679688 -19.28125 -19.546875 C -20.175781 -19.421875 -21.082031 -19.660156 -22 -20.265625 C -23.375 -21.179688 -24.273438 -22.546875 -24.703125 -24.359375 C -25.140625 -26.171875 -25.066406 -28.238281 -24.484375 -30.5625 C -23.898438 -32.894531 -22.835938 -35.222656 -21.296875 -37.546875 C -19.003906 -41.023438 -16.382812 -42.976562 -13.4375 -43.40625 C -10.488281 -43.84375 -7.035156 -42.726562 -3.078125 -40.0625 L 10.859375 -30.734375 C 12.191406 -29.859375 13.550781 -28.84375 14.9375 -27.6875 L 17.609375 -32.25 L 20.21875 -30.53125 L 14.328125 -21.640625 C 13.617188 -21.929688 12.34375 -22.566406 10.5 -23.546875 C 11.507812 -18.515625 10.863281 -14.257812 8.5625 -10.78125 Z M 5.96875 -14.5625 C 7.007812 -16.132812 7.65625 -17.757812 7.90625 -19.4375 C 8.164062 -21.125 8.109375 -23.039062 7.734375 -25.1875 C 7.078125 -25.5625 6.003906 -26.242188 4.515625 -27.234375 L -1.28125 -31.15625 C -3.40625 -27.6875 -4.710938 -24.207031 -5.203125 -20.71875 C -5.691406 -17.226562 -4.628906 -14.617188 -2.015625 -12.890625 C -0.492188 -11.878906 0.984375 -11.550781 2.421875 -11.90625 C 3.859375 -12.269531 5.039062 -13.15625 5.96875 -14.5625 Z M 5.96875 -14.5625 "/></g></g></g><g fill="#000000" fill-opacity="1"><g transform="translate(117.778935, 160.540885)"><g><path d="M 12.265625 -12.25 C 7.785156 -7.113281 2.117188 -7.570312 -4.734375 -13.625 L -20.9375 -27.96875 L -24.65625 -23.5625 L -27.0625 -25.671875 C -25.539062 -27.503906 -25.023438 -29.742188 -25.515625 -32.390625 C -26.015625 -35.035156 -27.023438 -37.539062 -28.546875 -39.90625 L -26.859375 -41.828125 L -18.96875 -34.953125 L -10.734375 -44.40625 L -8.546875 -42.5 L -16.671875 -32.953125 C -10.984375 -27.921875 -7.039062 -24.429688 -4.84375 -22.484375 C -2.644531 -20.535156 -1.414062 -19.445312 -1.15625 -19.21875 C 1.5 -16.894531 3.75 -15.488281 5.59375 -15 C 7.445312 -14.519531 9.0625 -15.0625 10.4375 -16.625 C 11.28125 -17.601562 11.820312 -18.828125 12.0625 -20.296875 C 12.300781 -21.773438 12.207031 -23.332031 11.78125 -24.96875 L 14.328125 -25.40625 C 15.234375 -22.050781 15.410156 -19.359375 14.859375 -17.328125 C 14.304688 -15.296875 13.441406 -13.601562 12.265625 -12.25 Z M 12.265625 -12.25 "/></g></g></g><g fill="#000000" fill-opacity="1"><g transform="translate(135.369725, 140.526584)"><g/></g></g><g fill="#000000" fill-opacity="1"><g transform="translate(148.174031, 128.261687)"><g><path d="M -20.203125 -42.0625 C -21.023438 -41.394531 -22.015625 -41.148438 -23.171875 -41.328125 C -24.335938 -41.515625 -25.296875 -42.066406 -26.046875 -42.984375 C -26.796875 -43.921875 -27.132812 -44.992188 -27.0625 -46.203125 C -26.988281 -47.421875 -26.546875 -48.351562 -25.734375 -49 C -24.847656 -49.71875 -23.828125 -49.976562 -22.671875 -49.78125 C -21.523438 -49.59375 -20.5625 -49.007812 -19.78125 -48.03125 C -19.03125 -47.113281 -18.703125 -46.0625 -18.796875 -44.875 C -18.890625 -43.6875 -19.359375 -42.75 -20.203125 -42.0625 Z M 1.140625 -3.796875 C 2.265625 -4.691406 2.84375 -5.617188 2.875 -6.578125 C 2.90625 -7.535156 2.617188 -8.488281 2.015625 -9.4375 C 1.421875 -10.382812 0.375 -11.785156 -1.125 -13.640625 L -11.8125 -26.890625 C -12.71875 -28.003906 -13.65625 -29.320312 -14.625 -30.84375 L -18.5625 -27.28125 L -20.515625 -29.71875 C -18.234375 -31.550781 -16.707031 -33.003906 -15.9375 -34.078125 C -15.175781 -35.148438 -14.722656 -36.15625 -14.578125 -37.09375 L -12.90625 -38.4375 L 6 -15 C 7.40625 -13.25 8.390625 -11.867188 8.953125 -10.859375 L 12.484375 -14 L 14.40625 -11.609375 L 2.546875 -2.0625 Z M 1.140625 -3.796875 "/></g></g></g><g fill="#000000" fill-opacity="1"><g transform="translate(162.193306, 116.308523)"><g><path d="M 16.265625 -9.015625 C 14.304688 -7.753906 12.34375 -6.859375 10.375 -6.328125 C 8.40625 -5.804688 6.582031 -5.570312 4.90625 -5.625 L 6.5625 -3.578125 L 3.921875 -1.890625 L -3.375 -12.453125 L -1.4375 -13.703125 C -0.238281 -12.035156 1.210938 -10.804688 2.921875 -10.015625 C 4.640625 -9.222656 6.445312 -8.890625 8.34375 -9.015625 C 10.238281 -9.148438 11.988281 -9.726562 13.59375 -10.75 C 15.382812 -11.90625 16.707031 -13.359375 17.5625 -15.109375 C 18.414062 -16.859375 18.332031 -18.53125 17.3125 -20.125 C 16.570312 -21.289062 15.597656 -22.050781 14.390625 -22.40625 C 13.179688 -22.757812 11.894531 -22.867188 10.53125 -22.734375 C 9.175781 -22.597656 7.347656 -22.296875 5.046875 -21.828125 C 2.296875 -21.253906 0.0195312 -20.898438 -1.78125 -20.765625 C -3.59375 -20.640625 -5.382812 -20.894531 -7.15625 -21.53125 C -8.925781 -22.175781 -10.425781 -23.460938 -11.65625 -25.390625 C -12.539062 -26.765625 -13.085938 -28.359375 -13.296875 -30.171875 C -13.515625 -31.984375 -13.140625 -33.878906 -12.171875 -35.859375 C -11.203125 -37.847656 -9.398438 -39.6875 -6.765625 -41.375 C -5.472656 -42.207031 -4.007812 -42.847656 -2.375 -43.296875 C -0.738281 -43.753906 0.96875 -43.875 2.75 -43.65625 L 1.109375 -45.96875 L 3.734375 -47.65625 L 10.78125 -36.671875 L 8.765625 -35.390625 C 7.085938 -37.734375 5 -39.359375 2.5 -40.265625 C 0.0078125 -41.171875 -2.472656 -40.832031 -4.953125 -39.25 C -6.835938 -38.039062 -8.03125 -36.609375 -8.53125 -34.953125 C -9.039062 -33.296875 -8.882812 -31.820312 -8.0625 -30.53125 C -7.28125 -29.3125 -6.253906 -28.519531 -4.984375 -28.15625 C -3.710938 -27.789062 -2.34375 -27.664062 -0.875 -27.78125 C 0.582031 -27.894531 2.460938 -28.179688 4.765625 -28.640625 C 7.503906 -29.160156 9.785156 -29.46875 11.609375 -29.5625 C 13.429688 -29.664062 15.207031 -29.398438 16.9375 -28.765625 C 18.664062 -28.140625 20.097656 -26.945312 21.234375 -25.1875 C 22.515625 -23.175781 23.082031 -21.148438 22.9375 -19.109375 C 22.800781 -17.078125 22.125 -15.1875 20.90625 -13.4375 C 19.695312 -11.695312 18.148438 -10.222656 16.265625 -9.015625 Z M 16.265625 -9.015625 "/></g></g></g><g fill="#000000" fill-opacity="1"><g transform="translate(189.317601, 99.223687)"><g/></g></g><g fill="#000000" fill-opacity="1"><g transform="translate(203.79929, 90.876689)"><g><path d="M 2.359375 -3.1875 C 3.722656 -3.664062 4.578125 -4.347656 4.921875 -5.234375 C 5.273438 -6.117188 5.320312 -7.082031 5.0625 -8.125 C 4.800781 -9.175781 4.285156 -10.875 3.515625 -13.21875 L -2.03125 -29.328125 C -2.71875 -31.285156 -3.15625 -32.835938 -3.34375 -33.984375 L -8.234375 -31.953125 L -9.265625 -34.90625 C -6.503906 -35.875 -4.65625 -36.691406 -3.71875 -37.359375 C -2.789062 -38.023438 -2.09375 -38.8125 -1.625 -39.71875 L 0.40625 -40.4375 C 0.8125 -39.582031 1.40625 -38.179688 2.1875 -36.234375 C 3.300781 -38.203125 4.722656 -39.972656 6.453125 -41.546875 C 8.191406 -43.128906 10.046875 -44.265625 12.015625 -44.953125 C 16.109375 -46.378906 19.535156 -46.140625 22.296875 -44.234375 C 25.066406 -42.335938 27.394531 -38.691406 29.28125 -33.296875 L 33.859375 -20.203125 C 34.597656 -18.085938 35.0625 -16.457031 35.25 -15.3125 L 39.609375 -17.078125 L 40.625 -14.1875 L 26.25 -9.171875 L 25.515625 -11.28125 C 26.890625 -11.757812 27.75 -12.441406 28.09375 -13.328125 C 28.4375 -14.210938 28.484375 -15.203125 28.234375 -16.296875 C 27.984375 -17.390625 27.46875 -19.0625 26.6875 -21.3125 L 23.234375 -31.1875 C 21.773438 -35.195312 20.050781 -38 18.0625 -39.59375 C 16.082031 -41.195312 13.738281 -41.523438 11.03125 -40.578125 C 9.332031 -39.984375 7.796875 -38.972656 6.421875 -37.546875 C 5.054688 -36.128906 4.078125 -34.546875 3.484375 -32.796875 C 3.703125 -32.304688 4.039062 -31.40625 4.5 -30.09375 L 10.703125 -12.109375 C 11.441406 -9.992188 11.90625 -8.363281 12.09375 -7.21875 L 16.453125 -8.984375 L 17.46875 -6.09375 L 3.09375 -1.078125 Z M 2.359375 -3.1875 "/></g></g></g><g fill="#000000" fill-opacity="1"><g transform="translate(242.67401, 76.99768)"><g><path d="M 21.6875 -2.328125 C 18.289062 -1.773438 15.050781 -2.066406 11.96875 -3.203125 C 8.882812 -4.335938 6.289062 -6.191406 4.1875 -8.765625 C 2.082031 -11.347656 0.738281 -14.425781 0.15625 -18 C -0.457031 -21.820312 -0.210938 -25.425781 0.890625 -28.8125 C 2.003906 -32.195312 3.828125 -35.015625 6.359375 -37.265625 C 8.890625 -39.515625 11.875 -40.921875 15.3125 -41.484375 C 18.695312 -42.035156 21.945312 -41.71875 25.0625 -40.53125 C 28.175781 -39.351562 30.785156 -37.472656 32.890625 -34.890625 C 35.003906 -32.304688 36.34375 -29.28125 36.90625 -25.8125 C 37.507812 -22.070312 37.242188 -18.5 36.109375 -15.09375 C 34.972656 -11.6875 33.144531 -8.847656 30.625 -6.578125 C 28.101562 -4.304688 25.125 -2.890625 21.6875 -2.328125 Z M 21.796875 -5.375 C 25.378906 -5.957031 27.78125 -7.851562 29 -11.0625 C 30.21875 -14.28125 30.46875 -18.078125 29.75 -22.453125 C 28.945312 -27.398438 27.332031 -31.488281 24.90625 -34.71875 C 22.488281 -37.957031 19.441406 -39.273438 15.765625 -38.671875 C 12.128906 -38.078125 9.632812 -36.132812 8.28125 -32.84375 C 6.9375 -29.5625 6.617188 -25.734375 7.328125 -21.359375 C 7.835938 -18.222656 8.742188 -15.363281 10.046875 -12.78125 C 11.347656 -10.195312 13.003906 -8.210938 15.015625 -6.828125 C 17.035156 -5.453125 19.296875 -4.96875 21.796875 -5.375 Z M 21.796875 -5.375 "/></g></g></g><g fill="#000000" fill-opacity="1"><g transform="translate(281.077422, 69.450945)"><g><path d="M 7.53125 -28.125 C 6.6875 -30.84375 6.125 -32.878906 5.84375 -34.234375 L 1.875 -34.1875 L 2 -37.234375 L 17.796875 -36.578125 L 17.703125 -34.34375 C 15.160156 -34.40625 13.84375 -33.316406 13.75 -31.078125 C 13.707031 -29.929688 13.96875 -28.375 14.53125 -26.40625 L 19.609375 -8.515625 L 22.125 -15.046875 C 25.59375 -23.953125 28.269531 -30.957031 30.15625 -36.0625 L 33.21875 -35.9375 L 41.9375 -7.0625 L 49.953125 -27.390625 C 50.910156 -29.898438 51.726562 -31.535156 52.40625 -32.296875 L 48.0625 -32.265625 L 48.1875 -35.3125 L 61.15625 -34.765625 L 61.0625 -32.53125 C 59.425781 -32.507812 58.125 -32.28125 57.15625 -31.84375 C 56.195312 -31.40625 55.453125 -30.8125 54.921875 -30.0625 C 54.390625 -29.3125 53.847656 -28.273438 53.296875 -26.953125 L 41.34375 1.9375 L 38.359375 1.8125 L 29.765625 -26.75 L 18.90625 1 L 16.078125 0.890625 Z M 7.53125 -28.125 "/></g></g></g><g fill="#000000" fill-opacity="1"><g transform="translate(337.017994, 73.043397)"><g/></g></g><g fill="#000000" fill-opacity="1"><g transform="translate(353.620175, 75.378717)"><g><path d="M -2.859375 16.734375 C -1.492188 17.191406 -0.398438 17.175781 0.421875 16.6875 C 1.242188 16.207031 1.867188 15.472656 2.296875 14.484375 C 2.734375 13.503906 3.375 11.847656 4.21875 9.515625 L 15.796875 -24.59375 C 16.453125 -26.570312 17.054688 -28.070312 17.609375 -29.09375 L 12.5 -30.5 L 13.5 -33.453125 C 16.28125 -32.523438 18.238281 -32.039062 19.375 -32 C 20.507812 -31.957031 21.523438 -32.15625 22.421875 -32.59375 L 24.53125 -31.890625 C 23.9375 -29.515625 23.601562 -28.207031 23.53125 -27.96875 C 25.375 -28.769531 27.414062 -29.226562 29.65625 -29.34375 C 31.894531 -29.457031 33.984375 -29.191406 35.921875 -28.546875 C 38.703125 -27.609375 41.03125 -26.023438 42.90625 -23.796875 C 44.78125 -21.578125 45.988281 -18.890625 46.53125 -15.734375 C 47.082031 -12.585938 46.773438 -9.273438 45.609375 -5.796875 C 44.296875 -1.878906 42.300781 1.320312 39.625 3.8125 C 36.957031 6.300781 33.957031 7.925781 30.625 8.6875 C 27.300781 9.457031 24.039062 9.304688 20.84375 8.234375 C 17.59375 7.148438 15.019531 5.425781 13.125 3.0625 L 9.1875 14.796875 C 8.476562 16.921875 7.847656 18.492188 7.296875 19.515625 L 11.828125 20.796875 L 10.859375 23.703125 L -3.578125 18.859375 Z M 21.640625 5.359375 C 23.867188 6.097656 26.019531 6.054688 28.09375 5.234375 C 30.175781 4.421875 32.070312 2.9375 33.78125 0.78125 C 35.5 -1.363281 36.878906 -3.992188 37.921875 -7.109375 C 39.347656 -11.335938 39.644531 -15.226562 38.8125 -18.78125 C 37.988281 -22.34375 35.785156 -24.722656 32.203125 -25.921875 C 30.648438 -26.441406 29.015625 -26.566406 27.296875 -26.296875 C 25.585938 -26.035156 24.003906 -25.523438 22.546875 -24.765625 C 22.484375 -24.421875 22.023438 -22.976562 21.171875 -20.4375 L 14.296875 -0.15625 C 16.085938 2.476562 18.535156 4.316406 21.640625 5.359375 Z M 21.640625 5.359375 "/></g></g></g><g fill="#000000" fill-opacity="1"><g transform="translate(392.420536, 88.612059)"><g><path d="M 3.9375 -0.484375 C 5.21875 0.171875 6.300781 0.320312 7.1875 -0.03125 C 8.070312 -0.394531 8.828125 -1.039062 9.453125 -1.96875 C 10.078125 -2.90625 10.929688 -4.4375 12.015625 -6.5625 L 19.796875 -21.703125 C 20.742188 -23.554688 21.566406 -24.945312 22.265625 -25.875 L 17.453125 -28.09375 L 18.84375 -30.796875 L 20.90625 -29.75 C 22.582031 -28.882812 23.867188 -28.40625 24.765625 -28.3125 C 25.660156 -28.21875 26.601562 -28.304688 27.59375 -28.578125 L 29.515625 -27.59375 C 28.804688 -25.78125 27.789062 -23.535156 26.46875 -20.859375 C 28.507812 -22.097656 30.921875 -22.898438 33.703125 -23.265625 C 36.492188 -23.628906 38.988281 -23.242188 41.1875 -22.109375 C 42.519531 -21.429688 43.445312 -20.507812 43.96875 -19.34375 C 44.488281 -18.175781 44.398438 -16.90625 43.703125 -15.53125 C 43.335938 -14.832031 42.695312 -14.269531 41.78125 -13.84375 C 40.863281 -13.425781 39.894531 -13.476562 38.875 -14 C 37.894531 -14.5 37.285156 -15.269531 37.046875 -16.3125 C 36.804688 -17.363281 37.015625 -18.359375 37.671875 -19.296875 C 36.003906 -20.210938 33.976562 -20.441406 31.59375 -19.984375 C 29.21875 -19.535156 26.859375 -18.515625 24.515625 -16.921875 L 16.21875 -0.5625 C 15.195312 1.425781 14.335938 2.890625 13.640625 3.828125 L 17.921875 5.765625 L 16.515625 8.484375 L 2.921875 1.5 Z M 3.9375 -0.484375 "/></g></g></g><g fill="#000000" fill-opacity="1"><g transform="translate(418.43568, 101.194081)"><g><path d="M 17 13.6875 C 14.207031 11.675781 12.117188 9.179688 10.734375 6.203125 C 9.359375 3.222656 8.835938 0.078125 9.171875 -3.234375 C 9.503906 -6.554688 10.726562 -9.6875 12.84375 -12.625 C 15.101562 -15.769531 17.820312 -18.144531 21 -19.75 C 24.175781 -21.351562 27.457031 -22.054688 30.84375 -21.859375 C 34.226562 -21.671875 37.332031 -20.5625 40.15625 -18.53125 C 42.9375 -16.53125 45.007812 -14.007812 46.375 -10.96875 C 47.75 -7.9375 48.269531 -4.757812 47.9375 -1.4375 C 47.601562 1.875 46.40625 4.957031 44.34375 7.8125 C 42.132812 10.882812 39.425781 13.222656 36.21875 14.828125 C 33.019531 16.441406 29.722656 17.160156 26.328125 16.984375 C 22.929688 16.816406 19.820312 15.71875 17 13.6875 Z M 19.21875 11.609375 C 22.15625 13.722656 25.191406 14.070312 28.328125 12.65625 C 31.460938 11.238281 34.320312 8.734375 36.90625 5.140625 C 39.84375 1.066406 41.597656 -2.960938 42.171875 -6.953125 C 42.742188 -10.953125 41.519531 -14.039062 38.5 -16.21875 C 35.507812 -18.363281 32.367188 -18.75 29.078125 -17.375 C 25.796875 -16 22.863281 -13.515625 20.28125 -9.921875 C 18.425781 -7.347656 17.046875 -4.6875 16.140625 -1.9375 C 15.234375 0.8125 15 3.382812 15.4375 5.78125 C 15.882812 8.1875 17.144531 10.128906 19.21875 11.609375 Z M 19.21875 11.609375 "/></g></g></g><g fill="#000000" fill-opacity="1"><g transform="translate(450.896042, 124.464333)"><g><path d="M 21.8125 -12.296875 C 23.625 -16.941406 25.320312 -20.125 26.90625 -21.84375 L 24.484375 -23.953125 L 26.625 -26.109375 L 36.34375 -16.421875 L 34.765625 -14.84375 C 33.210938 -16.382812 31.789062 -16.503906 30.5 -15.203125 C 29.550781 -14.242188 28.625 -12.578125 27.71875 -10.203125 L 22.53125 3.171875 C 21.894531 4.722656 21.125 6.550781 20.21875 8.65625 L 20.28125 8.703125 C 20.726562 8.453125 21.25 8.207031 21.84375 7.96875 L 24.90625 6.46875 L 40.65625 -0.890625 C 42.03125 -1.546875 43.769531 -2.234375 45.875 -2.953125 L 42.34375 -6.171875 L 44.484375 -8.328125 L 52.828125 -0.015625 L 51.25 1.5625 C 50.507812 0.832031 49.625 0.457031 48.59375 0.4375 C 47.5625 0.425781 46.367188 0.65625 45.015625 1.125 C 43.660156 1.601562 41.664062 2.429688 39.03125 3.609375 L 14.328125 14.578125 L 12.21875 12.46875 Z M 21.8125 -12.296875 "/></g></g></g><g fill="#000000" fill-opacity="1"><g transform="translate(475.353019, 148.280908)"><g><path d="M 11.6875 17.875 C 9.65625 15.113281 8.46875 12.144531 8.125 8.96875 C 7.789062 5.789062 8.363281 2.671875 9.84375 -0.390625 C 11.320312 -3.460938 13.644531 -6.160156 16.8125 -8.484375 C 19.625 -10.554688 22.734375 -11.851562 26.140625 -12.375 C 29.546875 -12.894531 32.832031 -12.550781 36 -11.34375 C 39.175781 -10.132812 41.835938 -8.070312 43.984375 -5.15625 C 45.671875 -2.875 46.6875 -0.441406 47.03125 2.140625 C 47.382812 4.722656 46.96875 7.285156 45.78125 9.828125 C 44.601562 12.367188 42.570312 14.703125 39.6875 16.828125 L 23.765625 -4.0625 C 18.929688 -0.570312 15.769531 2.96875 14.28125 6.5625 C 12.789062 10.164062 13.300781 13.671875 15.8125 17.078125 C 17.164062 18.921875 19.035156 20.457031 21.421875 21.6875 C 23.804688 22.914062 26.082031 23.535156 28.25 23.546875 L 28.125 25.890625 C 24.675781 26.066406 21.5 25.359375 18.59375 23.765625 C 15.695312 22.171875 13.394531 20.207031 11.6875 17.875 Z M 37.703125 9.59375 C 40.097656 7.820312 41.757812 5.757812 42.6875 3.40625 C 43.613281 1.0625 43.28125 -1.191406 41.6875 -3.359375 C 38.039062 -8.328125 32.953125 -9.117188 26.421875 -5.734375 Z M 37.703125 9.59375 "/></g></g></g><g fill="#000000" fill-opacity="1"><g transform="translate(497.445927, 177.473612)"><g><path d="M 7.609375 17.703125 C 6.222656 14.960938 5.664062 12.15625 5.9375 9.28125 C 6.21875 6.414062 7.304688 3.722656 9.203125 1.203125 C 11.109375 -1.316406 13.742188 -3.425781 17.109375 -5.125 C 20.660156 -6.914062 24.226562 -7.796875 27.8125 -7.765625 C 31.394531 -7.742188 34.640625 -6.832031 37.546875 -5.03125 C 40.460938 -3.238281 42.75 -0.703125 44.40625 2.578125 C 45.09375 3.953125 45.613281 5.453125 45.96875 7.078125 C 46.320312 8.710938 46.488281 10.125 46.46875 11.3125 L 55.59375 6.703125 C 57.28125 5.859375 58.753906 5.203125 60.015625 4.734375 L 57.359375 0.125 L 60.15625 -1.28125 C 61.476562 1.34375 62.582031 3.140625 63.46875 4.109375 C 64.351562 5.078125 65.242188 5.726562 66.140625 6.0625 L 67.109375 8 L 23.890625 29.796875 C 22.460938 30.515625 20.90625 31.1875 19.21875 31.8125 L 21.875 36.40625 L 19.078125 37.8125 L 14.28125 28.296875 C 15.363281 27.472656 16.4375 26.734375 17.5 26.078125 C 15.425781 25.515625 13.523438 24.507812 11.796875 23.0625 C 10.078125 21.625 8.679688 19.835938 7.609375 17.703125 Z M 12.078125 18.46875 C 12.796875 19.882812 13.9375 21.128906 15.5 22.203125 C 17.070312 23.285156 18.765625 24.007812 20.578125 24.375 C 21.253906 23.976562 22.457031 23.34375 24.1875 22.46875 L 43.421875 12.859375 C 43.910156 9.972656 43.441406 7.113281 42.015625 4.28125 C 40.398438 1.082031 37.78125 -0.820312 34.15625 -1.4375 C 30.53125 -2.0625 26.539062 -1.273438 22.1875 0.921875 C 17.65625 3.203125 14.4375 5.90625 12.53125 9.03125 C 10.632812 12.164062 10.484375 15.3125 12.078125 18.46875 Z M 12.078125 18.46875 "/></g></g></g><g fill="#000000" fill-opacity="1"><g transform="translate(515.662081, 214.899114)"><g/></g></g><g fill="#000000" fill-opacity="1"><g transform="translate(522.793648, 229.50235)"><g><path d="M 29.109375 1 C 31.554688 -0.414062 33.410156 -1.421875 34.671875 -2.015625 L 33.71875 -5.859375 L 36.71875 -6.421875 L 39.640625 9.109375 L 37.453125 9.53125 C 36.941406 7.03125 35.582031 5.988281 33.375 6.40625 C 32.25 6.613281 30.789062 7.21875 29 8.21875 L 12.71875 17.1875 L 19.640625 18.171875 C 29.109375 19.535156 36.535156 20.570312 41.921875 21.28125 L 42.484375 24.28125 L 16.3125 39.265625 L 37.9375 42.53125 C 40.59375 42.882812 42.367188 43.304688 43.265625 43.796875 L 42.234375 39.578125 L 45.234375 39.015625 L 47.625 51.765625 L 45.4375 52.1875 C 45.039062 50.582031 44.519531 49.359375 43.875 48.515625 C 43.238281 47.679688 42.492188 47.085938 41.640625 46.734375 C 40.796875 46.390625 39.671875 46.097656 38.265625 45.859375 L 7.40625 40.734375 L 6.859375 37.796875 L 32.765625 23 L 3.265625 18.65625 L 2.75 15.875 Z M 29.109375 1 "/></g></g></g><g fill="#000000" fill-opacity="1"><g transform="translate(532.393014, 283.924876)"><g><path d="M -1.296875 13.703125 C -1.265625 10.078125 -0.421875 7.3125 1.234375 5.40625 C 2.890625 3.507812 5.035156 2.570312 7.671875 2.59375 C 10.546875 2.613281 12.96875 3.785156 14.9375 6.109375 C 16.90625 8.441406 18.359375 11.363281 19.296875 14.875 C 20.242188 18.382812 20.6875 21.90625 20.625 25.4375 L 25.25 25.46875 C 28.476562 25.5 31 25.046875 32.8125 24.109375 C 34.632812 23.179688 35.554688 21.175781 35.578125 18.09375 C 35.585938 16.550781 35.273438 15.078125 34.640625 13.671875 C 34.003906 12.273438 33.046875 11.253906 31.765625 10.609375 C 31.054688 11.242188 30.109375 11.554688 28.921875 11.546875 C 28.171875 11.546875 27.460938 11.269531 26.796875 10.71875 C 26.128906 10.164062 25.800781 9.367188 25.8125 8.328125 C 25.820312 7.285156 26.164062 6.46875 26.84375 5.875 C 27.519531 5.28125 28.40625 4.984375 29.5 4.984375 C 31.144531 5.003906 32.644531 5.65625 34 6.9375 C 35.351562 8.21875 36.421875 9.988281 37.203125 12.25 C 37.984375 14.519531 38.359375 17.050781 38.328125 19.84375 C 38.296875 24.007812 37.164062 27.078125 34.9375 29.046875 C 32.71875 31.023438 29.222656 31.972656 24.453125 31.890625 L 7.671875 31.6875 C 6.078125 31.675781 4.382812 31.5625 2.59375 31.34375 L 2.84375 36.65625 L -0.28125 36.625 L -0.203125 25.953125 C 0.546875 25.816406 1.96875 25.65625 4.0625 25.46875 C 0.457031 21.800781 -1.328125 17.878906 -1.296875 13.703125 Z M 2.9375 15.453125 C 2.925781 17.335938 3.273438 19.054688 3.984375 20.609375 C 4.691406 22.160156 5.785156 23.738281 7.265625 25.34375 C 8.015625 25.289062 9.285156 25.269531 11.078125 25.28125 L 18.078125 25.421875 C 17.960938 21.347656 17.15625 17.710938 15.65625 14.515625 C 14.164062 11.328125 11.851562 9.71875 8.71875 9.6875 C 6.882812 9.675781 5.46875 10.210938 4.46875 11.296875 C 3.46875 12.378906 2.957031 13.765625 2.9375 15.453125 Z M 2.9375 15.453125 "/></g></g></g><g fill="#000000" fill-opacity="1"><g transform="translate(532.224949, 319.082169)"><g><path d="M -3.96875 18.171875 C -3.613281 15.867188 -2.984375 13.800781 -2.078125 11.96875 C -1.171875 10.144531 -0.148438 8.617188 0.984375 7.390625 L -1.640625 7.296875 L -1.171875 4.203125 L 11.59375 5.6875 L 11.234375 7.96875 C 9.203125 7.757812 7.320312 8.035156 5.59375 8.796875 C 3.875 9.566406 2.429688 10.707031 1.265625 12.21875 C 0.109375 13.738281 -0.609375 15.429688 -0.890625 17.296875 C -1.210938 19.410156 -0.992188 21.363281 -0.234375 23.15625 C 0.515625 24.957031 1.820312 26 3.6875 26.28125 C 5.0625 26.488281 6.28125 26.257812 7.34375 25.59375 C 8.40625 24.925781 9.332031 24.035156 10.125 22.921875 C 10.925781 21.816406 11.910156 20.242188 13.078125 18.203125 C 14.460938 15.742188 15.703125 13.796875 16.796875 12.359375 C 17.898438 10.921875 19.269531 9.742188 20.90625 8.828125 C 22.550781 7.921875 24.507812 7.640625 26.78125 7.984375 C 28.394531 8.234375 29.953125 8.875 31.453125 9.90625 C 32.953125 10.9375 34.125 12.472656 34.96875 14.515625 C 35.820312 16.566406 36.015625 19.140625 35.546875 22.234375 C 35.316406 23.753906 34.832031 25.273438 34.09375 26.796875 C 33.351562 28.328125 32.316406 29.691406 30.984375 30.890625 L 33.796875 31.171875 L 33.328125 34.265625 L 20.4375 32.296875 L 20.796875 29.9375 C 23.671875 30.226562 26.269531 29.734375 28.59375 28.453125 C 30.925781 27.171875 32.3125 25.082031 32.75 22.1875 C 33.09375 19.96875 32.804688 18.125 31.890625 16.65625 C 30.984375 15.1875 29.773438 14.332031 28.265625 14.09375 C 26.835938 13.882812 25.5625 14.132812 24.4375 14.84375 C 23.320312 15.5625 22.320312 16.503906 21.4375 17.671875 C 20.5625 18.847656 19.539062 20.453125 18.375 22.484375 C 16.945312 24.878906 15.671875 26.796875 14.546875 28.234375 C 13.421875 29.679688 12.050781 30.84375 10.4375 31.71875 C 8.832031 32.601562 6.992188 32.890625 4.921875 32.578125 C 2.554688 32.222656 0.65625 31.316406 -0.78125 29.859375 C -2.21875 28.410156 -3.191406 26.65625 -3.703125 24.59375 C -4.210938 22.53125 -4.300781 20.390625 -3.96875 18.171875 Z M -3.96875 18.171875 "/></g></g></g><g fill="#000000" fill-opacity="1"><g transform="translate(527.14301, 350.703398)"><g/></g></g><g fill="#000000" fill-opacity="1"><g transform="translate(523.770081, 367.160191)"><g><path d="M -9.21875 19.78125 C -7.9375 16.582031 -6.015625 13.957031 -3.453125 11.90625 C -0.890625 9.851562 2.035156 8.59375 5.328125 8.125 C 8.628906 7.65625 11.960938 8.097656 15.328125 9.453125 C 18.929688 10.898438 21.890625 12.96875 24.203125 15.65625 C 26.523438 18.351562 27.992188 21.367188 28.609375 24.703125 C 29.234375 28.035156 28.898438 31.316406 27.609375 34.546875 C 26.328125 37.722656 24.375 40.335938 21.75 42.390625 C 19.132812 44.453125 16.175781 45.71875 12.875 46.1875 C 9.582031 46.664062 6.300781 46.25 3.03125 44.9375 C -0.476562 43.53125 -3.398438 41.457031 -5.734375 38.71875 C -8.066406 35.988281 -9.550781 32.957031 -10.1875 29.625 C -10.832031 26.289062 -10.507812 23.007812 -9.21875 19.78125 Z M -6.65625 21.4375 C -8.007812 24.800781 -7.625 27.832031 -5.5 30.53125 C -3.375 33.238281 -0.257812 35.414062 3.84375 37.0625 C 8.5 38.9375 12.835938 39.671875 16.859375 39.265625 C 20.878906 38.867188 23.582031 36.941406 24.96875 33.484375 C 26.332031 30.066406 25.957031 26.929688 23.84375 24.078125 C 21.726562 21.222656 18.613281 18.96875 14.5 17.3125 C 11.550781 16.132812 8.628906 15.429688 5.734375 15.203125 C 2.847656 14.984375 0.300781 15.378906 -1.90625 16.390625 C -4.125 17.398438 -5.707031 19.082031 -6.65625 21.4375 Z M -6.65625 21.4375 "/></g></g></g><g fill="#000000" fill-opacity="1"><g transform="translate(509.401974, 404.109057)"><g><path d="M 0.15625 3.953125 C -0.601562 5.179688 -0.835938 6.25 -0.546875 7.15625 C -0.265625 8.070312 0.300781 8.851562 1.15625 9.5 C 2.019531 10.15625 3.488281 11.160156 5.5625 12.515625 L 19.984375 21.546875 C 21.742188 22.640625 23.0625 23.570312 23.9375 24.34375 L 26.484375 19.703125 L 29.140625 21.359375 C 27.585938 23.847656 26.65625 25.640625 26.34375 26.734375 C 26.039062 27.835938 25.988281 28.890625 26.1875 29.890625 L 25.046875 31.734375 C 24.203125 31.328125 22.863281 30.609375 21.03125 29.578125 C 21.394531 31.804688 21.398438 34.082031 21.046875 36.40625 C 20.691406 38.726562 19.96875 40.773438 18.875 42.546875 C 16.582031 46.222656 13.757812 48.1875 10.40625 48.4375 C 7.0625 48.695312 2.960938 47.316406 -1.890625 44.296875 L -13.671875 36.96875 C -15.578125 35.789062 -16.960938 34.816406 -17.828125 34.046875 L -20.125 38.15625 L -22.71875 36.546875 L -14.6875 23.625 L -12.796875 24.796875 C -13.554688 26.023438 -13.789062 27.09375 -13.5 28 C -13.21875 28.914062 -12.632812 29.71875 -11.75 30.40625 C -10.875 31.101562 -9.421875 32.082031 -7.390625 33.34375 L 1.484375 38.859375 C 5.140625 41.066406 8.238281 42.171875 10.78125 42.171875 C 13.332031 42.179688 15.367188 40.960938 16.890625 38.515625 C 17.835938 36.992188 18.394531 35.242188 18.5625 33.265625 C 18.738281 31.296875 18.515625 29.445312 17.890625 27.71875 C 17.398438 27.46875 16.5625 26.976562 15.375 26.25 L -0.71875 16.140625 C -2.625 14.960938 -4.007812 13.988281 -4.875 13.21875 L -7.171875 17.328125 L -9.765625 15.71875 L -1.734375 2.78125 Z M 0.15625 3.953125 "/></g></g></g><g fill="#000000" fill-opacity="1"><g transform="translate(487.611462, 439.337349)"><g><path d="M -15.109375 15.328125 C -12.867188 12.785156 -10.238281 10.972656 -7.21875 9.890625 C -4.207031 8.804688 -1.082031 8.597656 2.15625 9.265625 C 5.40625 9.941406 8.5 11.582031 11.4375 14.1875 C 14.050781 16.488281 15.992188 19.304688 17.265625 22.640625 C 18.535156 25.984375 18.914062 29.40625 18.40625 32.90625 C 17.90625 36.40625 16.425781 39.550781 13.96875 42.34375 C 12.1875 44.363281 10.285156 45.875 8.265625 46.875 C 6.242188 47.882812 4.320312 48.363281 2.5 48.3125 C 0.6875 48.269531 -0.828125 47.707031 -2.046875 46.625 C -2.910156 45.875 -3.40625 45.007812 -3.53125 44.03125 C -3.664062 43.050781 -3.359375 42.132812 -2.609375 41.28125 C -1.878906 40.457031 -1.066406 40.078125 -0.171875 40.140625 C 0.722656 40.203125 1.472656 40.5 2.078125 41.03125 C 3.003906 41.851562 3.503906 42.796875 3.578125 43.859375 C 5.097656 44.460938 6.585938 44.363281 8.046875 43.5625 C 9.515625 42.769531 10.757812 41.796875 11.78125 40.640625 C 13.289062 38.921875 14.179688 36.96875 14.453125 34.78125 C 14.734375 32.601562 14.316406 30.332031 13.203125 27.96875 C 12.097656 25.601562 10.300781 23.320312 7.8125 21.125 C 5.3125 18.925781 2.738281 17.367188 0.09375 16.453125 C -2.550781 15.546875 -5.0625 15.332031 -7.4375 15.8125 C -9.820312 16.300781 -11.847656 17.492188 -13.515625 19.390625 C -15.003906 21.066406 -16.007812 23.117188 -16.53125 25.546875 C -17.050781 27.984375 -17.035156 30.269531 -16.484375 32.40625 L -18.875 32.875 C -19.820312 29.59375 -19.890625 26.367188 -19.078125 23.203125 C -18.265625 20.035156 -16.941406 17.410156 -15.109375 15.328125 Z M -15.109375 15.328125 "/></g></g></g><g fill="#000000" fill-opacity="1"><g transform="translate(463.983871, 466.580407)"><g><path d="M -17.1875 12.65625 C -14.550781 10.476562 -11.65625 9.128906 -8.5 8.609375 C -5.34375 8.097656 -2.195312 8.492188 0.9375 9.796875 C 4.082031 11.097656 6.910156 13.265625 9.421875 16.296875 C 11.640625 18.984375 13.109375 22.015625 13.828125 25.390625 C 14.546875 28.765625 14.390625 32.070312 13.359375 35.3125 C 12.328125 38.550781 10.410156 41.328125 7.609375 43.640625 C 5.429688 45.441406 3.0625 46.585938 0.5 47.078125 C -2.0625 47.578125 -4.640625 47.304688 -7.234375 46.265625 C -9.835938 45.234375 -12.28125 43.335938 -14.5625 40.578125 L 5.375 23.5 C 1.625 18.875 -2.085938 15.914062 -5.765625 14.625 C -9.441406 13.34375 -12.910156 14.050781 -16.171875 16.75 C -17.929688 18.195312 -19.359375 20.144531 -20.453125 22.59375 C -21.554688 25.050781 -22.046875 27.363281 -21.921875 29.53125 L -24.265625 29.53125 C -24.640625 26.09375 -24.109375 22.878906 -22.671875 19.890625 C -21.242188 16.910156 -19.414062 14.5 -17.1875 12.65625 Z M -7.453125 38.171875 C -5.554688 40.472656 -3.40625 42.019531 -1 42.8125 C 1.394531 43.613281 3.625 43.160156 5.6875 41.453125 C 10.445312 37.523438 10.957031 32.394531 7.21875 26.0625 Z M -7.453125 38.171875 "/></g></g></g><g fill="#000000" fill-opacity="1"><g transform="translate(434.669262, 490.200481)"><g/></g></g><g fill="#000000" fill-opacity="1"><g transform="translate(421.079344, 500.069129)"><g><path d="M -20.140625 8.375 C -17.046875 6.882812 -13.859375 6.242188 -10.578125 6.453125 C -7.304688 6.671875 -4.296875 7.71875 -1.546875 9.59375 C 1.203125 11.476562 3.359375 14.054688 4.921875 17.328125 C 6.609375 20.816406 7.394531 24.335938 7.28125 27.890625 C 7.164062 31.441406 6.210938 34.65625 4.421875 37.53125 C 2.640625 40.414062 0.179688 42.613281 -2.953125 44.125 C -6.046875 45.613281 -9.25 46.226562 -12.5625 45.96875 C -15.882812 45.71875 -18.921875 44.65625 -21.671875 42.78125 C -24.421875 40.90625 -26.5625 38.378906 -28.09375 35.203125 C -29.726562 31.796875 -30.484375 28.296875 -30.359375 24.703125 C -30.242188 21.117188 -29.296875 17.878906 -27.515625 14.984375 C -25.734375 12.085938 -23.273438 9.882812 -20.140625 8.375 Z M -19.375 11.328125 C -22.644531 12.890625 -24.40625 15.382812 -24.65625 18.8125 C -24.914062 22.238281 -24.085938 25.945312 -22.171875 29.9375 C -19.992188 34.457031 -17.289062 37.925781 -14.0625 40.34375 C -10.832031 42.769531 -7.535156 43.175781 -4.171875 41.5625 C -0.859375 39.96875 0.972656 37.398438 1.328125 33.859375 C 1.691406 30.316406 0.914062 26.550781 -1 22.5625 C -2.375 19.695312 -4.050781 17.207031 -6.03125 15.09375 C -8.007812 12.988281 -10.15625 11.554688 -12.46875 10.796875 C -14.789062 10.046875 -17.09375 10.222656 -19.375 11.328125 Z M -19.375 11.328125 "/></g></g></g><g fill="#000000" fill-opacity="1"><g transform="translate(385.541976, 517.634729)"><g><path d="M -2.546875 3.046875 C -3.929688 3.429688 -4.828125 4.054688 -5.234375 4.921875 C -5.648438 5.785156 -5.757812 6.742188 -5.5625 7.796875 C -5.363281 8.859375 -4.957031 10.585938 -4.34375 12.984375 L 0.1875 29.375 C 0.75 31.382812 1.09375 32.96875 1.21875 34.125 L 6.234375 32.421875 L 7.078125 35.421875 C 4.253906 36.210938 2.359375 36.910156 1.390625 37.515625 C 0.429688 38.128906 -0.3125 38.867188 -0.84375 39.734375 L -2.921875 40.3125 C -3.285156 39.445312 -3.796875 38.015625 -4.453125 36.015625 C -5.679688 37.910156 -7.207031 39.59375 -9.03125 41.0625 C -10.863281 42.539062 -12.785156 43.5625 -14.796875 44.125 C -18.960938 45.289062 -22.367188 44.835938 -25.015625 42.765625 C -27.660156 40.703125 -29.753906 36.914062 -31.296875 31.40625 L -35.046875 18.046875 C -35.648438 15.890625 -36.015625 14.234375 -36.140625 13.078125 L -40.609375 14.578125 L -41.4375 11.625 L -26.78125 7.515625 L -26.171875 9.671875 C -27.566406 10.066406 -28.460938 10.695312 -28.859375 11.5625 C -29.265625 12.425781 -29.375 13.410156 -29.1875 14.515625 C -29.007812 15.617188 -28.597656 17.316406 -27.953125 19.609375 L -25.125 29.671875 C -23.914062 33.773438 -22.375 36.679688 -20.5 38.390625 C -18.625 40.109375 -16.300781 40.582031 -13.53125 39.8125 C -11.8125 39.320312 -10.222656 38.410156 -8.765625 37.078125 C -7.304688 35.742188 -6.21875 34.226562 -5.5 32.53125 C -5.695312 32.019531 -5.984375 31.09375 -6.359375 29.75 L -11.421875 11.421875 C -12.023438 9.265625 -12.390625 7.609375 -12.515625 6.453125 L -16.984375 7.953125 L -17.8125 5 L -3.15625 0.890625 Z M -2.546875 3.046875 "/></g></g></g><g fill="#000000" fill-opacity="1"><g transform="translate(344.710638, 528.453207)"><g><path d="M -2.171875 2.578125 C -3.609375 2.785156 -4.582031 3.289062 -5.09375 4.09375 C -5.601562 4.90625 -5.835938 5.867188 -5.796875 6.984375 C -5.753906 8.109375 -5.5625 9.847656 -5.21875 12.203125 L -0.125 47.125 C 0.144531 48.988281 0.300781 50.59375 0.34375 51.9375 L 5.546875 50.890625 L 6 54 C 3.039062 54.4375 0.960938 54.914062 -0.234375 55.4375 C -1.441406 55.96875 -2.34375 56.597656 -2.9375 57.328125 L -5.078125 57.640625 L -12.140625 9.765625 C -12.421875 7.847656 -12.539062 6.15625 -12.5 4.6875 L -17.125 5.59375 L -17.5625 2.5625 L -2.5 0.359375 Z M -2.171875 2.578125 "/></g></g></g><g fill="#000000" fill-opacity="1"><g transform="translate(327.428086, 531.722585)"><g><path d="M -9.59375 -19.9375 C -7.945312 -19.976562 -6.59375 -19.617188 -5.53125 -18.859375 C -4.46875 -18.109375 -3.914062 -17.007812 -3.875 -15.5625 C -3.84375 -14.625 -4.125 -13.785156 -4.71875 -13.046875 C -5.320312 -12.304688 -6.117188 -11.921875 -7.109375 -11.890625 C -8.109375 -11.859375 -8.851562 -12.1875 -9.34375 -12.875 C -9.832031 -13.5625 -10.085938 -14.273438 -10.109375 -15.015625 C -10.117188 -15.460938 -10.109375 -15.8125 -10.078125 -16.0625 C -10.222656 -16.164062 -10.492188 -16.207031 -10.890625 -16.1875 C -11.535156 -16.175781 -12.1875 -15.910156 -12.84375 -15.390625 C -13.507812 -14.867188 -14.101562 -14.132812 -14.625 -13.1875 C -15.707031 -11.257812 -17.328125 -6.957031 -19.484375 -0.28125 L -7.15625 24.296875 C -4.945312 28.703125 -3.535156 32.09375 -2.921875 34.46875 L 0.65625 34.234375 L 0.734375 37.28125 L -14.703125 37.703125 L -14.765625 35.46875 L -14.46875 35.453125 C -12.132812 35.242188 -10.992188 34.21875 -11.046875 32.375 C -11.078125 31.132812 -11.722656 29.210938 -12.984375 26.609375 L -22.234375 8.15625 C -23.597656 12.425781 -25.554688 18.71875 -28.109375 27.03125 C -29.660156 32.007812 -30.804688 34.804688 -31.546875 35.421875 L -26.40625 34.984375 L -26.328125 38.03125 L -38.03125 38.34375 L -38.09375 36.109375 C -36.425781 35.421875 -35.148438 34.351562 -34.265625 32.90625 C -33.378906 31.46875 -32.429688 29.242188 -31.421875 26.234375 L -22.828125 -0.046875 C -21.179688 -5.109375 -19.804688 -8.9375 -18.703125 -11.53125 C -17.609375 -14.132812 -16.347656 -16.171875 -14.921875 -17.640625 C -13.503906 -19.109375 -11.726562 -19.875 -9.59375 -19.9375 Z M -9.59375 -19.9375 "/></g></g></g><g fill="#000000" fill-opacity="1"><g transform="translate(290.762416, 532.300861)"><g/></g></g><g fill="#000000" fill-opacity="1"><g transform="translate(273.085961, 530.849352)"><g><path d="M -18.109375 43 C -17.078125 43.175781 -16.242188 43.757812 -15.609375 44.75 C -14.972656 45.738281 -14.753906 46.816406 -14.953125 47.984375 C -15.148438 49.171875 -15.726562 50.132812 -16.6875 50.875 C -17.644531 51.625 -18.632812 51.910156 -19.65625 51.734375 C -20.789062 51.546875 -21.664062 50.957031 -22.28125 49.96875 C -22.894531 48.976562 -23.097656 47.867188 -22.890625 46.640625 C -22.691406 45.472656 -22.113281 44.523438 -21.15625 43.796875 C -20.207031 43.078125 -19.191406 42.8125 -18.109375 43 Z M -3.609375 1.65625 C -5.023438 1.414062 -6.097656 1.597656 -6.828125 2.203125 C -7.566406 2.816406 -8.09375 3.660156 -8.40625 4.734375 C -8.71875 5.816406 -9.070312 7.535156 -9.46875 9.890625 L -12.3125 26.65625 C -12.550781 28.082031 -12.921875 29.660156 -13.421875 31.390625 L -8.15625 31.96875 L -8.671875 35.0625 C -11.554688 34.570312 -13.648438 34.394531 -14.953125 34.53125 C -16.265625 34.664062 -17.320312 34.988281 -18.125 35.5 L -20.25 35.140625 L -15.21875 5.4375 C -14.84375 3.226562 -14.460938 1.570312 -14.078125 0.46875 L -18.75 -0.078125 L -18.234375 -3.09375 L -3.234375 -0.546875 Z M -3.609375 1.65625 "/></g></g></g><g fill="#000000" fill-opacity="1"><g transform="translate(255.766532, 530.258632)"><g><path d="M -3.84375 1.015625 C -5.195312 0.535156 -6.285156 0.53125 -7.109375 1 C -7.941406 1.476562 -8.601562 2.222656 -9.09375 3.234375 C -9.582031 4.242188 -10.226562 5.867188 -11.03125 8.109375 L -16.703125 24.15625 C -17.398438 26.125 -18.03125 27.613281 -18.59375 28.625 L -13.5 30.109375 L -14.546875 33.0625 C -17.304688 32.082031 -19.253906 31.5625 -20.390625 31.5 C -21.523438 31.4375 -22.566406 31.613281 -23.515625 32.03125 L -25.546875 31.3125 C -25.390625 30.582031 -25.046875 29.300781 -24.515625 27.46875 C -26.410156 28.226562 -28.40625 28.660156 -30.5 28.765625 C -32.59375 28.867188 -34.53125 28.601562 -36.3125 27.96875 C -38.601562 27.15625 -40.414062 26.054688 -41.75 24.671875 C -43.082031 23.285156 -43.925781 21.675781 -44.28125 19.84375 C -46.445312 20.601562 -48.726562 21.0625 -51.125 21.21875 C -53.53125 21.375 -55.691406 21.113281 -57.609375 20.4375 C -61.734375 18.976562 -64.300781 16.65625 -65.3125 13.46875 C -66.332031 10.289062 -65.820312 5.984375 -63.78125 0.546875 L -59.109375 -12.515625 C -58.359375 -14.628906 -57.695312 -16.191406 -57.125 -17.203125 L -61.609375 -18.546875 L -60.59375 -21.4375 L -46.265625 -16.359375 L -47.015625 -14.25 C -48.367188 -14.726562 -49.457031 -14.726562 -50.28125 -14.25 C -51.101562 -13.78125 -51.757812 -13.039062 -52.25 -12.03125 C -52.738281 -11.019531 -53.382812 -9.394531 -54.1875 -7.15625 L -57.671875 2.703125 C -59.097656 6.734375 -59.53125 9.96875 -58.96875 12.40625 C -58.40625 14.84375 -56.769531 16.539062 -54.0625 17.5 C -52.601562 18.007812 -51.019531 18.210938 -49.3125 18.109375 C -47.613281 18.003906 -46.019531 17.632812 -44.53125 17 C -44.488281 15.375 -44.117188 13.582031 -43.421875 11.625 L -37.453125 -4.859375 C -36.703125 -6.972656 -36.039062 -8.535156 -35.46875 -9.546875 L -39.96875 -10.890625 L -38.953125 -13.78125 L -24.609375 -8.703125 L -25.359375 -6.59375 C -26.710938 -7.070312 -27.800781 -7.070312 -28.625 -6.59375 C -29.457031 -6.125 -30.097656 -5.398438 -30.546875 -4.421875 C -30.992188 -3.453125 -31.65625 -1.8125 -32.53125 0.5 L -36.09375 10.328125 C -37.582031 14.390625 -38.070312 17.640625 -37.5625 20.078125 C -37.0625 22.523438 -35.472656 24.222656 -32.796875 25.171875 C -31.335938 25.691406 -29.785156 25.898438 -28.140625 25.796875 C -26.503906 25.691406 -24.988281 25.304688 -23.59375 24.640625 L -22.3125 20.828125 L -15.921875 2.75 C -15.171875 0.632812 -14.507812 -0.921875 -13.9375 -1.921875 L -18.453125 -3.28125 L -17.4375 -6.171875 L -3.09375 -1.09375 Z M -3.84375 1.015625 "/></g></g></g><g fill="#000000" fill-opacity="1"><g transform="translate(197.7559, 508.711748)"><g><path d="M -11.109375 -8.140625 C -8.015625 -6.253906 -6.070312 -4.113281 -5.28125 -1.71875 C -4.488281 0.675781 -4.78125 3 -6.15625 5.25 C -7.644531 7.707031 -9.894531 9.179688 -12.90625 9.671875 C -15.925781 10.171875 -19.179688 9.921875 -22.671875 8.921875 C -26.171875 7.929688 -29.414062 6.503906 -32.40625 4.640625 L -34.8125 8.59375 C -36.488281 11.351562 -37.394531 13.75 -37.53125 15.78125 C -37.675781 17.820312 -36.429688 19.644531 -33.796875 21.25 C -32.472656 22.050781 -31.046875 22.535156 -29.515625 22.703125 C -27.992188 22.878906 -26.617188 22.582031 -25.390625 21.8125 C -25.578125 20.882812 -25.363281 19.914062 -24.75 18.90625 C -24.363281 18.257812 -23.765625 17.789062 -22.953125 17.5 C -22.140625 17.21875 -21.285156 17.347656 -20.390625 17.890625 C -19.503906 18.429688 -18.976562 19.140625 -18.8125 20.015625 C -18.65625 20.898438 -18.859375 21.8125 -19.421875 22.75 C -20.273438 24.15625 -21.597656 25.113281 -23.390625 25.625 C -25.191406 26.132812 -27.265625 26.140625 -29.609375 25.640625 C -31.953125 25.140625 -34.316406 24.164062 -36.703125 22.71875 C -40.265625 20.550781 -42.316406 18.003906 -42.859375 15.078125 C -43.410156 12.148438 -42.425781 8.660156 -39.90625 4.609375 L -31.125 -9.6875 C -30.289062 -11.039062 -29.328125 -12.429688 -28.234375 -13.859375 L -32.921875 -16.359375 L -31.296875 -19.03125 L -22.171875 -13.484375 C -22.429688 -12.765625 -23.019531 -11.46875 -23.9375 -9.59375 C -18.957031 -10.800781 -14.679688 -10.316406 -11.109375 -8.140625 Z M -14.78125 -5.40625 C -16.394531 -6.394531 -18.046875 -6.976562 -19.734375 -7.15625 C -21.429688 -7.34375 -23.34375 -7.210938 -25.46875 -6.765625 C -25.8125 -6.097656 -26.453125 -5 -27.390625 -3.46875 L -31.09375 2.46875 C -27.53125 4.457031 -23.992188 5.628906 -20.484375 5.984375 C -16.984375 6.347656 -14.421875 5.191406 -12.796875 2.515625 C -11.835938 0.953125 -11.566406 -0.535156 -11.984375 -1.953125 C -12.410156 -3.378906 -13.34375 -4.53125 -14.78125 -5.40625 Z M -14.78125 -5.40625 "/></g></g></g><g fill="#000000" fill-opacity="1"><g transform="translate(167.750015, 490.921926)"><g><path d="M -3.140625 -29.140625 C 0.109375 -26.378906 2.488281 -23.738281 4 -21.21875 C 5.519531 -18.695312 6.273438 -16.429688 6.265625 -14.421875 C 6.265625 -12.410156 5.703125 -10.742188 4.578125 -9.421875 C 3.222656 -7.835938 1.507812 -6.894531 -0.5625 -6.59375 C -2.632812 -6.300781 -4.597656 -6.445312 -6.453125 -7.03125 C -5.515625 -5.519531 -5.019531 -4.117188 -4.96875 -2.828125 C -4.914062 -1.546875 -5.375 -0.335938 -6.34375 0.796875 C -7.5 2.160156 -9.097656 2.953125 -11.140625 3.171875 C -13.191406 3.390625 -15.140625 2.9375 -16.984375 1.8125 C -15.910156 4.15625 -15.492188 6.507812 -15.734375 8.875 C -15.984375 11.25 -16.929688 13.40625 -18.578125 15.34375 C -20.441406 17.539062 -22.671875 19.003906 -25.265625 19.734375 C -27.867188 20.460938 -30.492188 20.519531 -33.140625 19.90625 C -35.796875 19.300781 -38.128906 18.144531 -40.140625 16.4375 C -42.722656 14.25 -44.53125 11.503906 -45.5625 8.203125 C -47.519531 9.359375 -49.566406 9.90625 -51.703125 9.84375 C -53.835938 9.789062 -55.644531 9.132812 -57.125 7.875 C -58.070312 7.082031 -58.59375 6.203125 -58.6875 5.234375 C -58.789062 4.273438 -58.476562 3.359375 -57.75 2.484375 C -57.289062 1.953125 -56.644531 1.597656 -55.8125 1.421875 C -54.988281 1.253906 -54.191406 1.492188 -53.421875 2.140625 C -52.785156 2.679688 -52.394531 3.332031 -52.25 4.09375 C -52.113281 4.851562 -52.234375 5.566406 -52.609375 6.234375 C -51.609375 6.898438 -50.539062 7.109375 -49.40625 6.859375 C -48.28125 6.609375 -47.1875 6.082031 -46.125 5.28125 C -46.332031 3.601562 -46.203125 1.953125 -45.734375 0.328125 C -45.273438 -1.296875 -44.5 -2.75 -43.40625 -4.03125 C -41.632812 -6.125 -39.488281 -7.535156 -36.96875 -8.265625 C -34.457031 -9.003906 -31.878906 -9.066406 -29.234375 -8.453125 C -26.585938 -7.847656 -24.207031 -6.644531 -22.09375 -4.84375 C -21.59375 -4.425781 -21 -3.859375 -20.3125 -3.140625 C -19.84375 -2.535156 -19.25 -1.925781 -18.53125 -1.3125 C -17.28125 -0.257812 -15.992188 0.347656 -14.671875 0.515625 C -13.347656 0.679688 -12.347656 0.367188 -11.671875 -0.421875 C -10.742188 -1.515625 -10.816406 -2.828125 -11.890625 -4.359375 C -12.972656 -5.890625 -15.132812 -8.128906 -18.375 -11.078125 C -22.84375 -15.253906 -25.707031 -18.96875 -26.96875 -22.21875 C -28.226562 -25.46875 -27.617188 -28.550781 -25.140625 -31.46875 C -23.503906 -33.40625 -21.398438 -34.523438 -18.828125 -34.828125 C -16.253906 -35.128906 -13.570312 -34.75 -10.78125 -33.6875 C -8 -32.625 -5.453125 -31.109375 -3.140625 -29.140625 Z M -24 -2.9375 C -26.050781 -4.675781 -28.226562 -5.28125 -30.53125 -4.75 C -32.832031 -4.226562 -34.960938 -2.8125 -36.921875 -0.5 C -39.171875 2.15625 -40.488281 4.878906 -40.875 7.671875 C -41.269531 10.472656 -40.425781 12.757812 -38.34375 14.53125 C -36.332031 16.226562 -34.117188 16.8125 -31.703125 16.28125 C -29.296875 15.757812 -27.09375 14.320312 -25.09375 11.96875 C -22.75 9.195312 -21.457031 6.457031 -21.21875 3.75 C -20.988281 1.050781 -21.914062 -1.175781 -24 -2.9375 Z M -4.96875 -26.890625 C -7.050781 -28.648438 -9.109375 -29.921875 -11.140625 -30.703125 C -13.179688 -31.492188 -15.015625 -31.78125 -16.640625 -31.5625 C -18.273438 -31.34375 -19.554688 -30.679688 -20.484375 -29.578125 C -22.128906 -27.640625 -22.332031 -25.53125 -21.09375 -23.25 C -19.863281 -20.976562 -17.5 -18.265625 -14 -15.109375 C -11.664062 -12.992188 -9.835938 -11.179688 -8.515625 -9.671875 C -6.910156 -9.472656 -5.40625 -9.628906 -4 -10.140625 C -2.601562 -10.648438 -1.4375 -11.457031 -0.5 -12.5625 C 1.070312 -14.414062 1.445312 -16.644531 0.625 -19.25 C -0.1875 -21.863281 -2.050781 -24.410156 -4.96875 -26.890625 Z M -4.96875 -26.890625 "/></g></g></g><g fill="#000000" fill-opacity="1"><g transform="translate(138.768335, 465.770482)"><g><path d="M -40.609375 22.96875 C -39.898438 23.738281 -39.597656 24.707031 -39.703125 25.875 C -39.804688 27.050781 -40.289062 28.046875 -41.15625 28.859375 C -42.039062 29.671875 -43.085938 30.078125 -44.296875 30.078125 C -45.503906 30.085938 -46.460938 29.707031 -47.171875 28.9375 C -47.953125 28.09375 -48.28125 27.09375 -48.15625 25.9375 C -48.039062 24.789062 -47.523438 23.796875 -46.609375 22.953125 C -45.742188 22.140625 -44.710938 21.738281 -43.515625 21.75 C -42.328125 21.757812 -41.359375 22.164062 -40.609375 22.96875 Z M -3.859375 -0.890625 C -4.835938 -1.953125 -5.800781 -2.46875 -6.75 -2.4375 C -7.707031 -2.40625 -8.640625 -2.054688 -9.546875 -1.390625 C -10.453125 -0.722656 -11.785156 0.421875 -13.546875 2.046875 L -26.046875 13.59375 C -27.097656 14.5625 -28.351562 15.582031 -29.8125 16.65625 L -26 20.34375 L -28.296875 22.46875 C -30.273438 20.3125 -31.820312 18.882812 -32.9375 18.1875 C -34.0625 17.488281 -35.09375 17.101562 -36.03125 17.03125 L -37.5 15.4375 L -15.375 -5 C -13.726562 -6.519531 -12.414062 -7.59375 -11.4375 -8.21875 L -14.796875 -11.515625 L -12.546875 -13.59375 L -2.21875 -2.40625 Z M -3.859375 -0.890625 "/></g></g></g><g fill="#000000" fill-opacity="1"><g transform="translate(125.844087, 453.233217)"><g><path d="M -3.71875 -1.375 C -4.550781 -2.550781 -5.441406 -3.1875 -6.390625 -3.28125 C -7.335938 -3.375 -8.273438 -3.15625 -9.203125 -2.625 C -10.140625 -2.09375 -11.632812 -1.128906 -13.6875 0.265625 L -27.609375 10.03125 C -29.304688 11.238281 -30.679688 12.085938 -31.734375 12.578125 L -28.453125 16.71875 L -31 18.53125 C -32.6875 16.144531 -33.976562 14.597656 -34.875 13.890625 C -35.78125 13.179688 -36.726562 12.722656 -37.71875 12.515625 L -38.96875 10.75 C -38.269531 10.125 -37.09375 9.171875 -35.4375 7.890625 C -37.632812 7.359375 -39.734375 6.476562 -41.734375 5.25 C -43.734375 4.019531 -45.332031 2.550781 -46.53125 0.84375 C -49.03125 -2.6875 -49.742188 -6.039062 -48.671875 -9.21875 C -47.609375 -12.40625 -44.742188 -15.648438 -40.078125 -18.953125 L -28.75 -26.96875 C -26.925781 -28.257812 -25.488281 -29.160156 -24.4375 -29.671875 L -27.34375 -33.375 L -24.84375 -35.140625 L -16.0625 -22.703125 L -17.890625 -21.40625 C -18.722656 -22.59375 -19.613281 -23.226562 -20.5625 -23.3125 C -21.507812 -23.40625 -22.472656 -23.179688 -23.453125 -22.640625 C -24.429688 -22.109375 -25.894531 -21.148438 -27.84375 -19.765625 L -36.375 -13.734375 C -39.84375 -11.234375 -42.070312 -8.804688 -43.0625 -6.453125 C -44.050781 -4.109375 -43.710938 -1.765625 -42.046875 0.578125 C -41.015625 2.046875 -39.625 3.242188 -37.875 4.171875 C -36.125 5.097656 -34.332031 5.613281 -32.5 5.71875 C -32.082031 5.351562 -31.304688 4.769531 -30.171875 3.96875 L -14.59375 -6.9375 C -12.769531 -8.226562 -11.332031 -9.128906 -10.28125 -9.640625 L -13.1875 -13.34375 L -10.6875 -15.109375 L -1.890625 -2.671875 Z M -3.71875 -1.375 "/></g></g></g><g fill="#000000" fill-opacity="1"><g transform="translate(101.842849, 419.498607)"><g><path d="M -8.140625 -19.75 C -6.660156 -16.65625 -6.050781 -13.515625 -6.3125 -10.328125 C -6.582031 -7.140625 -7.722656 -4.175781 -9.734375 -1.4375 C -11.753906 1.300781 -14.535156 3.519531 -18.078125 5.21875 C -21.222656 6.726562 -24.519531 7.421875 -27.96875 7.296875 C -31.425781 7.179688 -34.597656 6.234375 -37.484375 4.453125 C -40.378906 2.671875 -42.613281 0.144531 -44.1875 -3.125 C -45.40625 -5.675781 -45.945312 -8.25 -45.8125 -10.84375 C -45.675781 -13.445312 -44.789062 -15.882812 -43.15625 -18.15625 C -41.53125 -20.4375 -39.101562 -22.351562 -35.875 -23.90625 L -24.09375 -0.4375 C -18.707031 -2.957031 -14.945312 -5.847656 -12.8125 -9.109375 C -10.675781 -12.367188 -10.523438 -15.90625 -12.359375 -19.71875 C -13.347656 -21.78125 -14.898438 -23.640625 -17.015625 -25.296875 C -19.128906 -26.953125 -21.25 -27.988281 -23.375 -28.40625 L -22.8125 -30.671875 C -19.382812 -30.203125 -16.394531 -28.914062 -13.84375 -26.8125 C -11.289062 -24.707031 -9.390625 -22.351562 -8.140625 -19.75 Z M -35.265625 -16.4375 C -37.953125 -15.144531 -39.96875 -13.425781 -41.3125 -11.28125 C -42.65625 -9.144531 -42.75 -6.867188 -41.59375 -4.453125 C -38.925781 1.109375 -34.070312 2.832031 -27.03125 0.71875 Z M -35.265625 -16.4375 "/></g></g></g><g fill="#000000" fill-opacity="1"><g transform="translate(85.567759, 386.704082)"><g><path d="M -4.171875 -18.8125 C -3.328125 -15.863281 -3.304688 -13.003906 -4.109375 -10.234375 C -4.910156 -7.460938 -6.476562 -5.015625 -8.8125 -2.890625 C -11.15625 -0.765625 -14.140625 0.816406 -17.765625 1.859375 C -21.585938 2.960938 -25.253906 3.164062 -28.765625 2.46875 C -32.273438 1.769531 -35.296875 0.269531 -37.828125 -2.03125 C -40.359375 -4.332031 -42.132812 -7.25 -43.15625 -10.78125 C -43.570312 -12.269531 -43.800781 -13.847656 -43.84375 -15.515625 C -43.882812 -17.179688 -43.785156 -18.597656 -43.546875 -19.765625 L -53.375 -16.9375 C -55.1875 -16.414062 -56.757812 -16.039062 -58.09375 -15.8125 L -56.328125 -10.796875 L -59.359375 -9.921875 C -60.171875 -12.742188 -60.914062 -14.71875 -61.59375 -15.84375 C -62.28125 -16.96875 -63.03125 -17.773438 -63.84375 -18.265625 L -64.4375 -20.34375 L -17.921875 -33.71875 C -16.390625 -34.15625 -14.738281 -34.53125 -12.96875 -34.84375 L -14.71875 -39.84375 L -11.71875 -40.703125 L -8.765625 -30.46875 C -9.984375 -29.851562 -11.175781 -29.320312 -12.34375 -28.875 C -10.40625 -27.945312 -8.722656 -26.613281 -7.296875 -24.875 C -5.878906 -23.132812 -4.835938 -21.113281 -4.171875 -18.8125 Z M -8.4375 -20.375 C -8.875 -21.90625 -9.765625 -23.347656 -11.109375 -24.703125 C -12.453125 -26.054688 -13.976562 -27.082031 -15.6875 -27.78125 C -16.4375 -27.507812 -17.738281 -27.109375 -19.59375 -26.578125 L -40.265625 -20.71875 C -41.285156 -17.96875 -41.359375 -15.066406 -40.484375 -12.015625 C -39.484375 -8.578125 -37.257812 -6.21875 -33.8125 -4.9375 C -30.363281 -3.65625 -26.300781 -3.6875 -21.625 -5.03125 C -16.75 -6.4375 -13.085938 -8.5 -10.640625 -11.21875 C -8.191406 -13.9375 -7.457031 -16.988281 -8.4375 -20.375 Z M -8.4375 -20.375 "/></g></g></g><g fill="#000000" fill-opacity="1"><g transform="translate(74.635512, 346.521441)"><g/></g></g><g fill="#000000" fill-opacity="1"><g transform="translate(71.84994, 328.89019)"><g><path d="M -20.359375 -7.75 C -20.265625 -6.550781 -20.644531 -5.492188 -21.5 -4.578125 C -22.351562 -3.671875 -23.445312 -3.164062 -24.78125 -3.0625 C -26.113281 -2.957031 -27.285156 -3.296875 -28.296875 -4.078125 C -29.304688 -4.867188 -29.859375 -5.859375 -29.953125 -7.046875 C -30.054688 -8.296875 -29.664062 -9.363281 -28.78125 -10.25 C -27.90625 -11.144531 -26.800781 -11.644531 -25.46875 -11.75 C -24.132812 -11.851562 -22.972656 -11.507812 -21.984375 -10.71875 C -20.992188 -9.925781 -20.453125 -8.9375 -20.359375 -7.75 Z M -20.359375 -7.75 "/></g></g></g></svg>